<?xml version="1.0" standalone="no"?>
<!DOCTYPE svg PUBLIC "-//W3C//DTD SVG 1.1//EN" "http://www.w3.org/Graphics/SVG/1.1/DTD/svg11.dtd" >
<svg xmlns="http://www.w3.org/2000/svg" xmlns:xlink="http://www.w3.org/1999/xlink" version="1.1">
<metadata></metadata>
<defs>
<font id="office_code_probold" horiz-adv-x="1228" >
<font-face units-per-em="2048" ascent="1536" descent="-512" />
<missing-glyph horiz-adv-x="500" />
<glyph horiz-adv-x="0" />
<glyph horiz-adv-x="682" />
<glyph unicode=" " />
<glyph unicode="!" d="M410 184q0 90 58 147.5t146 57.5t146.5 -57.5t58.5 -147.5q0 -92 -58.5 -150.5t-146.5 -58.5t-146 58.5t-58 150.5zM465 1372h299l-51 -850h-197z" />
<glyph unicode="&#x22;" d="M168 1403h348l-10 -270l-72 -441h-184l-72 441zM713 1403h348l-10 -270l-72 -441h-184l-72 441z" />
<glyph unicode="#" d="M143 383v192h174l29 226h-162v192h187l43 338h172l-41 -338h213l43 338h172l-41 -338h162v-192h-187l-26 -226h172v-192h-195l-47 -383h-174l45 383h-211l-47 -383h-174l45 383h-152zM494 575h211l28 226h-213z" />
<glyph unicode="$" d="M131 236l131 204q115 -68 211 -98l43 233q-162 61 -254 137t-92 212q0 170 131 256t342 86l51 270l180 -20l-53 -281q125 -41 230 -143l-150 -172q-84 53 -125 69l-41 -213q160 -55 257.5 -134t97.5 -214q0 -102 -56.5 -183t-167 -128t-262.5 -47l-57 -306l-178 21 l57 309q-82 20 -159 57t-136 85zM457 928q0 -27 27.5 -48.5t80.5 -41.5l33 184q-68 0 -104.5 -24.5t-36.5 -69.5zM649 313q74 0 113 24.5t39 68.5q0 33 -30 57t-85 49z" />
<glyph unicode="%" d="M35 207l383 354l104 -96l-332 -408zM49 985q0 156 86 248t217 92q133 0 219 -92t86 -248t-86 -251t-219 -95q-131 0 -217 95t-86 251zM256 985q0 -98 26.5 -142t69.5 -44t71 44t28 142q0 178 -99 178q-96 0 -96 -178zM571 324q0 156 86 248t220 92q131 0 217 -92.5 t86 -247.5q0 -158 -86 -253.5t-217 -95.5q-134 0 -220 95.5t-86 253.5zM711 870l331 408l154 -150l-381 -356zM778 324q0 -98 28 -142.5t71 -44.5t69.5 44t26.5 143q0 178 -96 178q-98 0 -99 -178z" />
<glyph unicode="&#x26;" d="M47 360q0 123 57.5 210t157.5 161q-86 166 -86 293q0 96 41 177t116 128t173 47q150 0 235.5 -82t85.5 -223q0 -80 -34.5 -146.5t-86 -116.5t-133.5 -116q90 -119 240 -243q78 137 113 313h274q-63 -256 -186 -457q102 -68 186 -86l-72 -244q-141 35 -282 131 q-160 -131 -371 -131q-135 0 -231.5 52.5t-146.5 139.5t-50 193zM332 379q0 -78 50 -126t132 -48q68 0 131 49q-152 135 -254 278q-59 -72 -59 -153zM424 1026q0 -74 39 -158q63 47 98 95.5t35 107.5q0 106 -84 107q-39 0 -63.5 -42t-24.5 -110z" />
<glyph unicode="'" d="M440 1403h348l-10 -270l-71 -441h-185l-71 441z" />
<glyph unicode="(" d="M371 569q0 281 112.5 517.5t319.5 418.5l168 -133q-182 -178 -265 -368.5t-83 -434.5t82.5 -434t265.5 -368l-168 -134q-207 183 -319.5 419.5t-112.5 516.5z" />
<glyph unicode=")" d="M258 -233q182 178 265 368.5t83 433.5q0 244 -83 434.5t-265 368.5l168 133q207 -182 319.5 -418.5t112.5 -517.5t-112.5 -517t-319.5 -419z" />
<glyph unicode="*" d="M131 737l47 146l332 -88l25 364h159l25 -364l332 88l47 -146l-314 -139l199 -322l-131 -90l-238 291l-237 -291l-131 90l198 322z" />
<glyph unicode="+" d="M143 569v213h361v377h221v-377h360v-213h-360v-376h-221v376h-361z" />
<glyph unicode="," d="M373 -268q133 45 199.5 118.5t66.5 172.5q-8 -2 -23 -3q-92 0 -156.5 56.5t-64.5 152.5q0 94 66.5 152.5t163.5 58.5q125 0 189.5 -92t64.5 -260q0 -197 -110 -333t-320 -199z" />
<glyph unicode="-" d="M143 569v213h942v-213h-942z" />
<glyph unicode="." d="M377 215q0 102 66.5 172t170.5 70t171 -70t67 -172t-66.5 -171t-171.5 -69q-104 0 -170.5 69t-66.5 171z" />
<glyph unicode="/" d="M49 -66l879 1520h252l-879 -1520h-252z" />
<glyph unicode="0" d="M115 680q0 338 134 517t365 179t365.5 -179t134.5 -517q0 -225 -61.5 -383t-174 -240t-264.5 -82q-151 0 -263.5 82t-174 240t-61.5 383zM383 680q0 -70 8 -176l367 569q-55 70 -144 70q-231 0 -231 -463zM471 283q55 -74 143 -74q107 0 169.5 110.5t62.5 360.5 q0 111 -8 174z" />
<glyph unicode="1" d="M168 0v244h336v800h-268v187q109 18 190.5 48t157.5 73h221v-1108h295v-244h-932z" />
<glyph unicode="2" d="M104 1163q106 111 213 162t252 51q135 0 239.5 -53t162 -149.5t57.5 -223.5q0 -158 -124 -326.5t-353 -385.5q147 16 235 16h310v-254h-977v172q223 199 349 322.5t199.5 233.5t73.5 204q0 100 -55 154.5t-158 54.5q-72 0 -135 -38t-127 -104z" />
<glyph unicode="3" d="M86 166l139 190q68 -63 150 -100t168 -37q109 0 176 44t67 122q0 98 -88 149.5t-305 51.5v213q350 0 350 188q0 72 -51 113t-141 41q-74 0 -139.5 -31t-137.5 -90l-151 184q205 172 442 172q217 0 348 -97t131 -271q0 -203 -247 -301v-9q131 -37 210.5 -120.5 t79.5 -210.5q0 -121 -70.5 -210t-188 -135.5t-257.5 -46.5q-161 0 -283 51.5t-202 139.5z" />
<glyph unicode="4" d="M72 328v207l366 817h301l-377 -795h336v330h281v-330h164v-229h-164v-328h-281v328h-626z" />
<glyph unicode="5" d="M94 164l135 190q72 -63 147 -99t161 -36q115 0 183 57.5t68 161.5q0 102 -65.5 158.5t-171.5 56.5q-63 0 -107.5 -14t-111.5 -53l-133 86l34 680h797v-254h-536l-23 -267q45 18 84 26.5t88 8.5q123 0 224.5 -46t162 -141t60.5 -233q0 -145 -70 -251.5t-186.5 -163 t-253.5 -56.5q-298 1 -486 189z" />
<glyph unicode="6" d="M123 643q0 242 78 408t206 245.5t277 79.5q129 0 235.5 -44t178.5 -115l-158 -181q-45 41 -106.5 69t-122.5 28q-131 0 -216 -104.5t-94 -334.5q68 70 153 110t161 40q180 0 290.5 -106.5t110.5 -311.5q0 -135 -63.5 -237.5t-170 -158t-233.5 -55.5q-139 0 -259 72 t-193.5 221.5t-73.5 374.5zM410 494q23 -154 85 -223.5t148 -69.5q84 0 141.5 57t57.5 168q0 102 -51.5 152.5t-141.5 50.5q-129 0 -239 -135z" />
<glyph unicode="7" d="M127 1098v254h977v-185q-162 -188 -245 -352t-114.5 -345t-46.5 -470h-303q13 236 51.5 414t117.5 341t216 343h-653z" />
<glyph unicode="8" d="M125 344q0 117 65.5 197t180.5 139v8q-90 63 -140.5 141t-50.5 177q0 170 123 270t320 100q195 0 310.5 -101t115.5 -267q0 -90 -51.5 -166t-135.5 -133v-9q115 -57 179.5 -141t64.5 -211q0 -109 -58.5 -192.5t-169 -132t-266.5 -48.5q-147 0 -257.5 47.5t-170 130.5 t-59.5 191zM385 379q0 -88 66.5 -141.5t169.5 -53.5q94 0 149 45t55 129q0 61 -36.5 101.5t-92 66t-184.5 74.5q-127 -94 -127 -221zM444 1006q0 -80 63.5 -128.5t194.5 -95.5q99 96 99 205q0 82 -48 131t-137 49q-76 0 -124 -42t-48 -119z" />
<glyph unicode="9" d="M109 926q0 135 63.5 237.5t170 157.5t232.5 55q141 0 261 -71.5t193 -221t73 -374.5q0 -244 -78 -409t-205 -245t-276 -80q-129 0 -235.5 44t-180.5 116l160 180q41 -41 104.5 -68.5t124.5 -27.5q131 0 216 104.5t93 335.5q-70 -72 -154.5 -111.5t-158.5 -39.5 q-180 0 -291.5 106.5t-111.5 311.5zM383 926q0 -104 51 -154.5t144 -50.5q128 0 239 139q-23 152 -87 221.5t-148 69.5t-141.5 -58.5t-57.5 -166.5z" />
<glyph unicode=":" d="M377 215q0 102 66.5 172t170.5 70t171 -70t67 -172t-66.5 -171t-171.5 -69q-104 0 -170.5 69t-66.5 171zM377 879q0 102 66.5 170.5t170.5 68.5t171 -68.5t67 -170.5t-66.5 -172t-171.5 -70q-104 0 -170.5 69.5t-66.5 172.5z" />
<glyph unicode=";" d="M373 -268q133 45 199.5 118.5t66.5 172.5q-8 -2 -23 -3q-92 0 -156.5 56.5t-64.5 152.5q0 94 66.5 152.5t163.5 58.5q125 0 189.5 -92t64.5 -260q0 -197 -110 -333t-320 -199zM377 879q0 102 66.5 170.5t170.5 68.5t171 -68.5t67 -170.5t-66.5 -172t-171.5 -70 q-104 0 -170.5 69.5t-66.5 172.5z" />
<glyph unicode="&#x3c;" d="M238 549v209l790 573v-293l-543 -381v-8l543 -381v-293z" />
<glyph unicode="=" d="M143 332v211h942v-211h-942zM143 809v211h942v-211h-942z" />
<glyph unicode="&#x3e;" d="M201 -25v293l542 381v8l-542 381v293l790 -573v-209z" />
<glyph unicode="?" d="M201 1212q78 86 179 135.5t218 49.5q186 0 303 -86t117 -248q0 -90 -41 -149.5t-125 -135.5q-74 -66 -109.5 -115t-35.5 -116l2 -25h-263q-4 37 -4 51q0 86 44 148.5t126 136.5q59 55 88 90t29 76q0 61 -42 95t-109 34q-59 0 -108.5 -24.5t-100.5 -69.5zM381 184 q0 90 58.5 147.5t146.5 57.5t146.5 -57.5t58.5 -147.5q0 -92 -58.5 -150.5t-146.5 -58.5t-146.5 58.5t-58.5 150.5z" />
<glyph unicode="@" d="M63 647q0 242 85 401.5t226.5 235.5t317.5 76q213 0 323.5 -125t110.5 -322v-577h-159l-23 102h-8q-41 -57 -103.5 -92t-142.5 -35q-111 0 -185.5 83t-74.5 204q0 158 130 239t380 113v15q0 90 -67.5 151.5t-188.5 61.5q-104 0 -198.5 -54.5t-155 -175.5t-60.5 -307 q0 -166 60.5 -280.5t159 -172t215.5 -57.5q86 0 146 18.5t126 59.5l86 -150q-94 -55 -180 -82.5t-189 -27.5q-170 0 -313 77.5t-230.5 235.5t-87.5 385zM649 604q0 -45 29 -71.5t80 -26.5q75 0 151 76v186q-143 -23 -201.5 -58.5t-58.5 -105.5z" />
<glyph unicode="A" d="M18 0l416 1352h361l415 -1352h-319l-80 324h-403l-82 -324h-308zM469 559h281l-31 127l-107 436h-8l-84 -352q-6 -20 -20 -84z" />
<glyph unicode="B" d="M172 0v1352h418q227 0 358 -77t131 -259q0 -98 -58 -180t-171 -113v-8q145 -27 218 -105t73 -213q0 -197 -141.5 -297t-370.5 -100h-457zM473 233h131q242 0 242 187q0 90 -58.5 131t-183.5 41h-131v-359zM473 805h102q106 0 157.5 44t51.5 124q0 78 -50 111.5t-156 33.5 h-105v-313z" />
<glyph unicode="C" d="M113 668q0 219 84 378.5t228 244.5t325 85q119 0 219 -48t176 -124l-166 -186q-51 47 -106.5 72.5t-122.5 25.5q-94 0 -169 -53t-117 -151.5t-42 -233.5q0 -205 93 -323.5t247 -118.5q131 0 237 120l166 -182q-168 -199 -422 -199q-176 0 -319 80t-227 237t-84 376z" />
<glyph unicode="D" d="M133 0v1352h363q301 0 472 -167t171 -503t-169 -509t-458 -173h-379zM436 244h43q350 0 350 438q0 229 -91 327.5t-259 98.5h-43v-864z" />
<glyph unicode="E" d="M193 0v1352h880v-254h-579v-277h491v-252h-491v-315h600v-254h-901z" />
<glyph unicode="F" d="M221 0v1352h881v-254h-580v-318h494v-254h-494v-526h-301z" />
<glyph unicode="G" d="M90 668q0 221 81 380.5t221 243.5t315 84q223 0 391 -172l-166 -186q-47 49 -98.5 73.5t-126.5 24.5q-88 0 -157 -53t-109 -152.5t-40 -232.5q0 -211 81 -326.5t237 -115.5q39 0 74.5 11t56.5 32v235h-195v246h465v-621q-74 -70 -185.5 -117t-232.5 -47q-174 0 -313 80 t-219 237t-80 376z" />
<glyph unicode="H" d="M131 0v1352h301v-523h365v523h301v-1352h-301v565h-365v-565h-301z" />
<glyph unicode="I" d="M152 0v254h311v844h-311v254h925v-254h-311v-844h311v-254h-925z" />
<glyph unicode="J" d="M121 199l174 186q118 -149 252 -149h2q106 0 156.5 56t50.5 191v617h-523v252h824v-893q0 -217 -119 -350.5t-379 -133.5q-123 0 -239.5 53.5t-198.5 170.5z" />
<glyph unicode="K" d="M139 0v1352h305v-557h7l395 557h332l-400 -539l439 -813h-334l-283 573l-156 -208v-365h-305z" />
<glyph unicode="L" d="M219 0v1352h301v-1098h594v-254h-895z" />
<glyph unicode="M" horiz-adv-x="1290" d="M133 0v1352h303l156 -482l53 -188h6l51 188l152 482h303v-1352h-244v451q0 100 13.5 287.5t25.5 318.5h-8l-108 -369l-125 -328h-136l-126 328l-107 369h-8q12 -131 25.5 -318.5t13.5 -287.5v-451h-240z" />
<glyph unicode="N" d="M135 0v1352h307l283 -678l115 -297h8q-8 86 -14 123q-2 29 -15.5 148.5t-13.5 217.5v486h289v-1352h-308l-282 680l-115 293h-8l14 -137q29 -229 29 -351v-485h-289z" />
<glyph unicode="O" d="M78 682q0 217 67.5 373.5t188.5 238.5t280 82q160 0 281 -82t188.5 -238.5t67.5 -373.5t-67.5 -377t-189.5 -245t-280 -85q-157 0 -279 85t-189.5 245t-67.5 377zM387 682q0 -205 61.5 -325.5t165.5 -120.5q105 0 166.5 120.5t61.5 325.5q0 203 -61.5 318.5t-166.5 115.5 q-104 0 -165.5 -115.5t-61.5 -318.5z" />
<glyph unicode="P" d="M152 0v1352h487q238 0 380 -101.5t142 -332.5q0 -152 -69.5 -254.5t-188.5 -152.5t-264 -50h-186v-461h-301zM453 700h168q243 0 243 216q0 106 -60.5 151t-182.5 45h-168v-412z" />
<glyph unicode="Q" d="M74 682q0 217 66.5 373.5t187.5 238.5t280 82q160 0 280 -82t186.5 -238.5t66.5 -373.5q0 -262 -96.5 -439t-262.5 -239q33 -70 98.5 -100.5t145.5 -30.5q55 0 109 27l53 -226q-78 -43 -197 -43q-188 0 -323.5 98.5t-200.5 264.5q-182 51 -287.5 231.5t-105.5 456.5z M383 682q0 -205 60.5 -325.5t164.5 -120.5q105 0 165.5 120.5t60.5 325.5q0 203 -60.5 318.5t-165.5 115.5q-106 0 -165.5 -114.5t-59.5 -319.5z" />
<glyph unicode="R" d="M143 0v1352h473q236 0 376.5 -97.5t140.5 -322.5q0 -143 -63.5 -241.5t-174.5 -147.5l301 -543h-338l-256 489h-158v-489h-301zM444 729h148q121 0 182.5 51t61.5 152q0 98 -59.5 139t-184.5 41h-148v-383z" />
<glyph unicode="S" d="M102 170l174 207q78 -66 167 -103.5t175 -37.5q102 0 151.5 34.5t49.5 98.5q0 41 -23.5 67.5t-62.5 46t-121 49.5l-172 76q-125 47 -204.5 138.5t-79.5 228.5q0 113 62.5 204t174 144t252.5 53q123 0 238.5 -46t206.5 -132l-154 -190q-74 55 -141.5 81.5t-149.5 26.5 q-88 0 -136 -32.5t-48 -92.5q0 -39 26.5 -65.5t65.5 -44t127 -50.5l162 -71q139 -51 212.5 -140.5t73.5 -226.5q0 -113 -61 -209t-179 -152.5t-278 -56.5q-137 0 -269 50.5t-239 144.5z" />
<glyph unicode="T" d="M63 1098v254h1102v-254h-399v-1098h-303v1098h-400z" />
<glyph unicode="U" d="M131 520v832h301v-863q0 -253 185 -253h1q94 0 141.5 64.5t47.5 188.5v863h291v-832q0 -266 -120 -405.5t-360 -139.5q-241 0 -364 139.5t-123 405.5z" />
<glyph unicode="V" d="M31 1352h319l162 -633q23 -86 53 -221l51 -213h9l73 288l35 146l158 633h307l-401 -1352h-363z" />
<glyph unicode="W" d="M8 1352h307l43 -723l9 -344h6q12 66 41 196l30 148l93 379h182l88 -379l31 -156q27 -119 39 -188h8l4 137q0 106 6 207l39 723h287l-166 -1352h-316l-84 430q-29 145 -37 258h-6q-14 -141 -37 -258l-79 -430h-310z" />
<glyph unicode="X" d="M37 0l389 694l-367 658h338l129 -258l58 -119q6 -16 45 -98h8q49 131 90 217l119 258h323l-366 -672l389 -680h-336l-145 279q-47 88 -107 221h-8q-49 -123 -98 -221l-140 -279h-321z" />
<glyph unicode="Y" d="M33 1352h323l136 -328q74 -182 120 -309h9q82 209 124 309l136 328h315l-430 -895v-457h-303v457z" />
<glyph unicode="Z" d="M115 0v182l626 918h-567v252h938v-183l-625 -915h633v-254h-1005z" />
<glyph unicode="[" d="M412 -311v1761h604v-160h-375v-1442h375v-159h-604z" />
<glyph unicode="\" d="M49 1454h252l879 -1520h-252z" />
<glyph unicode="]" d="M215 -152h373v1442h-373v160h604v-1761h-604v159z" />
<glyph unicode="^" d="M176 561l318 811h241l318 -811h-248l-94 262l-93 277h-8l-92 -277l-94 -262h-248z" />
<glyph unicode="_" d="M123 -111h983v-225h-983v225z" />
<glyph unicode="`" d="M293 1518h307l182 -342h-219z" />
<glyph unicode="a" d="M125 289q0 178 156.5 269t513.5 114q-8 76 -62.5 116.5t-154.5 40.5q-72 0 -141.5 -26.5t-127.5 -71.5l-106 197q76 63 191.5 103t242.5 40q217 0 338 -118.5t121 -350.5v-602h-246l-23 119h-8q-184 -143 -360 -144q-152 0 -243 89.5t-91 224.5zM414 311 q0 -51 37.5 -76.5t103.5 -25.5q117 0 240 102v181q-211 -12 -296 -58.5t-85 -122.5z" />
<glyph unicode="b" d="M147 0v1481h302v-367l-9 -166q61 57 135 90t148 33q190 0 300 -144.5t110 -385.5q0 -172 -61.5 -301t-162 -197t-217.5 -68q-71 0 -143 36t-133 104h-8l-25 -115h-236zM449 293q78 -72 176 -72q88 0 143 79t55 235q0 290 -185 290h-1q-94 0 -188 -102v-430z" />
<glyph unicode="c" d="M137 522q0 168 80 293t214 190.5t294 65.5q115 0 214 -39t167 -104l-139 -187q-113 86 -226 86q-131 0 -213 -84t-82 -221t79 -220t206 -83q133 0 268 100l123 -190q-88 -76 -199.5 -115t-220.5 -39q-161 0 -289 64.5t-202 188.5t-74 294z" />
<glyph unicode="d" d="M96 522q0 164 61.5 289t161 192.5t211.5 67.5q82 0 141.5 -28.5t119.5 -86.5l-11 164v361h301v-1481h-245l-23 109h-6q-59 -59 -134 -96.5t-149 -37.5q-129 0 -225 65.5t-149.5 189.5t-53.5 292zM406 526q0 -154 50 -229.5t146 -75.5q104 1 178 101v430q-75 73 -167 73 h-3q-88 0 -146 -77.5t-58 -221.5z" />
<glyph unicode="e" d="M113 522q0 164 73.5 289t195.5 192.5t259 67.5q152 0 259.5 -64.5t162.5 -178t55 -259.5q0 -55 -12 -135h-684q14 -115 95 -172t200 -57q68 0 130 18.5t132 55.5l98 -183q-86 -55 -193.5 -88t-207.5 -33q-160 0 -288 65.5t-201.5 189.5t-73.5 292zM418 635h428 q0 96 -49 150.5t-150 54.5q-86 0 -148.5 -52.5t-80.5 -152.5z" />
<glyph unicode="f" d="M168 809v223l268 12v33q0 190 114 309t341 119q147 0 307 -57l-57 -221q-98 41 -213 41q-96 0 -143.5 -46t-47.5 -143v-35h350v-235h-350v-809h-301v809h-268z" />
<glyph unicode="g" d="M96 541q0 156 60.5 276.5t162 187t218.5 66.5q160 0 276 -135h8l25 108h235v-1044q0 -213 -135 -328.5t-393 -115.5q-98 0 -204.5 30.5t-188.5 98.5l100 204q66 -53 143.5 -75.5t149.5 -22.5t125 26.5t81.5 67.5t31.5 84l6 170q-49 -51 -124 -81.5t-149 -30.5 q-127 0 -224 65.5t-150.5 182t-53.5 266.5zM401 545q0 -129 55.5 -203t145.5 -74q102 1 178 105v379q-75 73 -171 73h-3q-53 0 -100 -33.5t-76 -97t-29 -149.5z" />
<glyph unicode="h" d="M147 0v1481h302v-367l-17 -203q156 160 344 160q166 0 248 -111.5t82 -314.5v-645h-301v606q0 111 -34 160t-116 49q-57 0 -102 -27.5t-104 -89.5v-698h-302z" />
<glyph unicode="i" d="M125 0v244h348v565h-348v235h649v-800h348v-244h-997zM406 1368q0 92 57 150.5t148 58.5q90 0 147 -58.5t57 -150.5q0 -90 -57 -145.5t-147 -55.5q-91 0 -148 55.5t-57 145.5z" />
<glyph unicode="j" d="M86 -373l88 215q109 -51 207 -51t143 69.5t45 155.5v793h-407v235h708v-1015q0 -473 -471 -473h-5q-163 0 -308 71zM502 1401q0 92 57 150.5t148 58.5q90 0 147 -58.5t57 -150.5q0 -90 -57 -145.5t-147 -55.5q-91 0 -148 55.5t-57 145.5z" />
<glyph unicode="k" d="M156 0v1481h301v-867h8l373 430h329l-385 -428l416 -616h-326l-266 432l-149 -168v-264h-301z" />
<glyph unicode="l" d="M127 1243v238h596v-1090q0 -90 46 -131t118 -41q76 0 160 35l67 -221q-96 -31 -157.5 -44.5t-147.5 -13.5q-188 0 -287.5 114t-99.5 317v837h-295z" />
<glyph unicode="m" d="M74 0v1044h225l23 -131h8q33 74 84 116t133 42q68 0 114 -44t64 -128q31 78 86 125t137 47q106 0 166 -90t60 -248v-733h-283v711q0 53 -13.5 78.5t-43.5 25.5q-53 0 -95 -106v-709h-231v711q0 104 -59 104q-29 0 -49.5 -25.5t-43.5 -80.5v-709h-282z" />
<glyph unicode="n" d="M147 0v1044h246l23 -141h8q76 78 161 123t189 45q168 0 250 -110.5t82 -315.5v-645h-301v606q0 111 -34 160t-116 49q-57 0 -102 -27.5t-104 -89.5v-698h-302z" />
<glyph unicode="o" d="M96 522q0 168 72 293t190.5 190.5t255.5 65.5t256 -65.5t191 -190.5t72 -293t-72 -292t-190.5 -189.5t-256.5 -65.5q-137 0 -255.5 65.5t-190.5 189.5t-72 292zM406 522q0 -141 53 -222t155 -81q103 0 156 81t53 222t-53 223t-156 82q-102 0 -155 -81.5t-53 -223.5z" />
<glyph unicode="p" d="M147 -420v1464h246l23 -106h6q66 59 145.5 96t157.5 37q188 0 298 -144.5t110 -387.5q0 -172 -61.5 -300t-162 -196t-217.5 -68q-68 0 -133 30t-121 85l11 -172v-338h-302zM449 293q78 -72 174 -72q90 0 145 79t55 235q0 290 -185 290h-1q-94 0 -188 -102v-430z" />
<glyph unicode="q" d="M96 522q0 164 61.5 289t161 192.5t211.5 67.5q86 0 153 -31.5t130 -103.5h8l25 108h235v-1466h-301v356l13 164q-55 -55 -127 -89t-142 -34q-129 0 -225 65.5t-149.5 189.5t-53.5 292zM406 526q0 -154 50 -229.5t146 -75.5q104 1 178 101v430q-75 73 -167 73h-3 q-88 0 -146 -77.5t-58 -221.5z" />
<glyph unicode="r" d="M238 0v1044h245l25 -229h6q74 127 180.5 191.5t231.5 64.5q63 0 104 -10t92 -33l-61 -252q-59 16 -94 23.5t-86 7.5q-100 0 -190.5 -62.5t-151.5 -195.5v-549h-301z" />
<glyph unicode="s" d="M109 135l135 189q94 -61 183 -93t185 -32q195 0 195 92q0 45 -64.5 76.5t-207.5 72.5q-362 104 -363 305q0 96 57.5 170t163 115t248.5 41q219 0 438 -143l-135 -180q-158 98 -297 98q-92 0 -134 -21.5t-42 -64.5q0 -45 62.5 -73t197.5 -64q176 -49 275.5 -120t99.5 -194 q0 -96 -58.5 -172t-171 -119t-270.5 -43q-131 0 -263 45.5t-234 114.5z" />
<glyph unicode="t" d="M100 809v235h271v308l286 123v-431h430v-235h-430v-375q0 -119 51.5 -171t161.5 -52q100 0 203 39l53 -217q-180 -57 -331 -58q-439 0 -439 457v377h-256z" />
<glyph unicode="u" d="M127 399v645h301v-606q0 -111 33 -159t114 -48q59 0 103.5 28t95.5 97v688h301v-1044h-246l-22 152h-8q-72 -86 -155 -131.5t-187 -45.5q-330 0 -330 424z" />
<glyph unicode="v" d="M63 1044h304l159 -499l68 -230l24 -92h9l32 117q33 123 58 205l160 499h288l-372 -1044h-347z" />
<glyph unicode="w" d="M8 1044h295l62 -491q6 -33 10 -81t8 -75q4 -51 16 -153h7q18 156 47 309l63 358h211l68 -358q29 -158 49 -309h8q12 102 16 153q8 102 17 156l61 491h275l-158 -1044h-348l-58 360q-20 135 -39 308h-8q-20 -193 -37 -308l-55 -360h-342z" />
<glyph unicode="x" d="M76 0l352 543l-330 501h324l104 -172q23 -43 76 -129l31 -49h8l84 178l90 172h315l-331 -534l352 -510h-324l-116 178l-43 68q-59 88 -74 112h-8l-37 -69l-57 -111l-101 -178h-315z" />
<glyph unicode="y" d="M63 1044h299l170 -456q41 -106 103 -314h8q35 135 92 314l150 456h284l-403 -1093q-76 -205 -182.5 -300t-290.5 -95q-84 0 -156 20l53 229q39 -12 80 -12q78 0 129.5 47t71.5 101l33 84z" />
<glyph unicode="z" d="M143 0v162l533 647h-467v235h883v-159l-533 -649h549v-236h-965z" />
<glyph unicode="{" d="M217 481v176q104 2 187 29t129.5 67t46.5 76q0 41 -12.5 73t-37.5 81q-27 51 -40 89t-13 87q0 297 291 297q41 0 90 -6l158 -20v-160l-84 20q-49 12 -84 13q-68 0 -96.5 -40t-28.5 -116q0 -35 11 -67.5t34 -80.5q25 -53 36 -89t11 -76q0 -109 -82 -174.5t-205 -86.5v-8 q123 -20 205 -85.5t82 -174.5q0 -43 -13.5 -81t-35.5 -85q-23 -53 -33 -82.5t-10 -64.5q0 -76 28.5 -116t96.5 -40q35 0 84 12l84 21v-160l-158 -20q-49 -6 -90 -6q-291 0 -291 297q0 51 13.5 86.5t39.5 89.5q25 45 37.5 77.5t12.5 75.5q0 37 -46.5 77t-129 66.5 t-187.5 28.5z" />
<glyph unicode="|" d="M481 -512v2048h267v-2048h-267z" />
<glyph unicode="}" d="M215 -131l84 -21q39 -10 82 -10q68 0 96.5 40t28.5 114q0 37 -11.5 70.5t-31.5 76.5q-23 51 -35 87t-12 79q0 109 82 174.5t204 85.5v8q-123 20 -204.5 86t-81.5 175q0 41 11 76.5t36 88.5q20 43 31.5 77t11.5 71q0 74 -28.5 113.5t-96.5 39.5q-43 0 -82 -10l-84 -20v160 l158 20q49 6 90 6q291 0 291 -297q0 -49 -13.5 -85t-42.5 -91q-25 -49 -37 -81t-12 -73q0 -37 46 -76.5t129 -66.5t190 -29v-176q-106 -2 -189.5 -28.5t-129.5 -66.5t-46 -77q0 -43 12.5 -75.5t36.5 -77.5q29 -55 42.5 -91t13.5 -85q0 -297 -291 -297q-41 0 -90 6l-158 20 v160z" />
<glyph unicode="~" d="M106 563q61 154 147.5 225.5t186.5 71.5q63 0 110.5 -23.5t102.5 -66.5q47 -35 76 -50t64 -15q45 0 82.5 41.5t66.5 125.5l180 -84q-61 -154 -147 -225t-187 -71q-63 0 -110 23.5t-103 66.5q-47 35 -75.5 50t-63.5 15q-43 0 -82 -43t-67 -125z" />
<glyph unicode="&#xa0;" />
<glyph unicode="&#xa1;" d="M410 831q0 92 58 150.5t146 58.5t146.5 -58t58.5 -151q0 -90 -58.5 -147t-146.5 -57t-146 57t-58 147zM465 -356l51 850h197l51 -850h-299z" />
<glyph unicode="&#xa2;" d="M197 629q0 211 121.5 346t318.5 168v198h166v-190q78 -8 143.5 -38t110.5 -77l-137 -184q-61 49 -117 55v-557q74 12 147 72l121 -191q-57 -49 -127 -79.5t-141 -40.5v-195h-166v195q-203 27 -321.5 163t-118.5 355zM489 629q0 -92 38 -159t110 -97v512 q-74 -33 -111 -98.5t-37 -157.5z" />
<glyph unicode="&#xa3;" d="M137 0v186q111 43 176.5 125t65.5 189q0 29 -6 55h-230v176l172 10q-39 104 -39 164q0 127 59.5 222.5t166 146.5t241.5 51q123 0 215.5 -42t165.5 -124l-161 -164q-43 43 -88.5 64.5t-102.5 21.5q-100 0 -155.5 -48t-55.5 -144q0 -55 27 -148h346v-186h-299q4 -37 4 -57 q0 -72 -25.5 -126.5t-85.5 -109.5v-8h598v-254h-989z" />
<glyph unicode="&#xa4;" d="M74 281l166 168q-70 94 -70 227q0 129 68 223l-164 168l149 152l183 -185q98 51 208 51q106 0 209 -51l183 185l149 -152l-166 -168q70 -92 70 -223q0 -129 -72 -227l168 -168l-149 -152l-185 186q-94 -49 -207 -49t-206 49l-185 -186zM438 676q0 -90 50.5 -145.5 t125.5 -55.5q76 0 126.5 55.5t50.5 145.5t-50.5 145.5t-126.5 55.5t-126 -55.5t-50 -145.5z" />
<glyph unicode="&#xa5;" d="M63 1300h310l125 -272q12 -27 32 -80q18 -39 39 -86t45 -102h9l116 268l125 272h301l-334 -600h281v-143h-348v-113h348v-143h-348v-301h-301v301h-346v143h346v113h-346v143h280z" />
<glyph unicode="&#xa6;" d="M481 418h267v-930h-267v930zM481 639v897h267v-897h-267z" />
<glyph unicode="&#xa7;" d="M145 668q0 76 45.5 145.5t122.5 116.5q-59 72 -59 170q0 141 97.5 227t266.5 86q199 0 373 -133l-139 -188q-51 45 -107.5 71.5t-109.5 26.5q-111 0 -111 -80q0 -37 44 -65.5t141 -71.5q115 -49 189.5 -94t129.5 -119t55 -178q0 -170 -172 -273q47 -70 47 -157 q0 -143 -103 -233.5t-290 -90.5q-116 0 -225 44t-174 128l172 154q104 -104 227 -105q61 0 92 23.5t31 64.5q0 43 -43 72t-141 70q-109 47 -181.5 90t-125 116.5t-52.5 182.5zM399 690q0 -63 55.5 -104t174.5 -92q104 -47 127 -60q37 23 55 52.5t18 70.5q0 68 -58 108 t-183 93q-92 41 -113 51q-76 -45 -76 -119z" />
<glyph unicode="&#xa8;" d="M229 1331q0 68 46.5 114t115.5 46q70 0 115 -46t45 -114q0 -70 -45 -116t-115 -46q-69 0 -115.5 46.5t-46.5 115.5zM678 1331q0 68 45 114t115 46t115.5 -46t45.5 -114q0 -70 -46 -116t-115 -46q-70 0 -115 46.5t-45 115.5z" />
<glyph unicode="&#xa9;" horiz-adv-x="1349" d="M0 666q0 205 92 358.5t246 235t338 81.5q182 0 336.5 -81.5t246 -235.5t91.5 -358q0 -205 -91.5 -360.5t-246 -239.5t-336.5 -84t-337 84t-247 239.5t-92 360.5zM139 666q0 -164 71 -292t193.5 -198t272.5 -70q149 0 272 70t193.5 198t70.5 292t-70.5 289.5t-193.5 194.5 t-272 69q-150 0 -272.5 -69t-193.5 -195t-71 -289zM305 664q0 117 54.5 205.5t145.5 138t195 49.5q86 0 149.5 -32t121.5 -89l-113 -125q-33 35 -65.5 52.5t-73.5 17.5q-94 0 -146.5 -61.5t-52.5 -155.5q0 -104 51.5 -166t137.5 -62q47 0 82.5 17.5t80.5 52.5l99 -139 q-135 -106 -271 -107q-114 0 -204 49t-140.5 141.5t-50.5 213.5z" />
<glyph unicode="&#xaa;" d="M315 719q0 109 95.5 168t304.5 80q-4 43 -33 65.5t-82 22.5q-78 0 -186 -60l-76 138q152 90 305 90q135 0 210 -77t75 -233v-381h-174l-15 68h-4q-102 -84 -205 -84q-94 0 -154.5 59.5t-60.5 143.5zM520 737q0 -29 20.5 -44t57.5 -15q64 0 117 53v109q-195 -25 -195 -103 z" />
<glyph unicode="&#xab;" d="M86 367v299l350 315l127 -113l-260 -352l260 -352l-127 -113zM631 367v299l350 315l127 -113l-260 -352l260 -352l-127 -113z" />
<glyph unicode="&#xac;" d="M143 569v213h942v-589h-221v376h-721z" />
<glyph unicode="&#xad;" d="M143 569v213h942v-213h-942z" />
<glyph unicode="&#xae;" d="M207 1051q0 119 54 213t147.5 147t203.5 53q113 0 205 -53t146.5 -147.5t54.5 -212.5q0 -119 -54.5 -213.5t-146.5 -147.5t-205 -53q-110 0 -203.5 53t-147.5 147.5t-54 213.5zM317 1051q0 -141 82 -227.5t213 -86.5t213 86t82 228q0 141 -82 227t-213 86t-213 -86 t-82 -227zM446 852v403h183q76 0 121 -33.5t45 -101.5q0 -78 -72 -110l86 -158h-123l-61 123h-60v-123h-119zM565 1057h41q31 0 47.5 16.5t16.5 40.5q0 23 -16.5 38t-45.5 15h-43v-110z" />
<glyph unicode="&#xaf;" d="M332 1212v191h565v-191h-565z" />
<glyph unicode="&#xb0;" d="M319 1110q0 84 39 151.5t108 105.5t150 38q125 0 210 -84t85 -211t-85 -211t-210 -84q-81 0 -150 38t-108 105.5t-39 151.5zM479 1110q0 -68 38 -110t99 -42q62 0 100 42t38 110q0 66 -38 108t-100 42q-61 0 -99 -42t-38 -108z" />
<glyph unicode="&#xb1;" d="M143 0v213h942v-213h-942zM143 602v213h361v344h221v-344h360v-213h-360v-278h-221v278h-361z" />
<glyph unicode="&#xb4;" d="M446 1176l183 342h307l-270 -342h-220z" />
<glyph unicode="&#xb5;" d="M127 -401v1417h301v-588q0 -106 35 -151.5t106 -45.5q61 0 109.5 36t95.5 122v627h303q-20 -475 -20 -713q0 -84 71 -84q20 0 37 4l37 -223q-59 -25 -151 -25q-190 0 -244 193h-8q-41 -88 -104.5 -135t-139.5 -47q-102 0 -145 51q2 -117 7 -227.5t15 -210.5h-305z" />
<glyph unicode="&#xb6;" d="M98 879q0 242 134.5 349t353.5 107h86v-932h-82q-137 0 -249 54.5t-177.5 162t-65.5 259.5zM778 -164v1499h299v-1499h-299z" />
<glyph unicode="&#xb7;" d="M377 725q0 102 66.5 171t170.5 69t171 -69t67 -171t-66.5 -172t-171.5 -70q-104 0 -170.5 70t-66.5 172z" />
<glyph unicode="&#xb8;" d="M408 -332q168 18 167 90q0 29 -26.5 49.5t-91.5 36.5l82 164h176l-41 -96q119 -39 119 -152q0 -100 -102.5 -152t-260.5 -61z" />
<glyph unicode="&#xba;" d="M272 868q0 109 47.5 189t125 123t169.5 43t170 -43t125 -123t47 -189t-47 -188.5t-124.5 -121.5t-170.5 -42q-92 0 -169.5 42t-125 122t-47.5 188zM489 868q0 -86 31 -135t94 -49q64 0 94.5 49t30.5 135q0 184 -125 185q-63 0 -94 -48.5t-31 -136.5z" />
<glyph unicode="&#xbb;" d="M121 164l260 352l-260 352l127 113l350 -315v-299l-350 -316zM666 164l260 352l-260 352l127 113l350 -315v-299l-350 -316z" />
<glyph unicode="&#xbc;" d="M35 207l381 354l104 -96l-332 -408zM141 1098v131q76 8 120 23.5t95 47.5h170v-636h-219v434h-166zM590 125v104l246 410h274v-379h104v-135h-104v-125h-192v125h-328zM709 870l331 408l154 -150l-381 -356zM784 260h134v45l10 203h-6l-70 -127z" />
<glyph unicode="&#xbd;" d="M35 207l381 354l104 -96l-332 -408zM141 1098v131q76 8 120 23.5t95 47.5h170v-636h-219v434h-166zM584 530q127 133 272 134q123 0 194.5 -59.5t71.5 -164.5q0 -63 -44 -126.5t-122 -135.5h191v-178h-535v113q301 199 301 290q0 39 -23.5 61.5t-66.5 22.5 q-61 0 -114 -71zM709 870l331 408l154 -150l-381 -356z" />
<glyph unicode="&#xbe;" d="M49 207l381 354l105 -96l-332 -408zM76 723l84 135q35 -25 82 -42t88 -17q37 0 61.5 15t24.5 44q0 37 -36 54.5t-114 17.5v114q59 0 91 15.5t32 50.5q0 25 -20.5 39t-57.5 14q-57 0 -135 -51l-88 129q49 39 120 61.5t152 22.5q102 0 172 -50t70 -130q0 -57 -24.5 -92 t-85.5 -56q137 -37 137 -155q0 -88 -80 -145.5t-193 -57.5q-163 0 -280 84zM592 125v104l246 410h272v-379h107v-135h-107v-125h-190v125h-328zM723 870l332 408l153 -150l-381 -356zM786 260h134v45l10 203h-6l-70 -127z" />
<glyph unicode="&#xbf;" d="M211 -47q0 90 41 149.5t125 135.5q74 66 109.5 114.5t35.5 116.5l-2 25h264q4 -33 4 -50q0 -88 -44 -149.5t-128 -136.5q-59 -55 -87.5 -90t-28.5 -76q0 -61 42 -95t109 -34q59 0 108.5 23.5t102.5 70.5l166 -152q-78 -86 -179 -136t-218 -50q-187 0 -303.5 86 t-116.5 248zM440 831q0 92 57.5 150.5t145.5 58.5q90 0 147.5 -58t57.5 -151q0 -90 -57.5 -147t-147.5 -57q-88 0 -145.5 57t-57.5 147z" />
<glyph unicode="&#xc0;" d="M18 0l416 1350h361l415 -1350h-319l-80 324h-403l-82 -324h-308zM283 1700h319l166 -248h-240zM469 559h281l-31 125l-107 434h-8q-16 -70 -80 -336l-24 -98z" />
<glyph unicode="&#xc1;" d="M18 0l416 1350h361l415 -1350h-319l-80 324h-403l-82 -324h-308zM461 1452l166 248h319l-246 -248h-239zM469 559h281l-31 125l-107 434h-8q-16 -70 -80 -336l-24 -98z" />
<glyph unicode="&#xc2;" d="M18 0l416 1350h361l415 -1350h-319l-80 324h-403l-82 -324h-308zM270 1452l197 248h295l196 -248h-231l-109 127h-8l-108 -127h-232zM469 559h281l-31 125l-107 434h-8q-16 -70 -80 -336l-24 -98z" />
<glyph unicode="&#xc3;" d="M18 0l416 1350h361l415 -1350h-319l-80 324h-403l-82 -324h-308zM266 1456q15 135 75 208t144 73q43 0 77 -14.5t79 -43.5q8 -4 38 -20.5t52 -16.5q59 0 78 95h154q-14 -135 -75 -208t-145 -73q-43 0 -76.5 14.5t-78.5 42.5q-8 4 -38 20.5t-52 16.5q-57 0 -78 -94h-154z M469 559h281l-31 127l-107 434h-8l-78 -323l-26 -111z" />
<glyph unicode="&#xc4;" d="M18 0l416 1350h361l415 -1350h-319l-80 324h-403l-82 -324h-308zM268 1593q0 61 40 102.5t104 41.5q63 0 103 -41t40 -103q0 -61 -40 -102t-103 -41q-64 0 -104 41t-40 102zM469 559h281l-31 125l-107 436h-8l-84 -352q-6 -20 -20 -84zM674 1593q0 61 40 102.5t103 41.5 t103.5 -41t40.5 -103q0 -61 -40 -102t-104 -41q-63 0 -103 41t-40 102z" />
<glyph unicode="&#xc5;" d="M18 0l416 1350h361l415 -1350h-319l-80 324h-403l-82 -324h-308zM383 1645q0 90 64.5 146t166.5 56t167 -56t65 -146q0 -92 -63.5 -147.5t-168.5 -55.5q-104 0 -167.5 55t-63.5 148zM469 559h281l-31 125l-107 436h-8l-84 -352q-6 -20 -20 -84zM530 1645q0 -41 24 -66 t60 -25q35 0 58.5 25t23.5 66q0 39 -23.5 64.5t-58.5 25.5t-59.5 -26t-24.5 -64z" />
<glyph unicode="&#xc6;" d="M-6 0l428 1352h778v-254h-297v-273h242v-254h-242v-317h316v-254h-582v311h-242l-92 -311h-309zM465 545h172v579h-6q-31 -121 -109 -385z" />
<glyph unicode="&#xc7;" d="M113 668q0 219 84 378.5t228 244.5t325 85q119 0 219 -48t176 -124l-166 -186q-51 47 -106.5 72.5t-122.5 25.5q-94 0 -169 -53t-117 -151.5t-42 -233.5q0 -205 93 -323.5t247 -118.5q131 0 237 120l166 -182q-150 -178 -372 -197l-29 -67q121 -39 121 -154 q0 -100 -102.5 -152.5t-262.5 -60.5l-22 121q170 18 170 90q0 29 -27 50.5t-92 37.5l72 144q-147 27 -262 113.5t-180.5 231t-65.5 337.5z" />
<glyph unicode="&#xc8;" d="M193 0v1350h880v-254h-579v-275h491v-252h-491v-315h600v-254h-901zM326 1700h321l164 -248h-240z" />
<glyph unicode="&#xc9;" d="M193 0v1350h880v-254h-579v-275h491v-252h-491v-315h600v-254h-901zM506 1452l164 248h321l-246 -248h-239z" />
<glyph unicode="&#xca;" d="M193 0v1350h880v-254h-579v-275h491v-252h-491v-315h600v-254h-901zM315 1452l197 248h293l196 -248h-229l-108 127h-9l-110 -127h-230z" />
<glyph unicode="&#xcb;" d="M193 0v1350h880v-254h-579v-275h491v-252h-491v-315h600v-254h-901zM313 1593q0 61 40 102.5t102 41.5q63 0 103 -41t40 -103q0 -61 -40 -102t-103 -41q-62 0 -102 41t-40 102zM719 1593q0 61 40 102.5t103 41.5q61 0 101.5 -41t40.5 -103q0 -61 -40 -102t-102 -41 q-63 0 -103 41t-40 102z" />
<glyph unicode="&#xcc;" d="M152 0v254h311v842h-311v254h925v-254h-311v-842h311v-254h-925zM283 1700h319l166 -248h-240z" />
<glyph unicode="&#xcd;" d="M152 0v254h311v842h-311v254h925v-254h-311v-842h311v-254h-925zM461 1452l166 248h319l-246 -248h-239z" />
<glyph unicode="&#xce;" d="M152 0v254h311v842h-311v254h925v-254h-311v-842h311v-254h-925zM270 1452l197 248h295l196 -248h-231l-109 127h-8l-108 -127h-232z" />
<glyph unicode="&#xcf;" d="M152 0v254h311v842h-311v254h925v-254h-311v-842h311v-254h-925zM268 1593q0 61 40 102.5t104 41.5q63 0 103 -41t40 -103q0 -61 -40 -102t-103 -41q-64 0 -104 41t-40 102zM674 1593q0 61 40 102.5t103 41.5t103.5 -41t40.5 -103q0 -61 -40 -102t-104 -41q-63 0 -103 41 t-40 102z" />
<glyph unicode="&#xd0;" d="M4 625v135l141 12v580h365q299 0 470 -167t171 -503t-169 -509t-456 -173h-381v625h-141zM449 244h43q350 0 350 438q0 229 -91.5 327.5t-258.5 98.5h-43v-336h219v-147h-219v-381z" />
<glyph unicode="&#xd1;" d="M135 0v1350h307l283 -678l115 -295h8q-8 86 -14 123q-2 29 -15.5 148.5t-13.5 217.5v484h289v-1350h-308l-282 678l-115 293h-8l14 -137q29 -229 29 -351v-483h-289zM279 1456q14 135 74.5 208t144.5 73q43 0 76.5 -14.5t78.5 -43.5q8 -4 38 -20.5t52 -16.5q59 0 78 95 h154q-14 -135 -74.5 -208t-144.5 -73q-43 0 -77 14.5t-79 42.5q-8 4 -38 20.5t-52 16.5q-57 0 -78 -94h-153z" />
<glyph unicode="&#xd2;" d="M78 680q0 217 67.5 373.5t188.5 238.5t280 82q160 0 281 -83t188.5 -239.5t67.5 -371.5q0 -217 -67.5 -376t-189.5 -244t-280 -85q-157 0 -279 85t-189.5 244t-67.5 376zM283 1700h319l166 -248h-240zM387 680q0 -205 61.5 -324.5t165.5 -119.5q105 0 166.5 119.5 t61.5 324.5q0 203 -61.5 318.5t-166.5 115.5q-104 0 -165.5 -115.5t-61.5 -318.5z" />
<glyph unicode="&#xd3;" d="M78 680q0 217 67.5 373.5t188.5 238.5t280 82q160 0 281 -83t188.5 -239.5t67.5 -371.5q0 -217 -67.5 -376t-189.5 -244t-280 -85q-157 0 -279 85t-189.5 244t-67.5 376zM387 680q0 -205 61.5 -324.5t165.5 -119.5q105 0 166.5 119.5t61.5 324.5q0 203 -61.5 318.5 t-166.5 115.5q-104 0 -165.5 -115.5t-61.5 -318.5zM461 1452l166 248h319l-246 -248h-239z" />
<glyph unicode="&#xd4;" d="M78 680q0 217 67.5 373.5t188.5 238.5t280 82q160 0 281 -83t188.5 -239.5t67.5 -371.5q0 -217 -67.5 -376t-189.5 -244t-280 -85q-157 0 -279 85t-189.5 244t-67.5 376zM270 1452l197 248h295l196 -248h-231l-109 127h-8l-108 -127h-232zM387 680q0 -205 61.5 -324.5 t165.5 -119.5q105 0 166.5 119.5t61.5 324.5q0 203 -61.5 318.5t-166.5 115.5q-104 0 -165.5 -115.5t-61.5 -318.5z" />
<glyph unicode="&#xd5;" d="M78 682q0 217 67.5 372.5t188.5 237.5t280 82q160 0 281 -82t188.5 -238.5t67.5 -371.5q0 -217 -67.5 -377t-189.5 -245t-280 -85q-157 0 -279 85t-189.5 245t-67.5 377zM266 1456q15 135 75 208t144 73q43 0 77 -14.5t79 -43.5q8 -4 38 -20.5t52 -16.5q59 0 78 95h154 q-14 -135 -75 -208t-145 -73q-43 0 -76.5 14.5t-78.5 42.5q-8 4 -38 20.5t-52 16.5q-57 0 -78 -94h-154zM387 682q0 -205 61.5 -325.5t165.5 -120.5q105 0 166.5 120.5t61.5 325.5q0 203 -61.5 317.5t-166.5 114.5q-104 0 -165.5 -114.5t-61.5 -317.5z" />
<glyph unicode="&#xd6;" d="M78 682q0 217 67.5 372.5t188.5 237.5t280 82q160 0 281 -82t188.5 -238.5t67.5 -371.5q0 -217 -67.5 -377t-189.5 -245t-280 -85q-157 0 -279 85t-189.5 245t-67.5 377zM268 1593q0 61 40 102.5t104 41.5q63 0 103 -41t40 -103q0 -61 -40 -102t-103 -41q-64 0 -104 41 t-40 102zM387 682q0 -205 61.5 -325.5t165.5 -120.5q105 0 166.5 120.5t61.5 325.5q0 203 -61.5 317.5t-166.5 114.5q-104 0 -165.5 -114.5t-61.5 -317.5zM674 1593q0 61 40 102.5t103 41.5t103.5 -41t40.5 -103q0 -61 -40 -102t-104 -41q-63 0 -103 41t-40 102z" />
<glyph unicode="&#xd7;" d="M172 381l291 293l-291 295l150 151l292 -295l293 295l150 -151l-291 -295l291 -293l-150 -152l-293 295l-292 -295z" />
<glyph unicode="&#xd8;" d="M61 18l132 193q-115 184 -115 471q0 217 67.5 373.5t188.5 239.5t280 83q174 0 304 -100l108 160l160 -103l-139 -205q104 -178 104 -448q0 -217 -67.5 -377t-189.5 -245t-280 -85q-168 0 -288 93l-105 -152zM387 682q0 -92 12 -172l326 549q6 10 -10.5 24.5t-45 24.5 t-55.5 10q-104 0 -165.5 -116.5t-61.5 -319.5zM485 301q53 -66 129 -65q105 0 166.5 120.5t61.5 325.5q0 84 -8 139z" />
<glyph unicode="&#xd9;" d="M131 518v832h301v-861q0 -254 186 -253q188 0 189 253v861h291v-832q0 -266 -120 -404.5t-360 -138.5q-241 0 -364 139.5t-123 403.5zM283 1700h319l166 -248h-240z" />
<glyph unicode="&#xda;" d="M131 518v832h301v-861q0 -254 186 -253q188 0 189 253v861h291v-832q0 -266 -120 -404.5t-360 -138.5q-241 0 -364 139.5t-123 403.5zM461 1452l166 248h319l-246 -248h-239z" />
<glyph unicode="&#xdb;" d="M131 518v832h301v-861q0 -254 186 -253q188 0 189 253v861h291v-832q0 -266 -120 -404.5t-360 -138.5q-241 0 -364 139.5t-123 403.5zM270 1452l197 248h295l196 -248h-231l-109 127h-8l-108 -127h-232z" />
<glyph unicode="&#xdc;" d="M131 520v830h301v-861q0 -254 186 -253q188 0 189 253v861h291v-830q0 -266 -120 -405.5t-360 -139.5q-241 0 -364 139.5t-123 405.5zM268 1593q0 61 40 102.5t104 41.5q63 0 103 -41t40 -103q0 -61 -40 -102t-103 -41q-64 0 -104 41t-40 102zM674 1593q0 61 40 102.5 t103 41.5t103.5 -41t40.5 -103q0 -61 -40 -102t-104 -41q-63 0 -103 41t-40 102z" />
<glyph unicode="&#xdd;" d="M33 1350h323l136 -328l120 -307h9l30 78l94 229l136 328h315l-430 -893v-457h-303v457zM461 1452l166 248h319l-246 -248h-239z" />
<glyph unicode="&#xde;" d="M150 0v1352h301v-205h186q238 0 380 -101.5t142 -330.5q0 -227 -147.5 -343t-374.5 -116h-186v-256h-301zM451 496h167q244 0 244 219q0 102 -60.5 147t-183.5 45h-167v-411z" />
<glyph unicode="&#xdf;" d="M125 0v1049q0 205 118.5 330.5t346.5 125.5q127 0 214 -49t130 -129t43 -174q0 -78 -19.5 -130t-56.5 -118q-25 -41 -37 -68.5t-12 -60.5q0 -39 27.5 -67.5t87.5 -67.5q63 -45 103 -81t69.5 -96.5t29.5 -144.5q0 -150 -93 -247t-263 -97q-82 0 -147.5 18.5t-137.5 59.5 l101 205q88 -59 174 -59q39 0 63.5 26.5t24.5 67.5q0 49 -31 82t-98 80q-59 41 -97 73.5t-65 85t-27 125.5q0 59 15.5 103.5t48.5 101.5q31 59 45 99t14 94q0 57 -29.5 94t-78.5 37q-82 0 -122 -62.5t-40 -177.5v-1028h-301z" />
<glyph unicode="&#xe0;" d="M125 289q0 178 156.5 269t513.5 114q-8 76 -62.5 116.5t-154.5 40.5q-72 0 -141.5 -26.5t-127.5 -71.5l-106 197q76 63 191.5 103t242.5 40q217 0 338 -118.5t121 -350.5v-602h-246l-23 119h-8q-184 -143 -360 -144q-152 0 -243 89.5t-91 224.5zM391 1518h307l183 -342 h-220zM414 311q0 -51 37.5 -76.5t103.5 -25.5q117 0 240 102v181q-211 -12 -296 -58.5t-85 -122.5z" />
<glyph unicode="&#xe1;" d="M125 289q0 178 156.5 269t513.5 114q-8 76 -62.5 116.5t-154.5 40.5q-72 0 -141.5 -26.5t-127.5 -71.5l-106 197q76 63 191.5 103t242.5 40q217 0 338 -118.5t121 -350.5v-602h-246l-23 119h-8q-184 -143 -360 -144q-152 0 -243 89.5t-91 224.5zM392 1176l182 342h307 l-270 -342h-219zM414 311q0 -51 37.5 -76.5t103.5 -25.5q117 0 240 102v181q-211 -12 -296 -58.5t-85 -122.5z" />
<glyph unicode="&#xe2;" d="M125 289q0 178 156.5 269t513.5 114q-8 76 -62.5 116.5t-154.5 40.5q-72 0 -141.5 -26.5t-127.5 -71.5l-106 197q76 63 191.5 103t242.5 40q217 0 338 -118.5t121 -350.5v-602h-246l-23 119h-8q-184 -143 -360 -144q-152 0 -243 89.5t-91 224.5zM305 1176l205 342h254 l204 -342h-219l-108 194h-8l-109 -194h-219zM414 311q0 -51 37.5 -76.5t103.5 -25.5q117 0 240 102v181q-211 -12 -296 -58.5t-85 -122.5z" />
<glyph unicode="&#xe3;" d="M125 289q0 178 156.5 269t513.5 114q-8 76 -62.5 116.5t-154.5 40.5q-72 0 -141.5 -26.5t-127.5 -71.5l-106 197q76 63 191.5 103t242.5 40q217 0 338 -118.5t121 -350.5v-602h-246l-23 119h-8q-184 -143 -360 -144q-152 0 -243 89.5t-91 224.5zM286 1178 q19 145 81.5 218.5t158.5 73.5q39 0 69.5 -16t69.5 -47q4 -4 22.5 -17.5t32 -19.5t25.5 -6q33 0 53.5 23.5t34.5 82.5h154q-18 -145 -81 -218.5t-159 -73.5q-39 0 -69.5 16t-71.5 49q-29 23 -45.5 33t-32.5 10q-33 0 -53.5 -24.5t-34.5 -83.5h-154zM414 311 q0 -51 37.5 -76.5t103.5 -25.5q117 0 240 102v181q-211 -12 -296 -58.5t-85 -122.5z" />
<glyph unicode="&#xe4;" d="M125 289q0 178 156.5 269t513.5 114q-8 76 -62.5 116.5t-154.5 40.5q-72 0 -141.5 -26.5t-127.5 -71.5l-106 197q76 63 191.5 103t242.5 40q217 0 338 -118.5t121 -350.5v-602h-246l-23 119h-8q-184 -143 -360 -144q-152 0 -243 89.5t-91 224.5zM252 1331q0 68 46 114 t115 46q70 0 115 -46t45 -114q0 -70 -45 -116t-115 -46q-69 0 -115 46.5t-46 115.5zM414 311q0 -51 37.5 -76.5t103.5 -25.5q117 0 240 102v181q-211 -12 -296 -58.5t-85 -122.5zM700 1331q0 68 45 114t115 46t116 -46t46 -114q0 -70 -46.5 -116t-115.5 -46q-70 0 -115 46.5 t-45 115.5z" />
<glyph unicode="&#xe5;" d="M125 289q0 178 156.5 269t513.5 114q-8 76 -62.5 116.5t-154.5 40.5q-72 0 -141.5 -26.5t-127.5 -71.5l-106 197q76 63 191.5 103t242.5 40q217 0 338 -118.5t121 -350.5v-602h-246l-23 119h-8q-184 -143 -360 -144q-152 0 -243 89.5t-91 224.5zM405 1331 q0 94 63.5 151.5t168.5 57.5q104 0 167.5 -57.5t63.5 -151.5t-63.5 -151.5t-167.5 -57.5q-105 0 -168.5 57.5t-63.5 151.5zM414 311q0 -51 37.5 -76.5t103.5 -25.5q117 0 240 102v181q-211 -12 -296 -58.5t-85 -122.5zM553 1331q0 -43 23.5 -69.5t60.5 -26.5q36 0 60 26.5 t24 69.5t-24 69.5t-60 26.5q-37 0 -60.5 -26.5t-23.5 -69.5z" />
<glyph unicode="&#xe6;" d="M33 291q0 156 111.5 246t349.5 137q-6 78 -34 117.5t-83 39.5q-41 0 -99.5 -20t-111.5 -53l-107 196q92 57 174 87t164 30q160 0 238 -158q53 82 114.5 120t147.5 38q150 0 233.5 -143.5t83.5 -358.5q0 -68 -14 -135h-465q16 -109 64.5 -166t122.5 -57q43 0 80.5 13.5 t78.5 41.5l103 -192q-57 -47 -131 -73t-142 -26q-104 0 -179 42t-130 122q-80 -86 -148.5 -125t-138.5 -39q-133 0 -207.5 89.5t-74.5 226.5zM303 313q0 -51 24.5 -77.5t69.5 -26.5q31 0 65 20.5t60 55.5q-25 70 -28 161l-2 43q-188 -41 -189 -176zM731 621h244 q0 219 -107 219q-53 0 -90 -55.5t-47 -163.5z" />
<glyph unicode="&#xe7;" d="M137 522q0 168 80 293t214 190.5t294 65.5q115 0 214 -39t167 -104l-139 -187q-113 86 -226 86q-131 0 -213 -84t-82 -221t79 -220t206 -83q133 0 268 100l123 -190q-86 -74 -193.5 -113t-213.5 -41l-27 -63q119 -39 119 -152q0 -100 -102.5 -152t-260.5 -61l-22 121 q168 18 168 90q0 29 -26.5 49.5t-92.5 36.5l74 148q-184 43 -296 181t-112 349z" />
<glyph unicode="&#xe8;" d="M113 522q0 164 73.5 289t195.5 192.5t259 67.5q152 0 259.5 -64.5t162.5 -178t55 -259.5q0 -55 -12 -135h-684q14 -115 95 -172t200 -57q68 0 130 18.5t132 55.5l98 -183q-86 -55 -193.5 -88t-207.5 -33q-160 0 -288 65.5t-201.5 189.5t-73.5 292zM395 1518h307l183 -342 h-220zM418 635h428q0 96 -49 150.5t-150 54.5q-86 0 -148.5 -52.5t-80.5 -152.5z" />
<glyph unicode="&#xe9;" d="M113 522q0 164 73.5 289t195.5 192.5t259 67.5q152 0 259.5 -64.5t162.5 -178t55 -259.5q0 -55 -12 -135h-684q14 -115 95 -172t200 -57q68 0 130 18.5t132 55.5l98 -183q-86 -55 -193.5 -88t-207.5 -33q-160 0 -288 65.5t-201.5 189.5t-73.5 292zM396 1176l182 342h307 l-270 -342h-219zM418 635h428q0 96 -49 150.5t-150 54.5q-86 0 -148.5 -52.5t-80.5 -152.5z" />
<glyph unicode="&#xea;" d="M113 522q0 164 73.5 289t195.5 192.5t259 67.5q152 0 259.5 -64.5t162.5 -178t55 -259.5q0 -55 -12 -135h-684q14 -115 95 -172t200 -57q68 0 130 18.5t132 55.5l98 -183q-86 -55 -193.5 -88t-207.5 -33q-160 0 -288 65.5t-201.5 189.5t-73.5 292zM309 1176l205 342h254 l204 -342h-219l-108 194h-8l-109 -194h-219zM418 635h428q0 96 -49 150.5t-150 54.5q-86 0 -148.5 -52.5t-80.5 -152.5z" />
<glyph unicode="&#xeb;" d="M113 522q0 164 73.5 289t195.5 192.5t259 67.5q152 0 259.5 -64.5t162.5 -178t55 -259.5q0 -55 -12 -135h-684q14 -115 95 -172t200 -57q68 0 130 18.5t132 55.5l98 -183q-86 -55 -193.5 -88t-207.5 -33q-160 0 -288 65.5t-201.5 189.5t-73.5 292zM256 1331q0 68 46 114 t115 46q70 0 115 -46t45 -114q0 -70 -45 -116t-115 -46q-69 0 -115 46.5t-46 115.5zM418 635h428q0 96 -49 150.5t-150 54.5q-86 0 -148.5 -52.5t-80.5 -152.5zM704 1331q0 68 45 114t115 46t116 -46t46 -114q0 -70 -46.5 -116t-115.5 -46q-70 0 -115 46.5t-45 115.5z" />
<glyph unicode="&#xec;" d="M125 0v244h348v565h-348v235h649v-800h348v-244h-997zM364 1485h307l183 -342h-220z" />
<glyph unicode="&#xed;" d="M125 0v244h348v565h-348v235h649v-800h348v-244h-997zM365 1143l182 342h307l-270 -342h-219z" />
<glyph unicode="&#xee;" d="M125 0v244h348v565h-348v235h649v-800h348v-244h-997zM279 1143l205 342h254l204 -342h-219l-108 194h-8l-109 -194h-219z" />
<glyph unicode="&#xef;" d="M125 0v244h348v565h-348v235h649v-800h348v-244h-997zM226 1298q0 68 46 114t115 46q70 0 115 -46t45 -114q0 -70 -45 -116t-115 -46q-69 0 -115 46.5t-46 115.5zM674 1298q0 68 45 114t115 46t116 -46t46 -114q0 -70 -46.5 -116t-115.5 -46q-70 0 -115 46.5t-45 115.5z " />
<glyph unicode="&#xf0;" d="M96 479q0 145 62.5 254t166 167t224.5 58q78 0 144.5 -28.5t113.5 -89.5q-55 188 -201 323l-305 -157l-78 133l246 129q-92 63 -193 108l132 183q162 -74 297 -173l278 146l78 -135l-227 -119q293 -279 292 -719q0 -170 -62.5 -302t-181 -207t-278.5 -75 q-139 0 -255 62.5t-184.5 177.5t-68.5 264zM371 479q0 -121 69.5 -190.5t173.5 -69.5q109 0 170.5 83t61.5 241q0 51 -2 73q-51 63 -108.5 91t-125.5 28q-113 0 -176 -64.5t-63 -191.5z" />
<glyph unicode="&#xf1;" d="M147 0v1044h246l23 -141h8q76 78 161 123t189 45q168 0 250 -110.5t82 -315.5v-645h-301v606q0 111 -34 160t-116 49q-57 0 -102 -27.5t-104 -89.5v-698h-302zM284 1178q19 145 81.5 218.5t158.5 73.5q39 0 69.5 -16t69.5 -47q4 -4 22.5 -17.5t32 -19.5t25.5 -6 q33 0 53.5 23.5t34.5 82.5h154q-18 -145 -81 -218.5t-159 -73.5q-39 0 -69.5 16t-71.5 49q-29 23 -45.5 33t-32.5 10q-33 0 -53.5 -24.5t-34.5 -83.5h-154z" />
<glyph unicode="&#xf2;" d="M96 522q0 168 72 293t190.5 190.5t255.5 65.5t256 -65.5t191 -190.5t72 -293t-72 -292t-190.5 -189.5t-256.5 -65.5q-137 0 -255.5 65.5t-190.5 189.5t-72 292zM369 1518h307l183 -342h-220zM406 522q0 -141 53 -222t155 -81q103 0 156 81t53 222t-53 223t-156 82 q-102 0 -155 -81.5t-53 -223.5z" />
<glyph unicode="&#xf3;" d="M96 522q0 168 72 293t190.5 190.5t255.5 65.5t256 -65.5t191 -190.5t72 -293t-72 -292t-190.5 -189.5t-256.5 -65.5q-137 0 -255.5 65.5t-190.5 189.5t-72 292zM369 1176l182 342h307l-270 -342h-219zM406 522q0 -141 53 -222t155 -81q103 0 156 81t53 222t-53 223 t-156 82q-102 0 -155 -81.5t-53 -223.5z" />
<glyph unicode="&#xf4;" d="M96 522q0 168 72 293t190.5 190.5t255.5 65.5t256 -65.5t191 -190.5t72 -293t-72 -292t-190.5 -189.5t-256.5 -65.5q-137 0 -255.5 65.5t-190.5 189.5t-72 292zM283 1176l205 342h254l204 -342h-219l-108 194h-8l-109 -194h-219zM406 522q0 -141 53 -222t155 -81 q103 0 156 81t53 222t-53 223t-156 82q-102 0 -155 -81.5t-53 -223.5z" />
<glyph unicode="&#xf5;" d="M96 522q0 168 72 293t190.5 190.5t255.5 65.5t256 -65.5t191 -190.5t72 -293t-72 -292t-190.5 -189.5t-256.5 -65.5q-137 0 -255.5 65.5t-190.5 189.5t-72 292zM264 1178q19 145 81.5 218.5t158.5 73.5q39 0 69.5 -16t69.5 -47q4 -4 22.5 -17.5t32 -19.5t25.5 -6 q33 0 53.5 23.5t34.5 82.5h154q-18 -145 -81 -218.5t-159 -73.5q-39 0 -69.5 16t-71.5 49q-29 23 -45.5 33t-32.5 10q-33 0 -53.5 -24.5t-34.5 -83.5h-154zM406 522q0 -141 53 -222t155 -81q103 0 156 81t53 222t-53 223t-156 82q-102 0 -155 -81.5t-53 -223.5z" />
<glyph unicode="&#xf6;" d="M96 522q0 168 72 293t190.5 190.5t255.5 65.5t256 -65.5t191 -190.5t72 -293t-72 -292t-190.5 -189.5t-256.5 -65.5q-137 0 -255.5 65.5t-190.5 189.5t-72 292zM230 1331q0 68 46 114t115 46q70 0 115 -46t45 -114q0 -70 -45 -116t-115 -46q-69 0 -115 46.5t-46 115.5z M406 522q0 -141 53 -222t155 -81q103 0 156 81t53 222t-53 223t-156 82q-102 0 -155 -81.5t-53 -223.5zM678 1331q0 68 45 114t115 46t116 -46t46 -114q0 -70 -46.5 -116t-115.5 -46q-70 0 -115 46.5t-45 115.5z" />
<glyph unicode="&#xf7;" d="M143 569v213h942v-213h-942zM449 299q0 72 47 119t118 47q72 0 119 -47t47 -119t-47 -119t-119 -47q-71 0 -118 47t-47 119zM449 1053q0 72 47 119t118 47q72 0 119 -47.5t47 -118.5q0 -72 -47 -119t-119 -47q-71 0 -118 47t-47 119z" />
<glyph unicode="&#xf8;" d="M96 522q0 168 72 293t190.5 190.5t255.5 65.5q156 0 283 -84l92 115l113 -90l-96 -119q127 -150 127 -371q0 -168 -72 -292t-190.5 -189.5t-256.5 -65.5q-158 0 -284 84l-90 -112l-113 88l94 119q-125 150 -125 368zM406 522q0 -78 14 -133l315 404q-49 43 -121 43 q-102 0 -155 -85t-53 -229zM492 256q51 -47 122 -47q103 0 156 85t53 228q0 80 -14 137z" />
<glyph unicode="&#xf9;" d="M127 399v645h301v-606q0 -111 33 -159t114 -48q59 0 103.5 28t95.5 97v688h301v-1044h-246l-22 152h-8q-72 -86 -155 -131.5t-187 -45.5q-330 0 -330 424zM369 1518h307l183 -342h-220z" />
<glyph unicode="&#xfa;" d="M127 399v645h301v-606q0 -111 33 -159t114 -48q59 0 103.5 28t95.5 97v688h301v-1044h-246l-22 152h-8q-72 -86 -155 -131.5t-187 -45.5q-330 0 -330 424zM369 1176l182 342h307l-270 -342h-219z" />
<glyph unicode="&#xfb;" d="M127 399v645h301v-606q0 -111 33 -159t114 -48q59 0 103.5 28t95.5 97v688h301v-1044h-246l-22 152h-8q-72 -86 -155 -131.5t-187 -45.5q-330 0 -330 424zM283 1176l205 342h254l204 -342h-219l-108 194h-8l-109 -194h-219z" />
<glyph unicode="&#xfc;" d="M127 399v645h301v-606q0 -111 33 -159t114 -48q59 0 103.5 28t95.5 97v688h301v-1044h-246l-22 152h-8q-72 -86 -155 -131.5t-187 -45.5q-330 0 -330 424zM230 1331q0 68 46 114t115 46q70 0 115 -46t45 -114q0 -70 -45 -116t-115 -46q-69 0 -115 46.5t-46 115.5z M678 1331q0 68 45 114t115 46t116 -46t46 -114q0 -70 -46.5 -116t-115.5 -46q-70 0 -115 46.5t-45 115.5z" />
<glyph unicode="&#xfd;" d="M63 1044h299l170 -456q41 -106 103 -314h8q35 135 92 314l150 456h284l-403 -1093q-76 -205 -182.5 -300t-290.5 -95q-84 0 -156 20l53 229q39 -12 80 -12q78 0 129.5 47t71.5 101l33 84zM389 1176l182 342h307l-270 -342h-219z" />
<glyph unicode="&#xfe;" d="M147 -377v1729h302v-242l-9 -162q63 57 136 90t149 33q188 0 298 -144.5t110 -387.5q0 -172 -61.5 -300t-163 -196t-214.5 -68q-133 0 -252 115l7 -172v-295h-302zM449 293q39 -37 85 -54.5t89 -17.5q88 0 144 79t56 235q0 145 -46 217.5t-142 72.5q-92 0 -186 -102v-430 z" />
<glyph unicode="&#xff;" d="M63 1044h299l170 -456q41 -106 103 -314h8q35 135 92 314l150 456h284l-403 -1093q-76 -205 -182.5 -300t-290.5 -95q-84 0 -156 20l53 229q39 -12 80 -12q78 0 129.5 47t71.5 101l33 84zM250 1331q0 68 46 114t115 46q70 0 115 -46t45 -114q0 -70 -45 -116t-115 -46 q-69 0 -115 46.5t-46 115.5zM698 1331q0 68 45 114t115 46t116 -46t46 -114q0 -70 -46.5 -116t-115.5 -46q-70 0 -115 46.5t-45 115.5z" />
<glyph unicode="&#x152;" d="M39 682q0 334 154.5 502t410.5 168h594v-252h-328v-279h248v-252h-248v-315h349v-254h-631q-162 0 -286 76t-193.5 228.5t-69.5 377.5zM348 682q0 -236 57.5 -337t163.5 -101h33v864h-33q-109 0 -165 -96.5t-56 -329.5z" />
<glyph unicode="&#x153;" d="M25 522q0 168 51 293t137 190.5t193 65.5q84 0 146 -49t101 -137q41 90 104.5 138t139.5 48q98 0 170 -67.5t108.5 -181t36.5 -253.5q0 -63 -12 -135h-455q16 -111 63.5 -167t121.5 -56q76 0 151 55l103 -192q-57 -47 -129 -73t-137 -26q-80 0 -149 43t-114 123 q-45 -84 -106.5 -125t-149.5 -41q-106 0 -191 64.5t-134 188.5t-49 294zM295 522q0 -143 31.5 -224t95.5 -81q55 0 85 82t30 223t-30 224t-85 83q-63 0 -95 -81.5t-32 -225.5zM741 621h234q0 219 -101 219q-53 0 -88.5 -55.5t-44.5 -163.5z" />
<glyph unicode="&#x178;" d="M33 1350h323l136 -328l120 -307h9l30 78l94 229l136 328h315l-430 -893v-457h-303v457zM268 1593q0 61 40 102.5t104 41.5q63 0 103 -41t40 -103q0 -61 -40 -102t-103 -41q-64 0 -104 41t-40 102zM674 1593q0 61 40 102.5t103 41.5t103.5 -41t40.5 -103q0 -61 -40 -102 t-104 -41q-63 0 -103 41t-40 102z" />
<glyph unicode="&#x2c6;" d="M283 1176l204 342h254l205 -342h-219l-109 194h-8l-108 -194h-219z" />
<glyph unicode="&#x2dc;" d="M264 1178q19 145 81.5 218.5t158.5 73.5q39 0 69.5 -16t69.5 -47q4 -4 22.5 -17.5t32 -19.5t25.5 -6q33 0 53.5 23.5t34.5 82.5h154q-18 -145 -81 -218.5t-159 -73.5q-39 0 -69.5 16t-71.5 49q-29 23 -45.5 33t-32.5 10q-33 0 -53.5 -24.5t-34.5 -83.5h-154z" />
<glyph unicode="&#x2000;" horiz-adv-x="923" />
<glyph unicode="&#x2001;" horiz-adv-x="1847" />
<glyph unicode="&#x2002;" horiz-adv-x="923" />
<glyph unicode="&#x2003;" horiz-adv-x="1847" />
<glyph unicode="&#x2004;" horiz-adv-x="615" />
<glyph unicode="&#x2005;" horiz-adv-x="461" />
<glyph unicode="&#x2006;" horiz-adv-x="307" />
<glyph unicode="&#x2007;" horiz-adv-x="307" />
<glyph unicode="&#x2008;" horiz-adv-x="230" />
<glyph unicode="&#x2009;" horiz-adv-x="369" />
<glyph unicode="&#x200a;" horiz-adv-x="102" />
<glyph unicode="&#x2010;" d="M143 569v213h942v-213h-942z" />
<glyph unicode="&#x2011;" d="M143 569v213h942v-213h-942z" />
<glyph unicode="&#x2012;" d="M143 569v213h942v-213h-942z" />
<glyph unicode="&#x2013;" d="M164 408v227h901v-227h-901z" />
<glyph unicode="&#x2014;" d="M41 408v227h1147v-227h-1147z" />
<glyph unicode="&#x2018;" d="M377 922q0 168 90 297t268 208l78 -159q-109 -49 -165 -119t-64 -168q23 6 43 6q82 0 134 -51t52 -135q0 -92 -55.5 -149.5t-141.5 -57.5q-112 0 -175.5 86t-63.5 242z" />
<glyph unicode="&#x2019;" d="M414 754q215 96 229 284q-20 -6 -41 -6q-84 0 -136 52.5t-52 136.5q0 92 55 149t141 57q115 0 177.5 -87t62.5 -240q0 -168 -90 -296t-266 -210z" />
<glyph unicode="&#x201a;" d="M414 154q0 92 55 149t141 57q115 0 177.5 -87t62.5 -240q0 -168 -90 -296t-266 -210l-80 158q215 100 229 284q-29 -4 -41 -4q-84 0 -136 52.5t-52 136.5z" />
<glyph unicode="&#x201c;" d="M104 922q0 168 90.5 297t268.5 208l78 -159q-109 -49 -165.5 -119t-64.5 -168q23 6 43 6q82 0 134.5 -51t52.5 -135q0 -92 -55.5 -149.5t-141.5 -57.5q-113 0 -176.5 86t-63.5 242zM649 922q0 168 90 297t269 208l77 -159q-109 -49 -165 -119t-64 -168q23 6 43 6 q82 0 134 -51t52 -135q0 -92 -55 -149.5t-141 -57.5q-113 0 -176.5 86t-63.5 242z" />
<glyph unicode="&#x201d;" d="M141 754q215 96 230 282q-29 -4 -41 -4q-84 0 -136.5 52.5t-52.5 136.5q0 92 55.5 149t141.5 57q115 0 177.5 -87t62.5 -240q0 -168 -90.5 -296t-266.5 -210zM686 754q215 96 229 284q-25 -6 -43 -6q-82 0 -134 52.5t-52 136.5q0 92 55.5 149t141.5 57q115 0 177 -87 t62 -240q0 -168 -90 -296t-266 -210z" />
<glyph unicode="&#x201e;" d="M141 154q0 92 55.5 149t141.5 57q115 0 177.5 -87t62.5 -240q0 -168 -90.5 -296t-266.5 -210l-80 158q215 100 228 284q-25 -4 -39 -4q-84 0 -136.5 52.5t-52.5 136.5zM686 154q0 92 55.5 149t141.5 57q115 0 177 -87t62 -240q0 -168 -90 -296t-266 -210l-80 158 q215 100 229 286q-25 -6 -43 -6q-82 0 -134 52.5t-52 136.5z" />
<glyph unicode="&#x2022;" d="M279 537q0 92 44 167.5t120.5 118.5t170.5 43t171 -43t121 -118.5t44 -167.5t-44 -168t-120.5 -119t-171.5 -43q-94 0 -170.5 43t-120.5 118.5t-44 168.5z" />
<glyph unicode="&#x2026;" d="M-2 172q0 84 52 140.5t136 56.5t136.5 -56.5t52.5 -140.5t-52.5 -140.5t-136.5 -56.5t-136 56.5t-52 140.5zM426 172q0 84 52 140.5t136 56.5t136.5 -56.5t52.5 -140.5t-52.5 -140.5t-136.5 -56.5t-136 56.5t-52 140.5zM854 172q0 84 52 140.5t136 56.5t136.5 -56.5 t52.5 -140.5t-52.5 -140.5t-136.5 -56.5t-136 56.5t-52 140.5z" />
<glyph unicode="&#x202f;" horiz-adv-x="369" />
<glyph unicode="&#x2039;" d="M358 367v299l351 315l127 -113l-261 -352l261 -352l-127 -113z" />
<glyph unicode="&#x203a;" d="M393 164l260 352l-260 352l127 113l350 -315v-299l-350 -316z" />
<glyph unicode="&#x205f;" horiz-adv-x="461" />
<glyph unicode="&#x20ac;" d="M92 440v142l113 8q-2 18 -2 53t2 53h-113v140l131 10q51 227 205 353t375 126q104 0 201.5 -42t173.5 -118l-166 -161q-53 43 -105.5 65.5t-113.5 22.5q-102 0 -171 -62.5t-98 -181.5h518v-152h-538v-43q0 -41 2 -59h455v-154h-431q33 -113 101.5 -172t167.5 -59 q131 0 229 110l166 -155q-172 -188 -414 -189q-211 0 -359.5 120t-197.5 345h-131z" />
<glyph unicode="&#x2122;" d="M-27 1206v178h519v-178h-160v-465h-197v465h-162zM563 741v643h211l70 -192l43 -145h8l41 145l70 192h211v-643h-173v197l23 236h-8l-109 -304h-119l-110 304h-8l22 -236v-197h-172z" />
<glyph unicode="&#x25fc;" horiz-adv-x="1044" d="M0 0v1044h1044v-1044h-1044z" />
</font>
</defs>
</svg>
