<?xml version="1.0" standalone="no"?>
<!DOCTYPE svg PUBLIC "-//W3C//DTD SVG 1.1//EN" "http://www.w3.org/Graphics/SVG/1.1/DTD/svg11.dtd" >
<svg xmlns="http://www.w3.org/2000/svg" xmlns:xlink="http://www.w3.org/1999/xlink" version="1.1">
<metadata></metadata>
<defs>
<font id="office_code_proregular" horiz-adv-x="1228" >
<font-face units-per-em="2048" ascent="1536" descent="-512" />
<missing-glyph horiz-adv-x="500" />
<glyph horiz-adv-x="0" />
<glyph horiz-adv-x="682" />
<glyph unicode=" " />
<glyph unicode="!" d="M465 135q0 70 43 113t106 43t106.5 -43t43.5 -113q0 -72 -43 -116t-107 -44q-63 0 -106 44t-43 116zM512 1372h209l-21 -856h-168z" />
<glyph unicode="&#x22;" d="M266 1407h226l-3 -203l-53 -411h-114l-52 411zM737 1407h226l-5 -203l-51 -411h-114l-54 411z" />
<glyph unicode="#" d="M178 418v117h176l39 303h-174v118h187l49 375h108l-47 -375h270l50 375h108l-47 -375h166v-118h-178l-39 -303h176v-117h-191l-49 -418h-110l51 418h-272l-50 -418h-110l49 418h-162zM465 535h270l39 303h-272z" />
<glyph unicode="$" d="M174 231l80 117q123 -86 233 -117l74 400q-160 63 -248 133t-88 188q0 98 54.5 169t143.5 109t191 38q23 0 64 -4l51 274l115 -14l-51 -281q117 -35 221 -135l-90 -98q-49 37 -85 58.5t-73 33.5l-68 -359q168 -63 262.5 -138t94.5 -206q0 -100 -59.5 -176t-155 -115.5 t-201.5 -39.5q-20 0 -66 4l-55 -303l-115 12l58 309q-82 20 -157 58t-130 83zM389 956q0 -57 51.5 -96t149.5 -76l63 340q-33 4 -47 4q-88 0 -152.5 -46t-64.5 -126zM600 211q37 -4 53 -4q98 0 168 48t70 132q0 68 -56.5 113t-164.5 88z" />
<glyph unicode="%" d="M53 997q0 156 80 245t207 89t206 -89t79 -245q0 -158 -80 -249t-205 -91q-127 0 -207 91.5t-80 248.5zM59 158l375 385l66 -62l-342 -415zM180 997q0 -115 44 -177t116 -62q70 0 114 62.5t44 176.5q0 117 -44 174.5t-114 57.5q-72 0 -116 -57.5t-44 -174.5zM604 317 q0 156 79 244t206 88t207 -88t80 -244q0 -158 -80 -250t-207 -92q-125 0 -205 92.5t-80 249.5zM729 862l344 416l98 -92l-374 -385zM731 317q0 -117 44 -178t114 -61q72 0 116 61.5t44 177.5q0 117 -44 174.5t-116 57.5q-70 0 -114 -58.5t-44 -173.5z" />
<glyph unicode="&#x26;" d="M86 350q0 121 66.5 210t185.5 177q-90 176 -90 320q0 137 82 228t213 91q123 0 191.5 -72.5t68.5 -195.5q0 -80 -40 -147.5t-96.5 -120t-152.5 -127.5q131 -207 328 -379q111 160 170 395h155q-78 -283 -217 -485q123 -94 232 -129l-47 -140q-133 41 -281 154 q-160 -154 -367 -154q-116 0 -207.5 48.5t-142.5 133.5t-51 193zM250 360q0 -111 73.5 -180t184.5 -69q122 0 235 106q-199 180 -342 406q-72 -63 -111.5 -126t-39.5 -137zM393 1059q0 -104 62 -238q104 76 157.5 140.5t53.5 144.5q0 66 -30 107.5t-93 41.5q-70 0 -110 -55 t-40 -141z" />
<glyph unicode="'" d="M502 1407h225l-4 -203l-51 -411h-115l-51 411z" />
<glyph unicode="(" d="M426 569q0 289 121 524.5t340 405.5l92 -86q-205 -174 -303 -380t-98 -464t98 -463.5t303 -379.5l-92 -86q-219 170 -340 405.5t-121 523.5z" />
<glyph unicode=")" d="M250 -274q205 174 303 379.5t98 463.5t-98 464t-303 380l92 86q219 -170 340 -405.5t121 -524.5t-121 -524t-340 -405z" />
<glyph unicode="*" d="M172 770l33 94l342 -112l18 387h99l18 -387l342 112l33 -94l-332 -143l221 -338l-86 -62l-246 326l-245 -326l-86 62l221 338z" />
<glyph unicode="+" d="M174 612v127h373v400h135v-400h373v-127h-373v-399h-135v399h-373z" />
<glyph unicode="," d="M403 -330q127 57 190.5 139t68.5 203q-25 -4 -39 -4q-70 0 -115 40t-45 114q0 72 47 113.5t117 41.5q90 0 137 -69.5t47 -192.5q0 -176 -94 -302t-266 -189z" />
<glyph unicode="-" d="M174 612v127h881v-127h-881z" />
<glyph unicode="." d="M449 147q0 78 48 126.5t117 48.5q70 0 118 -48.5t48 -126.5q0 -76 -48 -124t-118 -48q-69 0 -117 48.5t-48 123.5z" />
<glyph unicode="/" d="M100 -86l877 1540h151l-876 -1540h-152z" />
<glyph unicode="0" d="M145 680q0 336 124 516t345 180t345 -180t124 -516q0 -334 -124.5 -519.5t-344.5 -185.5q-219 0 -344 185.5t-125 519.5zM303 680q0 -182 35 -309l487 753q-78 117 -211 117q-143 0 -227 -139t-84 -422zM393 244q82 -133 221 -133q144 0 228 143t84 426q0 195 -41 324z " />
<glyph unicode="1" d="M201 0v139h370v1006h-278v108q186 27 321 99h125v-1213h342v-139h-880z" />
<glyph unicode="2" d="M141 1171q94 100 196.5 152.5t233.5 52.5q197 0 311.5 -108.5t114.5 -288.5q0 -121 -72.5 -249t-195.5 -262t-334 -335q160 12 244 12h430v-145h-919v100q258 238 396 379.5t214 263t76 230.5q0 121 -73 193.5t-212 72.5q-164 0 -313 -164z" />
<glyph unicode="3" d="M117 166l86 110q162 -162 375 -161q135 0 224 68.5t89 181.5q0 272 -475 272v131q221 0 324.5 69.5t103.5 184.5q0 100 -73 158.5t-193 58.5q-88 0 -171 -38t-151 -101l-90 106q188 170 418 170q190 0 311 -91t121 -251q0 -117 -75 -197.5t-204 -123.5v-11 q139 -29 231.5 -118.5t92.5 -223.5q0 -117 -63.5 -203.5t-171 -134t-238.5 -47.5q-289 1 -471 191z" />
<glyph unicode="4" d="M80 375v112l498 865h176l-488 -842h488v377h159v-377h203v-135h-203v-375h-159v375h-674z" />
<glyph unicode="5" d="M115 158l84 112q76 -74 161.5 -114.5t206.5 -40.5q92 0 168 39t120 110.5t44 163.5q0 139 -87 220t-234 81q-76 0 -132.5 -19.5t-134.5 -64.5l-90 57l43 650h740v-146h-590l-35 -407q63 29 117.5 43t124.5 14q199 0 323.5 -107.5t124.5 -316.5q0 -141 -67.5 -244.5 t-178 -158t-237.5 -54.5q-160 0 -270.5 49.5t-200.5 133.5z" />
<glyph unicode="6" d="M158 625q0 258 74.5 427t198.5 246.5t274 77.5q215 0 364 -143l-94 -105q-51 51 -119 79t-141 28q-174 0 -285 -139.5t-115 -448.5q80 84 177.5 131t193.5 47q186 0 297 -107.5t111 -309.5q0 -125 -59.5 -224.5t-160 -154t-217.5 -54.5q-145 0 -257.5 74t-177 219.5 t-64.5 356.5zM322 514q18 -197 105 -301t230 -104q119 0 198 83.5t79 215.5q0 139 -71.5 214.5t-207.5 75.5q-82 0 -169 -45t-164 -139z" />
<glyph unicode="7" d="M143 1206v146h947v-105q-172 -203 -266.5 -386t-134.5 -382.5t-50 -478.5h-176q12 262 57 460.5t135 376t242 369.5h-754z" />
<glyph unicode="8" d="M139 346q0 127 78 213t203 148v8q-90 57 -144.5 136t-54.5 179q0 102 52.5 181t143.5 122t208 43q188 0 296.5 -99t108.5 -259q0 -92 -55 -176t-144 -148v-8q127 -68 191.5 -144.5t64.5 -207.5q0 -100 -55 -182t-161.5 -129.5t-252.5 -47.5q-145 0 -253.5 47.5 t-167 132.5t-58.5 191zM293 360q0 -115 90 -187.5t240 -72.5q143 0 223 65.5t80 174.5q0 84 -43 137t-113 85t-197 77q-12 4 -25 9t-32 11q-106 -61 -164.5 -131.5t-58.5 -167.5zM375 1030q0 -113 87 -176t259 -119q164 123 164 275q0 104 -70 172.5t-194 68.5 q-109 0 -177.5 -60.5t-68.5 -160.5z" />
<glyph unicode="9" d="M137 944q0 125 59.5 223.5t159 153.5t215.5 55q145 0 259 -73.5t178.5 -220t64.5 -355.5q0 -258 -74.5 -427t-198.5 -247t-274 -78q-214 1 -364 140l94 108q49 -51 117.5 -79.5t142.5 -28.5q172 0 281.5 139t115.5 446q-82 -82 -177 -128t-193 -46q-186 0 -296 107.5 t-110 310.5zM297 944q0 -141 71.5 -216t206.5 -75q80 0 167 44t167 139q-20 199 -106 303t-230 104q-119 0 -197.5 -84t-78.5 -215z" />
<glyph unicode=":" d="M449 147q0 78 48 126.5t117 48.5q70 0 118 -48.5t48 -126.5q0 -76 -48 -124t-118 -48q-69 0 -117 48.5t-48 123.5zM449 883q0 76 48 124t117 48q70 0 118 -48.5t48 -123.5q0 -78 -48 -126t-118 -48q-69 0 -117 48t-48 126z" />
<glyph unicode=";" d="M403 -330q127 57 190.5 139t68.5 203q-25 -4 -39 -4q-70 0 -115 40t-45 114q0 72 47 113.5t117 41.5q90 0 137 -69.5t47 -192.5q0 -176 -94 -302t-266 -189zM449 883q0 76 48 124t117 48q70 0 118 -48.5t48 -123.5q0 -78 -48 -126t-118 -48q-69 0 -117 48t-48 126z" />
<glyph unicode="&#x3c;" d="M246 555v127l764 580v-183l-617 -456v-9l617 -456v-183z" />
<glyph unicode="=" d="M174 393v127h881v-127h-881zM174 831v127h881v-127h-881z" />
<glyph unicode="&#x3e;" d="M219 -25v183l617 456v9l-617 456v183l764 -580v-127z" />
<glyph unicode="?" d="M223 1231q74 78 169 122t208 44q172 0 276.5 -87t104.5 -233q0 -78 -42 -136t-126 -136q-86 -78 -128 -135.5t-42 -137.5q0 -25 2 -36h-149q-4 37 -4 53q0 90 47 155.5t135 145.5q72 66 106.5 111t34.5 98q0 88 -58.5 143t-166.5 55q-147 0 -266 -118zM436 135 q0 70 43 113t107 43q63 0 106 -43t43 -113q0 -72 -43 -116t-106 -44q-64 0 -107 44t-43 116z" />
<glyph unicode="@" d="M100 662q0 227 80 386.5t217.5 239.5t311.5 80q201 0 305 -117.5t104 -302.5v-594h-102l-15 119h-8q-47 -61 -120.5 -102t-149.5 -41q-113 0 -188.5 73.5t-75.5 194.5q0 152 135 234.5t405 115.5v21q0 125 -75.5 205.5t-223.5 80.5q-127 0 -234.5 -68.5t-172 -203.5 t-64.5 -328q0 -180 61.5 -311t169 -199.5t242.5 -68.5q88 0 158 22.5t131 69.5l58 -92q-84 -55 -168 -84t-183 -29q-166 0 -302 81t-216 238.5t-80 379.5zM594 600q0 -72 44 -111.5t120 -39.5q114 0 229 131v258q-211 -31 -302 -86.5t-91 -151.5z" />
<glyph unicode="A" d="M66 0l452 1352h193l452 -1352h-180l-127 414h-487l-129 -414h-174zM412 551h401l-63 207q-74 240 -134 454h-8q-59 -215 -133 -454z" />
<glyph unicode="B" d="M211 0v1352h369q217 0 338.5 -80t121.5 -250q0 -104 -60 -185t-175 -110v-8q150 -23 230.5 -105t80.5 -219q0 -195 -137 -295t-369 -100h-399zM383 135h203q176 0 269 66.5t93 201.5q0 244 -362 244h-203v-512zM383 774h168q168 0 244.5 59.5t76.5 174.5q0 109 -77.5 159 t-235.5 50h-176v-443z" />
<glyph unicode="C" d="M135 676q0 213 77 371.5t213 243.5t310 85q113 0 207 -46t160 -118l-96 -108q-117 123 -271 123q-129 0 -224 -66.5t-147.5 -190.5t-52.5 -290q0 -168 52.5 -294t147.5 -193.5t224 -67.5q90 0 162 37t139 112l99 -104q-168 -195 -410 -195q-170 0 -304 84t-210 243 t-76 374z" />
<glyph unicode="D" d="M174 0v1352h328q303 0 462.5 -174t159.5 -496q0 -324 -158.5 -503t-455.5 -179h-336zM344 139h148q225 0 340.5 141.5t115.5 401.5q0 258 -114.5 394t-341.5 136h-148v-1073z" />
<glyph unicode="E" d="M236 0v1352h829v-144h-657v-426h555v-145h-555v-492h677v-145h-849z" />
<glyph unicode="F" d="M276 0v1352h822v-144h-652v-458h551v-144h-551v-606h-170z" />
<glyph unicode="G" d="M109 676q0 215 75.5 372.5t210.5 242.5t310 85q215 0 370 -164l-96 -108q-55 59 -119.5 91t-154.5 32q-125 0 -219.5 -66.5t-146.5 -190.5t-52 -290q0 -258 108.5 -406.5t304.5 -148.5q70 0 132.5 21.5t101.5 58.5v354h-268v141h426v-569q-70 -70 -173.5 -113t-228.5 -43 q-170 0 -302 84t-205.5 243t-73.5 374z" />
<glyph unicode="H" d="M162 0v1352h172v-568h561v568h172v-1352h-172v637h-561v-637h-172z" />
<glyph unicode="I" d="M195 0v145h333v1063h-333v144h839v-144h-334v-1063h334v-145h-839z" />
<glyph unicode="J" d="M166 201l110 102q57 -88 131 -133t154 -45q145 0 212 77t67 244v764h-564v144h734v-922q0 -207 -104.5 -332t-340.5 -125q-121 0 -227.5 56.5t-171.5 169.5z" />
<glyph unicode="K" d="M201 0v1352h172v-678h6l565 678h193l-424 -514l473 -838h-191l-389 705l-233 -275v-430h-172z" />
<glyph unicode="L" d="M274 0v1352h168v-1207h666v-145h-834z" />
<glyph unicode="M" horiz-adv-x="1310" d="M156 0v1352h200l219 -576l78 -219h9l73 219l219 576h201v-1352h-156v764q0 143 21 414h-8l-94 -289l-216 -522h-94l-217 522l-98 289h-6q22 -287 22 -404v-10v-764h-153z" />
<glyph unicode="N" d="M170 0v1352h174l436 -854l135 -277h5q-2 41 -11 152q-12 184 -12 276v703h162v-1352h-174l-436 854l-136 276h-4q2 -51 10 -157q12 -176 13 -264v-709h-162z" />
<glyph unicode="O" d="M98 682q0 213 65.5 369.5t182.5 240.5t268 84q152 0 268.5 -84t182 -241.5t65.5 -368.5q0 -213 -65.5 -374t-182 -247t-268.5 -86q-151 0 -268 86t-182.5 247t-65.5 374zM274 682q0 -168 42 -294t119 -194.5t179 -68.5q103 0 179.5 68.5t118.5 194.5t42 294 q0 166 -42 289t-118.5 189.5t-179.5 66.5q-102 0 -179 -66.5t-119 -189.5t-42 -289z" />
<glyph unicode="P" d="M209 0v1352h412q238 0 366.5 -92.5t128.5 -305.5q0 -207 -133 -312t-362 -105h-242v-537h-170zM379 676h219q178 0 263 67.5t85 210.5t-84 201.5t-264 58.5h-219v-538z" />
<glyph unicode="Q" d="M100 682q0 213 64.5 370.5t180.5 241.5t267 84q152 0 267.5 -85t179 -242.5t63.5 -368.5q0 -190 -51 -338.5t-144 -241t-216 -116.5q33 -86 108.5 -131t181.5 -45q51 0 101 20l31 -137q-76 -29 -152 -29q-170 0 -284.5 87t-168.5 233q-129 23 -225 113.5t-149.5 241 t-53.5 343.5zM274 682q0 -166 41 -293t118 -196.5t179 -69.5q101 0 177.5 69.5t117.5 196.5t41 293t-41 290t-116.5 191.5t-178.5 67.5q-102 0 -179 -67.5t-118 -191.5t-41 -290z" />
<glyph unicode="R" d="M205 0v1352h418q219 0 344 -89t125 -290q0 -154 -80 -250t-221 -133l342 -590h-195l-324 571h-239v-571h-170zM375 711h223q158 0 241 65.5t83 196.5q0 129 -81 185t-243 56h-223v-503z" />
<glyph unicode="S" d="M137 176l103 119q78 -80 178 -125t209 -45q141 0 220 60.5t79 160.5q0 66 -30 108t-75 67.5t-137 64.5l-192 84q-291 115 -291 348q0 102 56 184t156.5 128t227.5 46q123 0 230.5 -45t183.5 -121l-90 -110q-143 127 -324 127q-123 0 -194.5 -53.5t-71.5 -145.5 q0 -59 33.5 -100t77.5 -64.5t128 -60.5l189 -82q143 -63 220 -143t77 -218q0 -109 -58.5 -195.5t-166 -138t-250.5 -51.5q-144 0 -270 53.5t-218 147.5z" />
<glyph unicode="T" d="M86 1208v144h1057v-144h-443v-1208h-172v1208h-442z" />
<glyph unicode="U" d="M162 510v842h172v-844q0 -201 75.5 -292t206.5 -91t208 91t77 292v844h166v-842q0 -276 -121 -405.5t-330 -129.5q-210 0 -332 129t-122 406z" />
<glyph unicode="V" d="M88 1352h180l217 -731q16 -49 54 -187l76 -263l-1 3h9l-1 -3q0 -2 76 263q37 137 54 187l215 731h174l-426 -1352h-199z" />
<glyph unicode="W" d="M20 1354h170l109 -850q4 -66 16 -193l13 -141h6q16 66 26 98q47 184 60 236l141 500h121l141 -500q20 -86 38 -154.5t30 -120.5q14 -45 16 -59h8l15 168q6 55 14 166l103 850h161l-198 -1354h-189l-153 567q-25 106 -50 244h-6q-37 -180 -53 -244l-147 -567h-185z" />
<glyph unicode="X" d="M111 0l401 698l-375 654h189l188 -346l109 -197h8q68 143 96 197l184 346h181l-375 -662l401 -690h-188l-203 365l-119 217h-8q-47 -100 -108 -215l-201 -367h-180z" />
<glyph unicode="Y" d="M78 1352h180l203 -404q45 -90 65 -135l88 -178h9l157 317l195 400h176l-451 -869v-483h-172v483z" />
<glyph unicode="Z" d="M133 0v102l752 1108h-686v144h895v-103l-754 -1106h764v-145h-971z" />
<glyph unicode="[" d="M463 -311v1761h565v-98h-432v-1565h432v-98h-565z" />
<glyph unicode="\" d="M100 1454h152l876 -1540h-151z" />
<glyph unicode="]" d="M203 -213h430v1565h-430v98h565v-1761h-565v98z" />
<glyph unicode="^" d="M227 582l314 790h147l313 -790h-147l-135 360l-101 272h-8l-100 -272l-135 -360h-148z" />
<glyph unicode="_" d="M123 -141h983v-146h-983v146z" />
<glyph unicode="`" d="M379 1477h184l185 -303h-130z" />
<glyph unicode="a" d="M166 268q0 119 73.5 198t230.5 126t417 70q-4 119 -66.5 193.5t-197.5 74.5q-160 0 -308 -127l-65 117q72 61 177 105t224 44q199 0 301.5 -113.5t102.5 -312.5v-643h-137l-15 143h-6q-92 -76 -193.5 -123t-199.5 -47q-146 0 -242 80t-96 215zM330 281q0 -86 62.5 -129 t156.5 -43h2q161 0 336 159v281q-307 -27 -432 -92.5t-125 -175.5z" />
<glyph unicode="b" d="M190 0v1489h168v-377l-4 -205q72 74 162 118t176 44q199 0 306.5 -142.5t107.5 -387.5q0 -172 -61.5 -300t-165 -197t-224.5 -69q-71 0 -154 39t-155 105h-6l-14 -117h-136zM358 242q66 -63 138.5 -95t132.5 -32q86 0 155.5 51t108.5 147.5t39 223.5q0 184 -68.5 287.5 t-212.5 103.5q-68 0 -142.5 -40t-150.5 -120v-526z" />
<glyph unicode="c" d="M164 520q0 170 74.5 294t200.5 189.5t280 65.5q213 0 362 -154l-84 -108q-129 123 -272 123q-113 0 -201 -51.5t-137 -144.5t-49 -214q0 -182 105.5 -294.5t277.5 -112.5q158 0 309 133l74 -109q-82 -78 -184.5 -121t-210.5 -43q-156 0 -280 65.5t-194.5 188.5t-70.5 293 z" />
<glyph unicode="d" d="M123 520q0 164 62.5 289t167 192.5t222.5 67.5q86 0 157 -34t145 -103l-7 196v361h168v-1489h-139l-14 139h-6q-68 -72 -153 -119t-171 -47q-199 0 -315.5 144.5t-116.5 402.5zM297 522q0 -190 78 -298.5t215 -108.5h2q146 0 278 161v527q-125 125 -262 125 q-86 0 -156.5 -51.5t-112.5 -144.5t-42 -210z" />
<glyph unicode="e" d="M141 520q0 164 71 289t187.5 192.5t247.5 67.5q211 0 332 -133t121 -356q0 -57 -6 -99h-779q6 -168 111.5 -269t269.5 -101q84 0 157 24.5t146 73.5l60 -113q-184 -123 -383 -123q-150 0 -271.5 66.5t-192.5 190.5t-71 290zM313 604h631q0 158 -78 245t-217 87 q-125 0 -221 -90t-115 -242z" />
<glyph unicode="f" d="M211 907v125l285 12v48q0 199 100 310t301 111q152 0 287 -61l-39 -127q-59 29 -111.5 40t-120.5 11q-252 0 -251 -278v-54h417v-137h-417v-907h-166v907h-285z" />
<glyph unicode="g" d="M123 537q0 158 62.5 279.5t167 187t225.5 65.5q164 0 305 -141h6l14 116h135v-1044q0 -225 -120.5 -345t-344.5 -120q-108 0 -208.5 43t-190.5 150l82 102q70 -90 149.5 -125t167.5 -35q150 0 224.5 77t76.5 253l3 166q-61 -68 -148.5 -112t-175.5 -44 q-127 0 -224.5 63.5t-151.5 182.5t-54 281zM295 539q0 -178 79 -283.5t216 -105.5h2q142 0 278 159v494q-125 125 -264 125q-84 0 -155.5 -50.5t-113.5 -139.5t-42 -199z" />
<glyph unicode="h" d="M190 0v1489h168v-377l-8 -250q90 100 179 153.5t198 53.5q344 0 344 -420v-649h-168v627q0 154 -54 225.5t-175 71.5q-84 0 -152.5 -45t-163.5 -150v-729h-168z" />
<glyph unicode="i" d="M205 0v139h387v768h-387v137h555v-905h387v-139h-942zM512 1419q0 63 41 104.5t103 41.5q61 0 102 -41t41 -105q0 -61 -41 -101t-102 -40q-62 0 -103 40t-41 101z" />
<glyph unicode="j" d="M113 -375l55 125q119 -57 227 -57q145 0 198.5 65.5t53.5 221.5v927h-463v137h631v-1050q0 -209 -95 -323.5t-323 -114.5h-4q-147 0 -280 69zM569 1419q0 63 41 104.5t103 41.5q61 0 102 -41t41 -105q0 -61 -41 -101t-102 -40q-62 0 -103 40t-41 101z" />
<glyph unicode="k" d="M217 0v1489h168v-1004h8l537 559h192l-397 -413l451 -631h-189l-366 528l-236 -243v-285h-168z" />
<glyph unicode="l" d="M166 1352v137h508v-1155q0 -113 51 -167t143 -54q80 0 189 51l43 -127q-88 -35 -142.5 -49.5t-126.5 -14.5q-159 0 -242 94.5t-83 278.5v1006h-340z" />
<glyph unicode="m" d="M123 0v1044h131l14 -139h6q41 80 92.5 122t131.5 42q152 0 188 -180q49 90 103.5 135t132.5 45q104 0 160.5 -83t56.5 -238v-748h-162v733q0 190 -109 191q-51 0 -90 -39t-80 -125v-760h-135v733q0 190 -112 191q-51 0 -88 -39t-78 -125v-760h-162z" />
<glyph unicode="n" d="M190 0v1044h140l14 -182h8q88 98 177 152.5t198 54.5q344 0 344 -420v-649h-168v627q0 154 -54 225.5t-175 71.5q-84 0 -152.5 -45t-163.5 -150v-729h-168z" />
<glyph unicode="o" d="M123 520q0 170 66.5 294t179 189.5t245.5 65.5t246 -65.5t179.5 -189.5t66.5 -294q0 -168 -66.5 -292t-179 -189.5t-246.5 -65.5q-133 0 -245.5 65.5t-179 189.5t-66.5 292zM297 520q0 -182 87 -294.5t230 -112.5q144 0 231 112.5t87 294.5t-87 296t-231 114 q-143 0 -230 -114t-87 -296z" />
<glyph unicode="p" d="M190 -420v1464h140l14 -135h6q72 72 163 116t181 44q199 0 305.5 -142.5t106.5 -389.5q0 -172 -62.5 -300t-166 -196t-224.5 -68q-70 0 -150.5 37t-148.5 101l4 -199v-332h-168zM358 242q66 -63 138.5 -95t128.5 -32q88 0 158.5 51t109.5 147.5t39 223.5 q0 184 -68.5 287.5t-212.5 103.5q-68 0 -142.5 -40t-150.5 -120v-526z" />
<glyph unicode="q" d="M123 520q0 164 62.5 289t167 192.5t222.5 67.5q88 0 161 -35t147 -106h6l14 116h135v-1464h-168v365l9 190q-72 -72 -155 -117t-169 -45q-199 0 -315.5 144.5t-116.5 402.5zM297 522q0 -190 78 -298.5t215 -108.5h2q146 0 278 161v527q-125 125 -262 125 q-86 0 -156.5 -51.5t-112.5 -144.5t-42 -210z" />
<glyph unicode="r" d="M299 0v1044h139l15 -249h6q80 129 194.5 201.5t249.5 72.5q117 0 197 -43l-39 -145q-55 20 -92 28.5t-92 8.5q-246 0 -410 -302v-616h-168z" />
<glyph unicode="s" d="M147 137l82 111q90 -70 187.5 -106t224.5 -36q129 0 197.5 47.5t68.5 120.5q0 63 -72.5 110.5t-250.5 94.5q-168 43 -273.5 118t-105.5 177q0 129 109.5 212t308.5 83q106 0 212.5 -37t186.5 -94l-82 -111q-150 111 -317 111q-131 0 -188.5 -43t-57.5 -113 q0 -61 77.5 -104t225.5 -82q209 -55 303 -126t94 -185q0 -86 -52 -157t-152.5 -113t-237.5 -42t-262 46.5t-226 117.5z" />
<glyph unicode="t" d="M141 907v137h287v308l162 102v-410h489v-137h-489v-506q0 -147 56 -217.5t196 -70.5q125 0 239 47l37 -123q-164 -63 -313 -64q-205 0 -294 113t-89 317v504h-281z" />
<glyph unicode="u" d="M158 395v649h170v-626q0 -156 53 -227.5t176 -71.5q84 0 153.5 46t155.5 152v727h168v-1044h-137l-14 184h-9q-82 -100 -172 -155.5t-198 -55.5q-176 0 -261 106.5t-85 315.5z" />
<glyph unicode="v" d="M104 1044h170l230 -600l94 -251l18 -54h9l39 111q37 113 69 194l230 600h161l-411 -1044h-189z" />
<glyph unicode="w" d="M16 1044h172l121 -612q31 -160 49 -289h9q37 193 59 289l121 555h143l123 -555q33 -147 41 -192l20 -97h9q12 59 26 152l25 137l119 612h159l-217 -1044h-202l-119 541l-23 121q-27 154 -33 180h-8q-6 -29 -14 -86l-41 -217l-115 -539h-200z" />
<glyph unicode="x" d="M131 0l379 541l-350 503h186l158 -235q57 -90 117 -174h8q80 123 112 180l150 229h178l-354 -516l381 -528h-185l-174 246l-28 43q-29 39 -54.5 75.5t-48.5 69.5h-8q-82 -123 -123 -188l-164 -246h-180z" />
<glyph unicode="y" d="M100 1044h170l244 -587q23 -51 42 -101.5t40 -97.5q8 -23 18.5 -48.5t22.5 -53.5h8l37 102q33 96 70 199l217 587h159l-436 -1130q-66 -168 -166 -263t-258 -95q-74 0 -131 20l35 133q47 -14 90 -14q100 0 166 59.5t109 167.5l28 74z" />
<glyph unicode="z" d="M145 0v90l682 817h-606v137h848v-90l-684 -817h705v-137h-945z" />
<glyph unicode="{" d="M246 516v107q115 0 200.5 27.5t132 69.5t46.5 83q0 43 -12.5 82t-37.5 96q-27 66 -39 107.5t-12 89.5q0 137 70 208.5t207 71.5q53 0 102 -8l125 -20v-99l-106 21q-43 8 -86 8q-94 0 -131 -50t-37 -143q0 -39 11 -75.5t34 -92.5q25 -55 37 -97t12 -85q0 -94 -78 -158.5 t-190 -85.5v-8q113 -20 190.5 -84.5t77.5 -158.5q0 -47 -12.5 -89.5t-36.5 -95.5q-23 -55 -34 -90t-11 -76q0 -92 36.5 -142t131.5 -50q43 0 86 8l106 20v-98l-125 -20q-49 -8 -102 -8q-137 0 -207 71.5t-70 208.5q0 49 12.5 91t38.5 106q25 55 37.5 94t12.5 84 q0 41 -46.5 83t-132.5 69.5t-200 27.5z" />
<glyph unicode="|" d="M539 -512v2048h151v-2048h-151z" />
<glyph unicode="}" d="M203 -193l104 -20q55 -10 88 -10q92 0 130 51t38 143q0 41 -11 76t-34 90q-25 53 -37 95t-12 90q0 94 77 158.5t189 84.5v8q-113 20 -189.5 85t-76.5 159q0 43 12.5 85t36.5 97q23 55 34 92t11 76q0 92 -38 143.5t-130 51.5q-33 0 -88 -10l-104 -21v99l125 20q49 8 102 8 q135 0 205 -71.5t70 -208.5q0 -47 -12.5 -89t-39.5 -108q-25 -57 -37 -96t-12 -82q0 -41 46 -83t132 -69.5t201 -27.5v-107q-115 0 -201 -27.5t-132 -69.5t-46 -83q0 -45 12.5 -84t36.5 -94q27 -63 39.5 -105.5t12.5 -91.5q0 -137 -70 -208.5t-205 -71.5q-53 0 -102 8 l-125 20v98z" />
<glyph unicode="~" d="M156 569q96 256 278 256q57 0 103.5 -24.5t109.5 -71.5q51 -39 84 -57.5t68 -18.5q53 0 93 38t73 138l108 -49q-96 -254 -278 -254q-57 0 -103.5 24.5t-109.5 72.5q-51 39 -84 57t-68 18q-53 0 -93 -37.5t-73 -138.5z" />
<glyph unicode="&#xa0;" />
<glyph unicode="&#xa1;" d="M465 860q0 72 43 116t106 44t106.5 -44t43.5 -116q0 -70 -43 -112.5t-107 -42.5q-63 0 -106 43t-43 112zM512 -377l20 856h168l21 -856h-209z" />
<glyph unicode="&#xa2;" d="M231 635q0 205 116 333t296 152v217h105v-211q150 -8 268 -118l-82 -107q-86 80 -186 86v-704q113 8 215 96l73 -107q-133 -117 -288 -129v-211h-105v213q-186 20 -299 148.5t-113 341.5zM397 635q0 -137 65.5 -227.5t180.5 -116.5v686q-115 -27 -180.5 -117t-65.5 -225z " />
<glyph unicode="&#xa3;" d="M158 584v106l202 8q-6 16 -25.5 70.5t-29.5 100.5t-10 85q0 172 116.5 274.5t313.5 102.5q221 0 360 -153l-98 -97q-51 51 -112.5 80t-141.5 29q-131 0 -203.5 -65.5t-72.5 -174.5q0 -57 14 -108t47 -144h387v-114h-354q12 -55 12 -115q0 -104 -37 -177t-116 -138v-9h677 v-145h-927v102q125 55 189.5 152.5t64.5 216.5q0 53 -17 113h-239z" />
<glyph unicode="&#xa4;" d="M119 262l172 174q-74 100 -74 238q0 139 72 239l-170 177l90 92l178 -185q98 76 227 76q127 0 228 -76l178 185l90 -92l-172 -177q74 -100 74 -239q0 -133 -74 -238l172 -174l-90 -92l-180 182q-96 -78 -226 -78q-127 0 -227 78l-178 -182zM373 674q0 -121 69.5 -198 t171.5 -77q103 0 172.5 77t69.5 198t-69.5 197.5t-172.5 76.5q-102 0 -171.5 -76.5t-69.5 -197.5z" />
<glyph unicode="&#xa5;" d="M109 1307h174l188 -351l61 -120q33 -68 80 -156h9l28 55l115 221l188 351h168l-381 -656h332v-96h-375v-133h375v-98h-375v-324h-168v324h-370v98h370v133h-370v96h329z" />
<glyph unicode="&#xa6;" d="M539 438h151v-950h-151v950zM539 596v940h151v-940h-151z" />
<glyph unicode="&#xa7;" d="M186 702q0 86 50.5 154t136.5 113q-63 70 -64 166q0 113 81 189.5t228 76.5q178 0 330 -117l-82 -108q-59 45 -116.5 69.5t-122.5 24.5q-82 0 -123 -37t-41 -92q0 -66 56 -106t177 -91q111 -49 179.5 -89t117.5 -107.5t49 -165.5q0 -92 -47 -154.5t-137 -112.5 q59 -70 60 -165q0 -123 -92.5 -202t-237.5 -79q-111 0 -206 39t-161 106l103 92q57 -53 119.5 -79.5t144.5 -26.5q80 0 128 41t48 100q0 68 -57.5 109t-180.5 94q-111 49 -177 88t-114.5 105.5t-48.5 164.5zM332 713q0 -59 35.5 -103.5t88 -73t144.5 -67.5q98 -41 160 -76 q69 31 103 71t34 105q0 61 -37 106.5t-89 75t-146 70.5q-106 45 -154 72q-68 -35 -103.5 -78t-35.5 -102z" />
<glyph unicode="&#xa8;" d="M307 1317q0 49 31 81t80 32q47 0 78.5 -33t31.5 -80t-31.5 -80t-78.5 -33q-49 0 -80 32t-31 81zM700 1317q0 47 32 80t79 33q49 0 80 -32t31 -81t-31 -81t-80 -32q-47 0 -79 33t-32 80z" />
<glyph unicode="&#xa9;" horiz-adv-x="1323" d="M0 662q0 203 90 356t240.5 236t331.5 83q180 0 330.5 -83t240.5 -236.5t90 -355.5q0 -203 -90 -359t-241.5 -241t-329.5 -85q-179 0 -330.5 85t-241.5 241t-90 359zM96 662q0 -174 76 -310.5t206 -212.5t284 -76q153 0 283 76t206 212t76 311q0 174 -76 308t-205 208.5 t-284 74.5q-156 0 -285 -74.5t-205 -208.5t-76 -308zM305 662q0 115 52.5 202.5t139.5 136t187 48.5q80 0 140.5 -31t115.5 -86l-72 -80q-45 43 -86 63.5t-92 20.5q-111 0 -180.5 -77t-69.5 -197q0 -135 66.5 -214t177.5 -79q59 0 108.5 23.5t100.5 66.5l61 -86 q-66 -57 -129 -87t-147 -30q-105 0 -190 49t-134 141.5t-49 215.5z" />
<glyph unicode="&#xaa;" d="M342 707q0 106 104.5 164.5t327.5 80.5q-2 68 -35.5 110t-107.5 42q-92 0 -211 -70l-51 88q145 86 282 86q127 0 190.5 -72.5t63.5 -203.5v-400h-106l-11 76h-4q-119 -92 -231 -92q-90 0 -150.5 52.5t-60.5 138.5zM471 715q0 -47 34 -72t87 -25q84 0 182 82v168 q-162 -18 -232.5 -56t-70.5 -97z" />
<glyph unicode="&#xab;" d="M168 434v164l313 328l80 -72l-260 -338l260 -340l-80 -70zM639 434v164l311 328l82 -72l-260 -338l260 -340l-82 -70z" />
<glyph unicode="&#xac;" d="M174 612v127h881v-526h-135v399h-746z" />
<glyph unicode="&#xad;" d="M174 612v127h881v-127h-881z" />
<glyph unicode="&#xae;" d="M229 1057q0 117 51.5 209t139.5 143t194 51q104 0 192.5 -51t140.5 -143t52 -209t-52 -209t-140 -143.5t-193 -51.5q-106 0 -194 51.5t-139.5 143.5t-51.5 209zM309 1057q0 -96 40 -170t109.5 -116t155.5 -42t155 42t109 116t40 170q0 94 -40 170t-109 117.5t-155 41.5 t-155.5 -41.5t-109.5 -117.5t-40 -170zM465 854v416h156q72 0 116.5 -32t44.5 -101q0 -37 -21.5 -69t-55.5 -44l94 -170h-94l-72 143h-84v-143h-84zM549 1063h53q43 0 66.5 18.5t23.5 51.5q0 68 -86 67h-57v-137z" />
<glyph unicode="&#xaf;" d="M362 1231v117h504v-117h-504z" />
<glyph unicode="&#xb0;" d="M358 1139q0 119 75 191.5t181 72.5t182 -74t76 -190q0 -115 -75.5 -187.5t-182.5 -72.5q-106 0 -181 72.5t-75 187.5zM461 1139q0 -72 43 -119t110 -47q70 0 113 47t43 119q0 76 -43 123t-113 47q-68 0 -110.5 -47.5t-42.5 -122.5z" />
<glyph unicode="&#xb1;" d="M174 0v127h881v-127h-881zM174 623v127h373v389h135v-389h373v-127h-373v-363h-135v363h-373z" />
<glyph unicode="&#xb4;" d="M481 1174l185 303h184l-240 -303h-129z" />
<glyph unicode="&#xb5;" d="M158 -383v1378h170v-596q0 -139 54 -208.5t169 -69.5q88 0 164 47t151 180v647h170q-10 -446 -10 -807q0 -37 15.5 -55t39.5 -18q18 0 37 4l25 -127q-39 -16 -99 -17q-78 0 -114.5 53.5t-46.5 174.5h-6q-63 -113 -147.5 -168t-180.5 -55q-80 0 -138.5 23.5t-95.5 84.5 q0 -274 13 -471h-170z" />
<glyph unicode="&#xb6;" d="M147 907q0 229 130.5 332.5t351.5 103.5h88v-880h-66q-229 0 -366.5 110.5t-137.5 333.5zM827 -164v1507h166v-1507h-166z" />
<glyph unicode="&#xb7;" d="M449 711q0 76 48 125t117 49q70 0 118 -49.5t48 -124.5q0 -76 -48 -124t-118 -48q-69 0 -117 48t-48 124z" />
<glyph unicode="&#xb8;" d="M455 -352q180 25 180 98q0 39 -32 61.5t-97 38.5l82 160h110l-53 -108q57 -18 89 -52t32 -94q0 -84 -84 -130t-211 -58z" />
<glyph unicode="&#xba;" d="M291 862q0 106 44 184t117.5 120t161.5 42t162 -42t118 -119.5t44 -184.5q0 -106 -44 -184t-118 -120t-162 -42t-161.5 42t-117.5 120t-44 184zM426 862q0 -109 51 -174t137 -65t137.5 65.5t51.5 173.5q0 106 -51.5 173t-137.5 67t-137 -66.5t-51 -173.5z" />
<glyph unicode="&#xbb;" d="M197 176l260 340l-260 338l82 72l311 -328v-164l-311 -328zM668 176l260 340l-260 338l80 72l313 -328v-164l-313 -328z" />
<glyph unicode="&#xbc;" d="M57 158l375 385l68 -62l-342 -415zM152 1153v86q66 10 107.5 25.5t84.5 42.5h105v-625h-130v471h-167zM627 150v63l303 412h145v-387h103v-88h-103v-150h-117v150h-331zM729 862l342 416l100 -92l-374 -385zM758 238h200v114l11 168h-8l-93 -133z" />
<glyph unicode="&#xbd;" d="M57 158l375 385l68 -62l-342 -415zM152 1153v86q66 10 107.5 25.5t84.5 42.5h105v-625h-130v471h-167zM631 524q47 57 109.5 91t131.5 34q111 0 174.5 -55t63.5 -156q0 -51 -31.5 -102t-76 -96t-140.5 -131h279v-109h-490v74q180 137 255 210.5t75 137.5q0 55 -33 88 t-92 33q-80 0 -145 -86zM729 862l342 416l100 -92l-374 -385z" />
<glyph unicode="&#xbe;" d="M78 768l63 80q35 -39 85 -64.5t102 -25.5q57 0 92 24.5t35 71.5q0 106 -195 107v77q82 0 124 28t42 75q0 41 -27.5 64.5t-85.5 23.5q-37 0 -78.5 -18.5t-72.5 -49.5l-62 78q41 43 103.5 67.5t134.5 24.5q96 0 156.5 -47t60.5 -125q0 -59 -27.5 -96t-87.5 -57 q68 -16 106 -56.5t38 -101.5q0 -88 -70 -139.5t-176 -51.5q-72 0 -140.5 30t-119.5 81zM111 158l374 385l66 -62l-342 -415zM627 150v63l305 412h145v-387h103v-88h-103v-150h-119v150h-331zM760 238h198v114l11 168h-8l-91 -133zM780 862l344 416l99 -92l-375 -385z" />
<glyph unicode="&#xbf;" d="M252 -82q0 80 41 136.5t127 135.5q84 78 126 136.5t42 136.5q0 25 -2 37h149q4 -18 4 -54q0 -90 -47 -155.5t-135 -145.5q-72 -66 -106.5 -110.5t-34.5 -97.5q0 -88 59.5 -142.5t167.5 -54.5q150 0 266 117l99 -93q-72 -76 -168.5 -120.5t-208.5 -44.5q-172 0 -275.5 87 t-103.5 232zM496 862q0 70 43 114t106 44t107.5 -44t44.5 -114q0 -72 -44 -114.5t-108 -42.5q-63 0 -106 43t-43 114z" />
<glyph unicode="&#xc0;" d="M66 0l452 1352h193l452 -1352h-180l-127 414h-487l-129 -414h-174zM346 1686h193l180 -232h-141zM412 551h401l-63 207q-74 240 -134 454h-8q-59 -215 -133 -454z" />
<glyph unicode="&#xc1;" d="M66 0l452 1352h193l452 -1352h-180l-127 414h-487l-129 -414h-174zM412 551h401l-63 207q-74 240 -134 454h-8q-59 -215 -133 -454zM510 1454l180 232h193l-232 -232h-141z" />
<glyph unicode="&#xc2;" d="M66 0l452 1352h193l452 -1352h-180l-127 414h-487l-129 -414h-174zM336 1454l196 232h164l197 -232h-137l-138 141h-8l-137 -141h-137zM412 551h401l-63 207q-74 240 -134 454h-8q-59 -215 -133 -454z" />
<glyph unicode="&#xc3;" d="M66 0l452 1352h193l452 -1352h-180l-127 414h-487l-129 -414h-174zM317 1464q11 101 57 162.5t118 61.5q39 0 70.5 -16.5t72.5 -45.5q35 -25 56.5 -36t43.5 -11q29 0 51.5 29.5t30.5 79.5h94q-10 -96 -56 -160t-118 -64q-39 0 -70.5 16.5t-72.5 45.5q-35 25 -56.5 36 t-43.5 11q-31 0 -52.5 -27.5t-29.5 -81.5h-95zM412 551h401l-63 207q-74 240 -134 454h-8q-59 -215 -133 -454z" />
<glyph unicode="&#xc4;" d="M66 0l452 1352h193l452 -1352h-180l-127 414h-487l-129 -414h-174zM338 1575q0 45 27.5 72.5t72.5 27.5q43 0 72 -27.5t29 -72.5q0 -43 -29 -71.5t-72 -28.5q-45 0 -72.5 28.5t-27.5 71.5zM412 551h401l-63 207q-74 240 -134 454h-8q-59 -215 -133 -454zM690 1575 q0 45 29 72.5t72 27.5q45 0 72.5 -27.5t27.5 -72.5q0 -43 -27.5 -71.5t-72.5 -28.5q-43 0 -72 28.5t-29 71.5z" />
<glyph unicode="&#xc5;" d="M66 0l452 1352h193l452 -1352h-180l-127 412h-487l-129 -412h-174zM412 551h401l-63 205q-70 225 -134 456h-8q-63 -231 -133 -456zM424 1620q0 82 53 132t137 50q82 0 136.5 -50t54.5 -132t-54.5 -131t-136.5 -49q-84 0 -137 49t-53 131zM516 1620q0 -49 27.5 -78 t70.5 -29q41 0 69 29t28 78q0 47 -29 76.5t-68 29.5q-43 0 -70.5 -28.5t-27.5 -77.5z" />
<glyph unicode="&#xc6;" d="M-2 0l532 1352h662v-144h-387v-424h301v-145h-301v-494h405v-145h-561v395h-323l-150 -395h-178zM379 532h270v685h-6l-92 -240l-78 -199z" />
<glyph unicode="&#xc7;" d="M135 676q0 213 77 371.5t213 243.5t310 85q113 0 207 -46t160 -118l-96 -108q-117 123 -271 123q-129 0 -224 -66.5t-147.5 -190.5t-52.5 -290q0 -168 52.5 -294t147.5 -193.5t224 -67.5q90 0 162 37t139 112l99 -104q-160 -182 -379 -195l-39 -77q123 -41 123 -148 q0 -84 -84 -130t-213 -58l-17 84q182 25 183 98q0 39 -33 62.5t-98 39.5l69 134q-152 20 -267.5 108t-180 238.5t-64.5 349.5z" />
<glyph unicode="&#xc8;" d="M236 0v1352h829v-144h-657v-426h555v-145h-555v-492h677v-145h-849zM410 1686h192l180 -232h-141z" />
<glyph unicode="&#xc9;" d="M236 0v1352h829v-144h-657v-426h555v-145h-555v-492h677v-145h-849zM573 1454l181 232h192l-231 -232h-142z" />
<glyph unicode="&#xca;" d="M236 0v1352h829v-144h-657v-426h555v-145h-555v-492h677v-145h-849zM399 1454l197 232h162l196 -232h-135l-137 141h-8l-137 -141h-138z" />
<glyph unicode="&#xcb;" d="M236 0v1352h829v-144h-657v-426h555v-145h-555v-492h677v-145h-849zM399 1575q0 45 29 72.5t72 27.5q45 0 72.5 -27.5t27.5 -72.5q0 -43 -27.5 -71.5t-72.5 -28.5q-43 0 -72 28.5t-29 71.5zM754 1575q0 45 28.5 72.5t71.5 27.5t71.5 -27.5t28.5 -72.5q0 -43 -28.5 -71.5 t-71.5 -28.5t-71.5 28.5t-28.5 71.5z" />
<glyph unicode="&#xcc;" d="M195 0v145h333v1063h-333v144h839v-144h-334v-1063h334v-145h-839zM346 1686h193l180 -232h-141z" />
<glyph unicode="&#xcd;" d="M195 0v145h333v1063h-333v144h839v-144h-334v-1063h334v-145h-839zM510 1454l180 232h193l-232 -232h-141z" />
<glyph unicode="&#xce;" d="M195 0v145h333v1063h-333v144h839v-144h-334v-1063h334v-145h-839zM336 1454l196 232h164l197 -232h-137l-138 141h-8l-137 -141h-137z" />
<glyph unicode="&#xcf;" d="M195 0v145h333v1063h-333v144h839v-144h-334v-1063h334v-145h-839zM338 1575q0 45 27.5 72.5t72.5 27.5q43 0 72 -27.5t29 -72.5q0 -43 -29 -71.5t-72 -28.5q-45 0 -72.5 28.5t-27.5 71.5zM690 1575q0 45 29 72.5t72 27.5q45 0 72.5 -27.5t27.5 -72.5q0 -43 -27.5 -71.5 t-72.5 -28.5q-43 0 -72 28.5t-29 71.5z" />
<glyph unicode="&#xd0;" d="M33 662v86l153 10v594h330q301 0 461 -174t160 -496q0 -324 -160 -503t-455 -179h-336v662h-153zM356 139h148q225 0 341 141.5t116 401.5q0 258 -115 394t-342 136h-148v-454h293v-96h-293v-523z" />
<glyph unicode="&#xd1;" d="M170 0v1352h174l436 -854l135 -277h5q-2 41 -11 152q-12 184 -12 276v703h162v-1352h-174l-436 854l-136 276h-4q2 -51 10 -157q12 -176 13 -264v-709h-162zM330 1464q10 101 56 162.5t118 61.5q39 0 70.5 -16.5t72.5 -45.5q35 -25 56.5 -36t44.5 -11q29 0 51 29.5 t30 79.5h95q-10 -96 -56.5 -160t-117.5 -64q-39 0 -71 16.5t-73 45.5q-35 25 -56.5 36t-43.5 11q-31 0 -52.5 -27.5t-29.5 -81.5h-94z" />
<glyph unicode="&#xd2;" d="M98 682q0 213 65.5 369.5t182.5 240.5t268 84q152 0 268.5 -84t182 -241.5t65.5 -368.5q0 -213 -65.5 -374t-182 -247t-268.5 -86q-151 0 -268 86t-182.5 247t-65.5 374zM274 682q0 -168 42 -294t119 -194.5t179 -68.5q103 0 179.5 68.5t118.5 194.5t42 294 q0 166 -42 289t-118.5 189.5t-179.5 66.5q-102 0 -179 -66.5t-119 -189.5t-42 -289zM346 1686h193l180 -232h-141z" />
<glyph unicode="&#xd3;" d="M98 682q0 213 65.5 369.5t182.5 240.5t268 84q152 0 268.5 -84t182 -241.5t65.5 -368.5q0 -213 -65.5 -374t-182 -247t-268.5 -86q-151 0 -268 86t-182.5 247t-65.5 374zM274 682q0 -168 42 -294t119 -194.5t179 -68.5q103 0 179.5 68.5t118.5 194.5t42 294 q0 166 -42 289t-118.5 189.5t-179.5 66.5q-102 0 -179 -66.5t-119 -189.5t-42 -289zM510 1454l180 232h193l-232 -232h-141z" />
<glyph unicode="&#xd4;" d="M98 682q0 213 65.5 369.5t182.5 240.5t268 84q152 0 268.5 -84t182 -241.5t65.5 -368.5q0 -213 -65.5 -374t-182 -247t-268.5 -86q-151 0 -268 86t-182.5 247t-65.5 374zM274 682q0 -168 42 -294t119 -194.5t179 -68.5q103 0 179.5 68.5t118.5 194.5t42 294 q0 166 -42 289t-118.5 189.5t-179.5 66.5q-102 0 -179 -66.5t-119 -189.5t-42 -289zM336 1454l196 232h164l197 -232h-137l-138 141h-8l-137 -141h-137z" />
<glyph unicode="&#xd5;" d="M98 682q0 213 65.5 369.5t182.5 240.5t268 84q152 0 268.5 -84t182 -241.5t65.5 -368.5q0 -213 -65.5 -374t-182 -247t-268.5 -86q-151 0 -268 86t-182.5 247t-65.5 374zM274 682q0 -168 42 -294t119 -194.5t179 -68.5q103 0 179.5 68.5t118.5 194.5t42 294 q0 166 -42 289t-118.5 189.5t-179.5 66.5q-102 0 -179 -66.5t-119 -189.5t-42 -289zM317 1464q11 101 57 162.5t118 61.5q39 0 70.5 -16.5t72.5 -45.5q35 -25 56.5 -36t43.5 -11q29 0 51.5 29.5t30.5 79.5h94q-10 -96 -56 -160t-118 -64q-39 0 -70.5 16.5t-72.5 45.5 q-35 25 -56.5 36t-43.5 11q-31 0 -52.5 -27.5t-29.5 -81.5h-95z" />
<glyph unicode="&#xd6;" d="M98 682q0 213 65.5 369.5t182.5 240.5t268 84q152 0 268.5 -84t182 -241.5t65.5 -368.5q0 -213 -65.5 -374t-182 -247t-268.5 -86q-151 0 -268 86t-182.5 247t-65.5 374zM274 682q0 -168 42 -294t119 -194.5t179 -68.5q103 0 179.5 68.5t118.5 194.5t42 294 q0 166 -42 289t-118.5 189.5t-179.5 66.5q-102 0 -179 -66.5t-119 -189.5t-42 -289zM338 1575q0 45 27.5 72.5t72.5 27.5q43 0 72 -27.5t29 -72.5q0 -43 -29 -71.5t-72 -28.5q-45 0 -72.5 28.5t-27.5 71.5zM690 1575q0 45 29 72.5t72 27.5q45 0 72.5 -27.5t27.5 -72.5 q0 -43 -27.5 -71.5t-72.5 -28.5q-43 0 -72 28.5t-29 71.5z" />
<glyph unicode="&#xd7;" d="M209 350l315 326l-315 323l90 93l315 -326l316 326l90 -93l-315 -323l315 -326l-90 -92l-316 328l-315 -328z" />
<glyph unicode="&#xd8;" d="M92 4l129 193q-123 190 -123 485q0 213 65.5 370.5t182.5 241.5t268 84q190 0 318 -127l110 164l97 -65l-129 -193q121 -180 120 -475q0 -213 -65.5 -374t-182 -247t-268.5 -86q-184 0 -315 127l-109 -163zM274 682q0 -195 56 -330l510 762q-90 115 -226 115 q-102 0 -179 -66.5t-119 -190.5t-42 -290zM393 240q90 -115 221 -115q103 0 179.5 68.5t118.5 194.5t42 294q0 186 -51 317z" />
<glyph unicode="&#xd9;" d="M162 510v842h172v-844q0 -201 75.5 -292t206.5 -91t208 91t77 292v844h166v-842q0 -276 -121 -405.5t-330 -129.5q-210 0 -332 129t-122 406zM346 1686h193l180 -232h-141z" />
<glyph unicode="&#xda;" d="M162 510v842h172v-844q0 -201 75.5 -292t206.5 -91t208 91t77 292v844h166v-842q0 -276 -121 -405.5t-330 -129.5q-210 0 -332 129t-122 406zM510 1454l180 232h193l-232 -232h-141z" />
<glyph unicode="&#xdb;" d="M162 510v842h172v-844q0 -201 75.5 -292t206.5 -91t208 91t77 292v844h166v-842q0 -276 -121 -405.5t-330 -129.5q-210 0 -332 129t-122 406zM336 1454l196 232h164l197 -232h-137l-138 141h-8l-137 -141h-137z" />
<glyph unicode="&#xdc;" d="M162 512v840h172v-844q0 -201 75.5 -292t206.5 -91t208 91t77 292v844h166v-840q0 -279 -121 -408t-330 -129q-210 0 -332 129t-122 408zM338 1575q0 45 27.5 72.5t72.5 27.5q43 0 72 -27.5t29 -72.5q0 -43 -29 -71.5t-72 -28.5q-45 0 -72.5 28.5t-27.5 71.5zM690 1575 q0 45 29 72.5t72 27.5q45 0 72.5 -27.5t27.5 -72.5q0 -43 -27.5 -71.5t-72.5 -28.5q-43 0 -72 28.5t-29 71.5z" />
<glyph unicode="&#xdd;" d="M78 1352h180l203 -404q45 -90 65 -135l88 -178h9l157 317l195 400h176l-451 -869v-483h-172v483zM510 1454l180 232h193l-232 -232h-141z" />
<glyph unicode="&#xde;" d="M207 0v1352h172v-228h242q238 0 366.5 -93t128.5 -304q0 -207 -134 -312.5t-361 -105.5h-242v-309h-172zM379 449h219q178 0 263 66.5t85 211.5q0 141 -84 199.5t-264 58.5h-219v-536z" />
<glyph unicode="&#xdf;" d="M180 0v1098q0 199 110.5 318.5t301.5 119.5q104 0 180 -43t116 -114.5t40 -157.5q0 -78 -25.5 -132.5t-79.5 -127.5q-43 -59 -61.5 -95.5t-18.5 -83.5q0 -55 39 -89t123 -77q80 -41 129 -75.5t85 -96t36 -151.5t-41 -163t-117.5 -115t-175.5 -42q-152 1 -295 99l68 118 q59 -43 112.5 -63.5t110.5 -20.5q82 0 130 50.5t48 122.5q0 59 -26.5 100t-66.5 67.5t-107 61.5q-72 39 -113 66.5t-70.5 73.5t-29.5 114t23.5 117t70.5 114q45 63 67.5 110.5t22.5 106.5q0 82 -47 135.5t-129 53.5q-117 0 -179.5 -78t-62.5 -250v-1071h-168z" />
<glyph unicode="&#xe0;" d="M166 268q0 119 73.5 198t230.5 126t417 70q-4 119 -66.5 193.5t-197.5 74.5q-160 0 -308 -127l-65 117q72 61 177 105t224 44q199 0 301.5 -113.5t102.5 -312.5v-643h-137l-15 143h-6q-92 -76 -193.5 -123t-199.5 -47q-146 0 -242 80t-96 215zM330 281q0 -86 62.5 -129 t156.5 -43q162 -1 338 159v281q-307 -27 -432 -92.5t-125 -175.5zM467 1477h184l185 -303h-129z" />
<glyph unicode="&#xe1;" d="M166 268q0 119 73.5 198t230.5 126t417 70q-4 119 -66.5 193.5t-197.5 74.5q-160 0 -308 -127l-65 117q72 61 177 105t224 44q199 0 301.5 -113.5t102.5 -312.5v-643h-137l-15 143h-6q-92 -76 -193.5 -123t-199.5 -47q-146 0 -242 80t-96 215zM330 281q0 -86 62.5 -129 t156.5 -43q162 -1 338 159v281q-307 -27 -432 -92.5t-125 -175.5zM466 1174l185 303h184l-239 -303h-130z" />
<glyph unicode="&#xe2;" d="M166 268q0 119 73.5 198t230.5 126t417 70q-4 119 -66.5 193.5t-197.5 74.5q-160 0 -308 -127l-65 117q72 61 177 105t224 44q199 0 301.5 -113.5t102.5 -312.5v-643h-137l-15 143h-6q-92 -76 -193.5 -123t-199.5 -47q-146 0 -242 80t-96 215zM330 281q0 -86 62.5 -129 t156.5 -43q162 -1 338 159v281q-307 -27 -432 -92.5t-125 -175.5zM381 1174l199 303h143l199 -303h-129l-137 202h-8l-138 -202h-129z" />
<glyph unicode="&#xe3;" d="M166 268q0 119 73.5 198t230.5 126t417 70q-4 119 -66.5 193.5t-197.5 74.5q-160 0 -308 -127l-65 117q72 61 177 105t224 44q199 0 301.5 -113.5t102.5 -312.5v-643h-137l-15 143h-6q-92 -76 -193.5 -123t-199.5 -47q-146 0 -242 80t-96 215zM330 281q0 -86 62.5 -129 t156.5 -43q162 -1 338 159v281q-307 -27 -432 -92.5t-125 -175.5zM361 1186q12 102 57 162.5t123 60.5q35 0 65.5 -16.5t69.5 -46.5q31 -25 50.5 -36.5t37.5 -11.5q63 0 82 111h96q-12 -100 -57 -161.5t-123 -61.5q-37 0 -65.5 16.5t-67.5 48.5q-31 25 -50.5 36t-39.5 11 q-63 0 -82 -112h-96z" />
<glyph unicode="&#xe4;" d="M166 268q0 119 73.5 198t230.5 126t417 70q-4 119 -66.5 193.5t-197.5 74.5q-160 0 -308 -127l-65 117q72 61 177 105t224 44q199 0 301.5 -113.5t102.5 -312.5v-643h-137l-15 143h-6q-92 -76 -193.5 -123t-199.5 -47q-146 0 -242 80t-96 215zM330 281q0 -86 62.5 -129 t156.5 -43q162 -1 338 159v281q-307 -27 -432 -92.5t-125 -175.5zM344 1317q0 49 31 81t80 32q47 0 79 -33t32 -80t-32 -80t-79 -33q-49 0 -80 32t-31 81zM738 1317q0 47 31.5 80t78.5 33q49 0 80 -32t31 -81t-31 -81t-80 -32q-47 0 -78.5 33t-31.5 80z" />
<glyph unicode="&#xe5;" d="M166 268q0 119 73.5 198t230.5 126t417 70q-4 119 -66.5 193.5t-197.5 74.5q-160 0 -308 -127l-65 117q72 61 177 105t224 44q199 0 301.5 -113.5t102.5 -312.5v-643h-137l-15 143h-6q-92 -76 -193.5 -123t-199.5 -47q-146 0 -242 80t-96 215zM330 281q0 -86 62.5 -129 t156.5 -43q162 -1 338 159v281q-307 -27 -432 -92.5t-125 -175.5zM461 1300q0 84 53.5 136.5t137.5 52.5t137 -52.5t53 -136.5q0 -86 -53 -138t-137 -52t-137.5 52t-53.5 138zM553 1300q0 -51 28 -82.5t71 -31.5t70.5 31.5t27.5 82.5q0 49 -27.5 81t-70.5 32t-71 -31.5 t-28 -81.5z" />
<glyph unicode="&#xe6;" d="M35 276q0 305 508 386q-4 270 -178 270q-51 0 -117 -25.5t-117 -62.5l-63 114q164 111 317 111q92 0 155.5 -58.5t92.5 -154.5q102 213 289 213q145 0 223 -136t78 -339q0 -39 -9 -113h-528q6 -172 69.5 -272t180.5 -100q51 0 97 17t100 50l59 -110q-133 -92 -262 -93 q-201 0 -305 199q-172 -199 -324 -199q-123 0 -194.5 81t-71.5 222zM190 285q0 -86 40 -131t112 -45q53 0 116.5 42t116.5 117q-29 88 -32 228l-2 53q-184 -33 -267.5 -97.5t-83.5 -166.5zM684 596h397q0 152 -41 246t-133 94q-94 0 -153.5 -91t-69.5 -249z" />
<glyph unicode="&#xe7;" d="M164 520q0 170 74.5 294t200.5 189.5t280 65.5q213 0 362 -154l-84 -108q-129 123 -272 123q-113 0 -201 -51.5t-137 -144.5t-49 -214q0 -182 105.5 -294.5t277.5 -112.5q158 0 309 133l74 -109q-82 -78 -184.5 -121t-210.5 -43h-23l-37 -75q58 -19 89.5 -52.5 t31.5 -93.5q0 -84 -84 -130t-211 -58l-16 84q180 25 180 98q0 39 -32 61.5t-97 38.5l72 140q-188 37 -303 177t-115 357z" />
<glyph unicode="&#xe8;" d="M141 520q0 164 71 289t187.5 192.5t247.5 67.5q211 0 332 -133t121 -356q0 -57 -6 -99h-779q6 -168 111.5 -269t269.5 -101q84 0 157 24.5t146 73.5l60 -113q-184 -123 -383 -123q-150 0 -271.5 66.5t-192.5 190.5t-71 290zM313 604h631q0 158 -78 245t-217 87 q-125 0 -221 -90t-115 -242zM463 1477h184l185 -303h-129z" />
<glyph unicode="&#xe9;" d="M141 520q0 164 71 289t187.5 192.5t247.5 67.5q211 0 332 -133t121 -356q0 -57 -6 -99h-779q6 -168 111.5 -269t269.5 -101q84 0 157 24.5t146 73.5l60 -113q-184 -123 -383 -123q-150 0 -271.5 66.5t-192.5 190.5t-71 290zM313 604h631q0 158 -78 245t-217 87 q-125 0 -221 -90t-115 -242zM462 1174l185 303h184l-239 -303h-130z" />
<glyph unicode="&#xea;" d="M141 520q0 164 71 289t187.5 192.5t247.5 67.5q211 0 332 -133t121 -356q0 -57 -6 -99h-779q6 -168 111.5 -269t269.5 -101q84 0 157 24.5t146 73.5l60 -113q-184 -123 -383 -123q-150 0 -271.5 66.5t-192.5 190.5t-71 290zM313 604h631q0 158 -78 245t-217 87 q-125 0 -221 -90t-115 -242zM377 1174l199 303h143l199 -303h-129l-137 202h-8l-138 -202h-129z" />
<glyph unicode="&#xeb;" d="M141 520q0 164 71 289t187.5 192.5t247.5 67.5q211 0 332 -133t121 -356q0 -57 -6 -99h-779q6 -168 111.5 -269t269.5 -101q84 0 157 24.5t146 73.5l60 -113q-184 -123 -383 -123q-150 0 -271.5 66.5t-192.5 190.5t-71 290zM313 604h631q0 158 -78 245t-217 87 q-125 0 -221 -90t-115 -242zM340 1317q0 49 31 81t80 32q47 0 79 -33t32 -80t-32 -80t-79 -33q-49 0 -80 32t-31 81zM734 1317q0 47 31.5 80t78.5 33q49 0 80 -32t31 -81t-31 -81t-80 -32q-47 0 -78.5 33t-31.5 80z" />
<glyph unicode="&#xec;" d="M205 0v139h387v768h-387v137h555v-905h387v-139h-942zM471 1477h184l185 -303h-129z" />
<glyph unicode="&#xed;" d="M205 0v139h387v768h-387v137h555v-905h387v-139h-942zM471 1174l185 303h184l-239 -303h-130z" />
<glyph unicode="&#xee;" d="M205 0v139h387v768h-387v137h555v-905h387v-139h-942zM385 1174l199 303h143l199 -303h-129l-137 202h-8l-138 -202h-129z" />
<glyph unicode="&#xef;" d="M205 0v139h387v768h-387v137h555v-905h387v-139h-942zM348 1317q0 49 31 81t80 32q47 0 79 -33t32 -80t-32 -80t-79 -33q-49 0 -80 32t-31 81zM742 1317q0 47 31.5 80t78.5 33q49 0 80 -32t31 -81t-31 -81t-80 -32q-47 0 -78.5 33t-31.5 80z" />
<glyph unicode="&#xf0;" d="M123 477q0 143 60.5 253t166 170.5t240.5 60.5q94 0 181 -47.5t144 -129.5q-27 141 -85 236.5t-162 191.5l-308 -165l-47 83l271 148q-86 66 -246 152l78 106q186 -94 303 -188l276 149l47 -86l-243 -131q147 -141 223 -312t76 -417q0 -172 -59.5 -302t-170 -203 t-258.5 -73q-131 0 -242.5 62.5t-178 176.5t-66.5 265zM281 477q0 -106 45 -189t120.5 -129t167.5 -46q158 0 240 118.5t82 313.5q0 66 -2 96q-68 98 -151 143t-169 45q-160 0 -246.5 -98t-86.5 -254z" />
<glyph unicode="&#xf1;" d="M190 0v1044h140l14 -182h8q88 98 177 152.5t198 54.5q344 0 344 -420v-649h-168v627q0 154 -54 225.5t-175 71.5q-84 0 -152.5 -45t-163.5 -150v-729h-168zM344 1186q12 102 57 162.5t123 60.5q35 0 65.5 -16.5t69.5 -46.5q31 -25 50.5 -36.5t37.5 -11.5q63 0 82 111h96 q-12 -100 -57 -161.5t-123 -61.5q-37 0 -65.5 16.5t-67.5 48.5q-31 25 -50.5 36t-39.5 11q-63 0 -82 -112h-96z" />
<glyph unicode="&#xf2;" d="M123 520q0 170 66.5 294t179 189.5t245.5 65.5t246 -65.5t179.5 -189.5t66.5 -294q0 -168 -66.5 -292t-179 -189.5t-246.5 -65.5q-133 0 -245.5 65.5t-179 189.5t-66.5 292zM297 520q0 -182 87 -294.5t230 -112.5q144 0 231 112.5t87 294.5t-87 296t-231 114 q-143 0 -230 -114t-87 -296zM430 1477h184l185 -303h-129z" />
<glyph unicode="&#xf3;" d="M123 520q0 170 66.5 294t179 189.5t245.5 65.5t246 -65.5t179.5 -189.5t66.5 -294q0 -168 -66.5 -292t-179 -189.5t-246.5 -65.5q-133 0 -245.5 65.5t-179 189.5t-66.5 292zM297 520q0 -182 87 -294.5t230 -112.5q144 0 231 112.5t87 294.5t-87 296t-231 114 q-143 0 -230 -114t-87 -296zM430 1174l185 303h184l-239 -303h-130z" />
<glyph unicode="&#xf4;" d="M123 520q0 170 66.5 294t179 189.5t245.5 65.5t246 -65.5t179.5 -189.5t66.5 -294q0 -168 -66.5 -292t-179 -189.5t-246.5 -65.5q-133 0 -245.5 65.5t-179 189.5t-66.5 292zM297 520q0 -182 87 -294.5t230 -112.5q144 0 231 112.5t87 294.5t-87 296t-231 114 q-143 0 -230 -114t-87 -296zM344 1174l199 303h143l199 -303h-129l-137 202h-8l-138 -202h-129z" />
<glyph unicode="&#xf5;" d="M123 520q0 170 66.5 294t179 189.5t245.5 65.5t246 -65.5t179.5 -189.5t66.5 -294q0 -168 -66.5 -292t-179 -189.5t-246.5 -65.5q-133 0 -245.5 65.5t-179 189.5t-66.5 292zM297 520q0 -182 87 -294.5t230 -112.5q144 0 231 112.5t87 294.5t-87 296t-231 114 q-143 0 -230 -114t-87 -296zM324 1186q12 102 57 162.5t123 60.5q35 0 65.5 -16.5t69.5 -46.5q31 -25 50.5 -36.5t37.5 -11.5q63 0 82 111h96q-12 -100 -57 -161.5t-123 -61.5q-37 0 -65.5 16.5t-67.5 48.5q-31 25 -50.5 36t-39.5 11q-63 0 -82 -112h-96z" />
<glyph unicode="&#xf6;" d="M123 520q0 170 66.5 294t179 189.5t245.5 65.5t246 -65.5t179.5 -189.5t66.5 -294q0 -168 -66.5 -292t-179 -189.5t-246.5 -65.5q-133 0 -245.5 65.5t-179 189.5t-66.5 292zM297 520q0 -182 87 -294.5t230 -112.5q144 0 231 112.5t87 294.5t-87 296t-231 114 q-143 0 -230 -114t-87 -296zM307 1317q0 49 31 81t80 32q47 0 79 -33t32 -80t-32 -80t-79 -33q-49 0 -80 32t-31 81zM701 1317q0 47 31.5 80t78.5 33q49 0 80 -32t31 -81t-31 -81t-80 -32q-47 0 -78.5 33t-31.5 80z" />
<glyph unicode="&#xf7;" d="M174 612v127h881v-127h-881zM504 307q0 49 31.5 80t78.5 31t79 -31t32 -80t-30.5 -79.5t-80.5 -30.5q-49 0 -79.5 30.5t-30.5 79.5zM504 1044q0 47 31.5 79t78.5 32t79 -31.5t32 -79.5q0 -49 -31.5 -79.5t-79.5 -30.5q-47 0 -78.5 30.5t-31.5 79.5z" />
<glyph unicode="&#xf8;" d="M123 520q0 170 66.5 294t179 189.5t245.5 65.5q170 0 299 -104l105 129l76 -62l-109 -135q57 -72 89 -168t32 -209q0 -168 -66.5 -292t-179 -189.5t-246.5 -65.5q-170 0 -299 105l-104 -127l-76 61l109 133q-121 152 -121 375zM297 520q0 -143 55 -248l463 578 q-80 84 -201 84q-94 0 -165.5 -52.5t-111.5 -146.5t-40 -215zM412 195q86 -86 202 -86q144 0 231 113.5t87 297.5q0 145 -55 252z" />
<glyph unicode="&#xf9;" d="M158 395v649h170v-626q0 -156 53 -227.5t176 -71.5q84 0 153.5 46t155.5 152v727h168v-1044h-137l-14 184h-9q-82 -100 -172 -155.5t-198 -55.5q-176 0 -261 106.5t-85 315.5zM430 1477h184l185 -303h-129z" />
<glyph unicode="&#xfa;" d="M158 395v649h170v-626q0 -156 53 -227.5t176 -71.5q84 0 153.5 46t155.5 152v727h168v-1044h-137l-14 184h-9q-82 -100 -172 -155.5t-198 -55.5q-176 0 -261 106.5t-85 315.5zM430 1174l185 303h184l-239 -303h-130z" />
<glyph unicode="&#xfb;" d="M158 395v649h170v-626q0 -156 53 -227.5t176 -71.5q84 0 153.5 46t155.5 152v727h168v-1044h-137l-14 184h-9q-82 -100 -172 -155.5t-198 -55.5q-176 0 -261 106.5t-85 315.5zM344 1174l199 303h143l199 -303h-129l-137 202h-8l-138 -202h-129z" />
<glyph unicode="&#xfc;" d="M158 395v649h170v-626q0 -156 53 -227.5t176 -71.5q84 0 153.5 46t155.5 152v727h168v-1044h-137l-14 184h-9q-82 -100 -172 -155.5t-198 -55.5q-176 0 -261 106.5t-85 315.5zM307 1317q0 49 31 81t80 32q47 0 79 -33t32 -80t-32 -80t-79 -33q-49 0 -80 32t-31 81z M701 1317q0 47 31.5 80t78.5 33q49 0 80 -32t31 -81t-31 -81t-80 -32q-47 0 -78.5 33t-31.5 80z" />
<glyph unicode="&#xfd;" d="M100 1044h170l244 -587q23 -51 42 -101.5t40 -97.5q8 -23 18.5 -48.5t22.5 -53.5h8l37 102q33 96 70 199l217 587h159l-436 -1130q-66 -168 -166 -263t-258 -95q-74 0 -131 20l35 133q47 -14 90 -14q100 0 166 59.5t109 167.5l28 74zM450 1174l185 303h184l-239 -303 h-130z" />
<glyph unicode="&#xfe;" d="M190 -420v1772h168v-256l-4 -189q74 76 162 119t174 43q199 0 307.5 -142.5t108.5 -389.5q0 -170 -62.5 -298t-167 -197t-223.5 -69q-72 0 -149.5 37t-147.5 101l2 -199v-332h-168zM358 242q66 -63 137.5 -95t129.5 -32q88 0 157.5 51t109.5 147.5t40 223.5 q0 182 -69.5 286.5t-213.5 104.5q-139 0 -291 -160v-526z" />
<glyph unicode="&#xff;" d="M100 1044h170l244 -587q23 -51 42 -101.5t40 -97.5q8 -23 18.5 -48.5t22.5 -53.5h8l37 102q33 96 70 199l217 587h159l-436 -1130q-66 -168 -166 -263t-258 -95q-74 0 -131 20l35 133q47 -14 90 -14q100 0 166 59.5t109 167.5l28 74zM327 1317q0 49 31 81t80 32 q47 0 79 -33t32 -80t-32 -80t-79 -33q-49 0 -80 32t-31 81zM721 1317q0 47 31.5 80t78.5 33q49 0 80 -32t31 -81t-31 -81t-80 -32q-47 0 -78.5 33t-31.5 80z" />
<glyph unicode="&#x152;" d="M68 682q0 322 144 497t400 175h578v-144h-397v-428h303v-145h-303v-492h417v-145h-604q-252 0 -395 180t-143 502zM244 682q0 -262 88 -402.5t260 -140.5h43v1073h-43q-174 0 -261 -135t-87 -395z" />
<glyph unicode="&#x153;" d="M23 522q0 170 47 294t129 188.5t184 64.5q94 0 166 -66.5t113 -189.5q88 256 272 256q135 0 211 -136t76 -339q0 -68 -7 -113h-493q8 -172 68.5 -272t168.5 -100q47 0 86 16t89 51l59 -110q-125 -92 -240 -93q-96 0 -170.5 63.5t-119.5 182.5q-43 -121 -114 -183.5 t-165 -62.5q-102 0 -184 65.5t-129 189.5t-47 294zM180 522q0 -186 54.5 -298.5t156.5 -112.5q92 0 147.5 114.5t55.5 296.5t-55.5 295t-147.5 113q-102 0 -156.5 -110.5t-54.5 -297.5zM719 596h362q0 152 -37.5 246t-121.5 94q-88 0 -139.5 -90t-63.5 -250z" />
<glyph unicode="&#x178;" d="M78 1352h180l203 -402l67 -139q45 -96 86 -176h9l157 317l195 400h176l-451 -869v-483h-172v483zM338 1575q0 45 27.5 72.5t72.5 27.5q43 0 72 -27.5t29 -72.5q0 -43 -29 -71.5t-72 -28.5q-45 0 -72.5 28.5t-27.5 71.5zM690 1575q0 45 29 72.5t72 27.5q45 0 72.5 -27.5 t27.5 -72.5q0 -43 -27.5 -71.5t-72.5 -28.5q-43 0 -72 28.5t-29 71.5z" />
<glyph unicode="&#x2c6;" d="M344 1174l199 303h143l199 -303h-129l-138 202h-8l-137 -202h-129z" />
<glyph unicode="&#x2dc;" d="M324 1186q12 102 57 162.5t123 60.5q35 0 65.5 -16.5t69.5 -46.5q31 -25 50.5 -36.5t37.5 -11.5q63 0 82 111h96q-12 -100 -57 -161.5t-123 -61.5q-37 0 -65.5 16.5t-67.5 48.5q-31 25 -50.5 36t-39.5 11q-63 0 -82 -112h-96z" />
<glyph unicode="&#x2000;" horiz-adv-x="901" />
<glyph unicode="&#x2001;" horiz-adv-x="1802" />
<glyph unicode="&#x2002;" horiz-adv-x="901" />
<glyph unicode="&#x2003;" horiz-adv-x="1802" />
<glyph unicode="&#x2004;" horiz-adv-x="600" />
<glyph unicode="&#x2005;" horiz-adv-x="450" />
<glyph unicode="&#x2006;" horiz-adv-x="300" />
<glyph unicode="&#x2007;" horiz-adv-x="300" />
<glyph unicode="&#x2008;" horiz-adv-x="225" />
<glyph unicode="&#x2009;" horiz-adv-x="360" />
<glyph unicode="&#x200a;" horiz-adv-x="100" />
<glyph unicode="&#x2010;" d="M174 612v127h881v-127h-881z" />
<glyph unicode="&#x2011;" d="M174 612v127h881v-127h-881z" />
<glyph unicode="&#x2012;" d="M174 612v127h881v-127h-881z" />
<glyph unicode="&#x2013;" d="M164 442v148h901v-148h-901z" />
<glyph unicode="&#x2014;" d="M41 442v148h1147v-148h-1147z" />
<glyph unicode="&#x2018;" d="M428 963q0 152 78 274.5t217 194.5l55 -99q-199 -115 -211 -323q25 12 54 12q63 0 103 -41t40 -107q0 -70 -43 -113.5t-109 -43.5q-82 0 -133 66.5t-51 179.5z" />
<glyph unicode="&#x2019;" d="M444 815q201 111 213 324q-25 -12 -53 -13q-63 0 -104 41t-41 105q0 70 43 115t108 45q82 0 133.5 -67t51.5 -181q0 -152 -78 -274t-215 -193z" />
<glyph unicode="&#x201a;" d="M444 -365q201 111 213 324q-25 -12 -53 -12q-66 0 -105.5 41t-39.5 106q0 70 43 114t108 44q82 0 133.5 -66.5t51.5 -181.5q0 -152 -78 -273.5t-215 -193.5z" />
<glyph unicode="&#x201c;" d="M195 963q0 154 76.5 275.5t215.5 193.5l56 -99q-199 -115 -213 -323q27 12 55 12q63 0 103 -41t40 -107q0 -70 -42 -113.5t-107 -43.5q-82 0 -133 66.5t-51 179.5zM664 963q0 152 77.5 274.5t216.5 194.5l56 -99q-201 -115 -215 -323q29 12 55 12q63 0 104 -41t41 -107 q0 -70 -43 -113.5t-108 -43.5q-82 0 -133 66.5t-51 179.5z" />
<glyph unicode="&#x201d;" d="M211 815q199 113 211 324q-25 -12 -53 -13q-63 0 -103.5 41t-40.5 105q0 70 42 115t108 45q82 0 133 -67t51 -181q0 -154 -76.5 -275t-216.5 -192zM680 815q96 55 150.5 136t60.5 186q-27 -10 -51 -11q-63 0 -104.5 41t-41.5 105q0 70 43 115t109 45q82 0 133 -67 t51 -181q0 -152 -78 -274t-217 -193z" />
<glyph unicode="&#x201e;" d="M211 -365q199 113 211 324q-25 -12 -53 -12q-63 0 -103.5 41t-40.5 106q0 70 42 114t108 44q82 0 133 -66.5t51 -181.5q0 -154 -76.5 -274.5t-216.5 -192.5zM680 -365q96 55 150.5 136.5t60.5 185.5q-27 -10 -51 -10q-66 0 -106 41t-40 106q0 70 43 114t109 44 q82 0 133 -66.5t51 -181.5q0 -152 -78 -273.5t-217 -193.5z" />
<glyph unicode="&#x2022;" d="M309 537q0 88 42 156.5t111.5 106.5t151.5 38t152 -38t112 -106.5t42 -156.5t-42 -157t-112 -106.5t-152 -37.5t-151.5 37.5t-111.5 106.5t-42 157z" />
<glyph unicode="&#x2026;" d="M66 129q0 68 40.5 111t102.5 43q59 0 100 -43t41 -111t-41 -111t-100 -43q-62 0 -102.5 43t-40.5 111zM471 129q0 68 41 111t102 43t102.5 -43t41.5 -111t-41 -111t-103 -43q-61 0 -102 43t-41 111zM879 129q0 68 41 111t100 43q61 0 102 -43t41 -111t-41 -111t-102 -43 q-59 0 -100 43t-41 111z" />
<glyph unicode="&#x202f;" horiz-adv-x="360" />
<glyph unicode="&#x2039;" d="M403 434v164l314 328l80 -72l-260 -338l260 -340l-80 -70z" />
<glyph unicode="&#x203a;" d="M432 176l260 340l-260 338l80 72l313 -328v-164l-313 -328z" />
<glyph unicode="&#x205f;" horiz-adv-x="450" />
<glyph unicode="&#x20ac;" d="M119 481v88l121 9q-2 25 -2 73q0 45 2 66h-121v90l131 10q39 242 183.5 378t361.5 136q100 0 190 -44t156 -116l-101 -96q-57 57 -117.5 89t-134.5 32q-150 0 -242.5 -100.5t-121.5 -278.5h602v-100h-612q-2 -18 -2 -60q0 -53 2 -77h530v-99h-518q29 -176 120 -273 t230 -97q84 0 151.5 35.5t131.5 109.5l100 -90q-80 -94 -176 -142.5t-217 -48.5q-201 0 -339 134.5t-177 371.5h-131z" />
<glyph unicode="&#x2122;" d="M-10 1274v110h516v-110h-197v-524h-123v524h-196zM598 750v634h145l93 -233l55 -164h8l53 164l90 233h146v-634h-113v280l15 215h-9l-145 -383h-86l-148 383h-8l15 -215v-280h-111z" />
<glyph unicode="&#x25fc;" horiz-adv-x="1044" d="M0 0v1044h1044v-1044h-1044z" />
</font>
</defs>
</svg>
