<?xml version="1.0" standalone="no"?>
<!DOCTYPE svg PUBLIC "-//W3C//DTD SVG 1.1//EN" "http://www.w3.org/Graphics/SVG/1.1/DTD/svg11.dtd" >
<svg xmlns="http://www.w3.org/2000/svg" xmlns:xlink="http://www.w3.org/1999/xlink" version="1.1">
<metadata></metadata>
<defs>
<font id="office_code_promedium" horiz-adv-x="1228" >
<font-face units-per-em="2048" ascent="1536" descent="-512" />
<missing-glyph horiz-adv-x="500" />
<glyph horiz-adv-x="0" />
<glyph horiz-adv-x="682" />
<glyph unicode=" " />
<glyph unicode="!" d="M438 160q0 80 50.5 130t125.5 50q76 0 127.5 -50t51.5 -130q0 -82 -51.5 -133.5t-127.5 -51.5q-75 0 -125.5 51.5t-50.5 133.5zM489 1372h254l-36 -852h-183z" />
<glyph unicode="&#x22;" d="M217 1405h287l-6 -236l-62 -426h-149l-62 426zM725 1405h287l-6 -236l-62 -426h-149l-64 426z" />
<glyph unicode="#" d="M162 401v154h174l35 264h-168v156h186l45 356h141l-45 -356h242l47 356h139l-43 -356h164v-156h-182l-33 -264h174v-154h-192l-49 -401h-142l47 401h-241l-47 -401h-144l47 401h-155zM479 555h242l33 264h-242z" />
<glyph unicode="$" d="M154 233l104 162q125 -78 223 -108l58 317q-160 59 -250 133t-90 201q0 111 63.5 186.5t169 111.5t230.5 30l51 272l147 -18l-53 -281q125 -39 225 -139l-119 -135q-92 63 -141 82l-55 -287q164 -59 260 -136t96 -210q0 -106 -63.5 -186.5t-174 -121t-245.5 -34.5 l-58 -305l-145 16l57 309q-172 45 -290 141zM424 942q0 -41 39 -71.5t115 -59.5l49 262l-29 2q-76 0 -125 -35.5t-49 -97.5zM625 262l30 -2q84 0 137.5 36t53.5 101q0 49 -43 85t-125 69z" />
<glyph unicode="%" d="M47 182l379 371l86 -80l-338 -412zM51 991q0 156 83 247t212 91q131 0 213 -91t82 -247t-83 -249t-212 -93t-212 93.5t-83 248.5zM219 991q0 -106 36 -159.5t91 -53.5t92 53.5t37 159.5q0 109 -36 157t-93 48t-92 -48t-35 -157zM588 322q0 156 83 245.5t212 89.5 q131 0 213 -90t82 -245q0 -158 -83 -252.5t-212 -94.5t-212 94.5t-83 252.5zM721 866l338 412l125 -121l-377 -371zM756 322q0 -109 35.5 -161t91.5 -52q57 0 93 52t36 161q0 106 -36 155t-93 49t-92 -49t-35 -155z" />
<glyph unicode="&#x26;" d="M68 356q0 123 62.5 211t170.5 168q-88 166 -88 305q0 143 86 239.5t225 96.5q137 0 214 -77.5t77 -208.5q0 -80 -37 -146.5t-90 -118t-143 -123.5q113 -166 282 -311q94 147 142 354h215q-72 -270 -201 -471q115 -84 209 -106l-59 -193q-137 37 -283 144 q-160 -143 -369 -144q-125 0 -219 50.5t-144 137.5t-50 193zM291 371q0 -94 62.5 -153.5t158.5 -59.5q94 0 182 78q-174 158 -297 342q-106 -102 -106 -207zM410 1042q0 -88 49 -196q84 59 128 116.5t44 127.5q0 127 -103 127q-55 0 -86.5 -48.5t-31.5 -126.5z" />
<glyph unicode="'" d="M471 1405h287l-6 -236l-62 -426h-149l-62 426z" />
<glyph unicode="(" d="M399 569q0 287 117 521.5t330 412.5l129 -110q-195 -176 -285 -375t-90 -449t90 -448.5t285 -374.5l-129 -111q-213 177 -330 413.5t-117 520.5z" />
<glyph unicode=")" d="M254 -254q195 174 285 372.5t90 450.5t-90 451t-285 373l131 110q213 -178 329.5 -413.5t116.5 -520.5t-116.5 -520t-329.5 -414z" />
<glyph unicode="*" d="M152 754l41 120l335 -100l23 375h129l20 -375l338 100l39 -120l-321 -142l209 -329l-109 -76l-242 309l-241 -309l-109 76l211 329z" />
<glyph unicode="+" d="M160 592v170h366v387h179v-387h366v-170h-366v-389h-179v389h-366z" />
<glyph unicode="," d="M389 -299q129 51 194.5 129t67.5 188q-20 -4 -30 -4q-80 0 -135.5 48.5t-55.5 134.5q0 82 56.5 132t140.5 50q106 0 162.5 -81t56.5 -226q0 -186 -102.5 -317.5t-292.5 -194.5z" />
<glyph unicode="-" d="M160 592v170h911v-170h-911z" />
<glyph unicode="." d="M414 182q0 90 56 148.5t144 58.5t145.5 -58.5t57.5 -148.5t-57.5 -148.5t-145.5 -58.5t-144 58.5t-56 148.5z" />
<glyph unicode="/" d="M76 -76l876 1530h203l-879 -1530h-200z" />
<glyph unicode="0" d="M131 680q0 336 129 516t354 180q227 0 356.5 -179t129.5 -517q0 -223 -59.5 -382t-168 -241t-258.5 -82q-147 0 -255.5 82t-168 241t-59.5 382zM344 680q0 -129 21 -242l428 662q-68 92 -179 92q-125 0 -197.5 -123t-72.5 -389zM432 264q70 -104 182 -104q125 0 199 128 t74 392q0 152 -25 250z" />
<glyph unicode="1" d="M184 0v193h355v903h-275v147q190 29 336 109h172v-1159h320v-193h-908z" />
<glyph unicode="2" d="M123 1167q102 104 206.5 156.5t241.5 52.5q201 0 322 -112.5t121 -298.5q0 -115 -67.5 -237t-181.5 -248t-292 -294q182 14 240 15h370v-201h-948v137q240 217 372 350.5t206.5 249t74.5 215.5q0 111 -63 174.5t-184 63.5q-145 0 -289 -152z" />
<glyph unicode="3" d="M102 166l113 151q154 -150 346 -149q123 0 201 56.5t78 150.5q0 115 -101.5 176t-332.5 61v172q203 0 296 59.5t93 162.5q0 86 -62.5 135t-167.5 49q-154 0 -299 -129l-121 145q195 170 430 170q203 0 329 -94t126 -260q0 -111 -69.5 -188.5t-192.5 -122.5v-11 q135 -33 221 -119.5t86 -215.5q0 -119 -66.5 -207t-180 -135.5t-248.5 -47.5q-158 0 -278 52.5t-200 138.5z" />
<glyph unicode="4" d="M76 352v160l432 840h240l-433 -817h412v352h219v-352h184v-183h-184v-352h-219v352h-651z" />
<glyph unicode="5" d="M104 162l111 151q74 -68 154 -106.5t184 -38.5q127 0 209 71.5t82 194.5q0 121 -76 189.5t-203 68.5q-70 0 -120 -16.5t-123 -59.5l-111 72l39 664h768v-199h-563l-29 -338q53 25 100 36t107 11q195 0 320.5 -107.5t125.5 -314.5q0 -143 -68.5 -248.5t-182 -161 t-244.5 -55.5q-160 0 -274.5 50.5t-205.5 136.5z" />
<glyph unicode="6" d="M141 635q0 250 76 417t202 245.5t275 78.5q121 0 220.5 -42t168.5 -109l-125 -142q-47 45 -112.5 73t-132.5 28q-152 0 -249 -122t-106 -390q74 76 165 120t177 44q184 0 295 -107.5t111 -310.5q0 -131 -61.5 -231.5t-166 -156t-225.5 -55.5q-141 0 -257.5 73 t-185.5 221.5t-69 365.5zM367 504q18 -174 94 -261t190 -87q101 0 169.5 70.5t68.5 191.5t-61.5 183.5t-174.5 62.5q-72 0 -145.5 -38t-140.5 -122z" />
<glyph unicode="7" d="M135 1153v199h963v-144q-168 -197 -256 -369.5t-125 -364t-47 -474.5h-240q12 250 54 438.5t126 358.5t230 356h-705z" />
<glyph unicode="8" d="M133 346q0 121 71.5 204t190.5 144v8q-195 133 -194 316q0 109 54 189.5t150.5 124.5t219.5 44q193 0 304 -99t111 -263q0 -90 -53 -170t-139 -142v-8q121 -63 185.5 -143t64.5 -209q0 -104 -57.5 -187t-166 -131.5t-258.5 -48.5q-147 0 -256.5 47.5t-168 131.5 t-58.5 192zM340 371q0 -102 78 -165t205 -63q118 0 186 55.5t68 151.5q0 70 -38 115t-98.5 74.5t-179.5 72.5l-47 19q-82 -53 -128 -116.5t-46 -143.5zM410 1018q0 -96 74.5 -151.5t228.5 -106.5q131 108 131 239q0 92 -59.5 151.5t-166.5 59.5q-92 0 -150 -52t-58 -140z " />
<glyph unicode="9" d="M123 936q0 129 61.5 229.5t165 155.5t223.5 55q143 0 260 -72.5t185.5 -220t68.5 -364.5q0 -252 -75.5 -419t-201.5 -246t-275 -79q-121 0 -219.5 41t-170.5 109l127 145q45 -47 111 -74.5t133 -27.5q152 0 249 122t105 390q-76 -76 -166 -119t-176 -43 q-184 0 -294.5 106.5t-110.5 311.5zM340 936q0 -123 61.5 -185.5t176.5 -62.5q69 0 143 39t143 121q-23 176 -97.5 263t-188.5 87q-100 0 -169 -70.5t-69 -191.5z" />
<glyph unicode=":" d="M414 182q0 90 56 148.5t144 58.5t145.5 -58.5t57.5 -148.5t-57.5 -148.5t-145.5 -58.5t-144 58.5t-56 148.5zM414 881q0 90 56 148t144 58t145.5 -58t57.5 -148t-57.5 -148.5t-145.5 -58.5t-144 58.5t-56 148.5z" />
<glyph unicode=";" d="M389 -299q129 51 194.5 129t67.5 188q-20 -4 -30 -4q-80 0 -135.5 48.5t-55.5 134.5q0 82 56.5 132t140.5 50q106 0 162.5 -81t56.5 -226q0 -186 -102.5 -317.5t-292.5 -194.5zM414 881q0 90 56 148t144 58t145.5 -58t57.5 -148t-57.5 -148.5t-145.5 -58.5t-144 58.5 t-56 148.5z" />
<glyph unicode="&#x3c;" d="M242 553v168l778 575v-237l-580 -418v-8l580 -420v-238z" />
<glyph unicode="=" d="M160 362v170h911v-170h-911zM160 821v168h911v-168h-911z" />
<glyph unicode="&#x3e;" d="M211 -25v238l580 420v8l-580 418v237l776 -575v-168z" />
<glyph unicode="?" d="M213 1223q74 80 173 127t214 47q178 0 288.5 -86t110.5 -240q0 -84 -43 -145.5t-125 -132.5q-80 -74 -117.5 -126.5t-37.5 -125.5q0 -20 2 -31h-207q-4 37 -4 51q0 88 45 151.5t131 141.5q66 59 97.5 100t31.5 88q0 74 -50 119t-138 45q-125 0 -238 -106zM410 160 q0 80 50 130t126 50t127 -50t51 -130q0 -82 -51 -133.5t-127 -51.5t-126 51.5t-50 133.5z" />
<glyph unicode="@" d="M82 655q0 233 82 393t222 238t314 78q207 0 314.5 -122t107.5 -310v-586h-131l-18 111h-8q-43 -59 -112 -97t-146 -38q-113 0 -188 77.5t-75 198.5q0 154 132.5 235.5t394.5 116.5v17q0 106 -72 178t-207 72q-115 0 -216 -61.5t-163.5 -189.5t-62.5 -317 q0 -172 61.5 -296t165 -186.5t228.5 -62.5q88 0 152.5 20.5t127.5 63.5l72 -120q-88 -55 -174 -84t-187 -29q-168 0 -307 80t-223 238.5t-84 381.5zM623 602q0 -57 35.5 -91t99.5 -34q96 1 190 105v221q-176 -27 -250.5 -73t-74.5 -128z" />
<glyph unicode="A" d="M43 0l434 1352h277l434 -1352h-250l-104 369h-445l-106 -369h-240zM440 555h342l-47 168q-57 203 -121 444h-8q-51 -209 -119 -444z" />
<glyph unicode="B" d="M193 0v1352h393q475 0 475 -332q0 -100 -60.5 -182t-173.5 -113v-8q301 -51 301 -320q0 -195 -139 -296t-368 -101h-428zM428 184h168q301 0 301 228q0 109 -74.5 159t-226.5 50h-168v-437zM428 791h135q266 0 266 200q0 92 -63.5 134t-196.5 42h-141v-376z" />
<glyph unicode="C" d="M125 672q0 217 80 375.5t220 243.5t318 85q117 0 214.5 -47t166.5 -121l-131 -147q-110 110 -248 110h-2q-111 0 -196.5 -59t-132.5 -171t-47 -261q0 -152 48 -265.5t134 -174t201 -60.5q78 0 143 35t125 100l133 -143q-168 -197 -416 -197q-172 0 -311 82t-219 240 t-80 375z" />
<glyph unicode="D" d="M154 0v1352h346q301 0 467 -170t166 -500t-165 -506t-456 -176h-358zM391 193h94q197 0 300.5 121.5t103.5 367.5q0 479 -404 479h-94v-968z" />
<glyph unicode="E" d="M215 0v1352h854v-199h-618v-350h524v-199h-524v-403h639v-201h-875z" />
<glyph unicode="F" d="M250 0v1352h850v-199h-615v-387h523v-199h-523v-567h-235z" />
<glyph unicode="G" d="M100 672q0 217 78 376.5t216 243.5t313 84q217 0 380 -168l-131 -147q-51 53 -109.5 81.5t-139.5 28.5q-106 0 -188.5 -59t-128.5 -171t-46 -261q0 -236 95.5 -368t271.5 -132q55 0 103 16.5t79 45.5v295h-231v194h444v-596q-72 -70 -179.5 -115t-230.5 -45 q-172 0 -307 82t-212 240t-77 375z" />
<glyph unicode="H" d="M147 0v1352h236v-545h463v545h237v-1352h-237v602h-463v-602h-236z" />
<glyph unicode="I" d="M174 0v201h322v952h-322v199h883v-199h-324v-952h324v-201h-883z" />
<glyph unicode="J" d="M143 201l144 143q57 -80 125.5 -122t142.5 -42q127 0 185.5 66.5t58.5 218.5v690h-543v199h778v-908q0 -211 -111.5 -341t-359.5 -130q-121 0 -233.5 55.5t-186.5 170.5z" />
<glyph unicode="K" d="M170 0v1352h240v-617h6l479 617h262l-412 -527l457 -825h-262l-336 639l-194 -242v-397h-240z" />
<glyph unicode="L" d="M248 0v1352h233v-1151h631v-201h-864z" />
<glyph unicode="M" horiz-adv-x="1300" d="M145 0v1352h252l187 -529l65 -202h8l62 202l186 529h252v-1352h-201v608q0 88 10.5 244t20.5 266h-8l-102 -330l-170 -423h-115l-172 423l-103 330h-6q31 -381 31 -510v-608h-197z" />
<glyph unicode="N" d="M154 0v1352h239l361 -766l125 -287h6l-13 137q-20 213 -20 322v594h225v-1352h-241l-359 768l-125 285h-6l12 -148q20 -205 21 -307v-598h-225z" />
<glyph unicode="O" d="M88 682q0 215 66.5 371.5t185.5 239.5t274 83q156 0 275 -83t185.5 -239.5t66.5 -371.5t-66.5 -375t-185.5 -246t-275 -86q-153 0 -273 86t-186.5 246t-66.5 375zM332 682q0 -229 76.5 -365.5t205.5 -136.5t207 136.5t78 365.5q0 227 -78 358t-207 131t-205.5 -131 t-76.5 -358z" />
<glyph unicode="P" d="M180 0v1352h451q508 0 508 -416q0 -215 -140.5 -325.5t-367.5 -110.5h-215v-500h-236zM416 688h194q150 0 222.5 61.5t72.5 186.5t-71.5 176t-223.5 51h-194v-475z" />
<glyph unicode="Q" d="M88 682q0 215 65.5 372.5t183.5 240.5t273 83q156 0 273.5 -84t183.5 -240.5t66 -371.5q0 -272 -103.5 -454.5t-281.5 -233.5q33 -78 103.5 -116t162.5 -38q51 0 104 25l43 -182q-76 -35 -174 -35q-180 0 -305 92t-184 248q-188 43 -299 227t-111 467zM330 682 q0 -229 75.5 -365.5t204.5 -136.5t205 137.5t76 364.5t-76 359.5t-205 132.5q-131 0 -205.5 -131.5t-74.5 -360.5z" />
<glyph unicode="R" d="M174 0v1352h447q225 0 358 -93.5t133 -306.5q0 -150 -70.5 -246t-197.5 -139l321 -567h-266l-291 530h-198v-530h-236zM410 721h186q139 0 211 58.5t72 172.5q0 115 -70 163t-213 48h-186v-442z" />
<glyph unicode="S" d="M121 174l137 162q78 -72 173 -114t192 -42q123 0 186 47t63 131q0 53 -26.5 88t-68.5 56.5t-128 56.5l-182 80q-125 49 -207 136t-82 222q0 106 59.5 193.5t166 136.5t239.5 49q123 0 234.5 -45t195.5 -127l-123 -149q-72 57 -144.5 86.5t-162.5 29.5q-104 0 -164.5 -43 t-60.5 -118q0 -49 29.5 -83t70.5 -53.5t129 -56.5l176 -76q141 -57 216 -142t75 -222q0 -111 -59.5 -203t-172 -145.5t-264.5 -53.5q-141 0 -270 51.5t-227 147.5z" />
<glyph unicode="T" d="M76 1153v199h1079v-199h-422v-1153h-237v1153h-420z" />
<glyph unicode="U" d="M147 516v836h236v-852q0 -162 61.5 -241t173.5 -79q111 0 173.5 79t62.5 241v852h229v-836q0 -272 -119.5 -406.5t-345.5 -134.5q-227 0 -349 134.5t-122 406.5z" />
<glyph unicode="V" d="M59 1352h250l191 -682q16 -57 53 -203q10 -41 25.5 -100.5t37.5 -137.5h9q29 104 65 244l53 197l187 682h239l-413 -1352h-281z" />
<glyph unicode="W" d="M14 1354h240l76 -787q2 -53 6 -122.5t6 -106.5l6 -111h6l39 170q10 41 39 170l117 439h151l115 -439q12 -59 41 -182l37 -158h8l19 340l71 787h223l-182 -1354h-252l-118 500q-31 154 -44 250h-6q-25 -158 -45 -250l-112 -500h-248z" />
<glyph unicode="X" d="M74 0l395 696l-371 656h264l158 -301l107 -207h8q63 150 92 207l152 301h251l-370 -666l395 -686h-262l-174 322q-37 68 -113 219h-8q-45 -104 -102 -217l-170 -324h-252z" />
<glyph unicode="Y" d="M55 1352h252l170 -365l41 -94q49 -113 96 -217h9q12 29 94 209l47 104l164 363h246l-441 -881v-471h-237v471z" />
<glyph unicode="Z" d="M125 0v143l688 1012h-627v199h918v-144l-690 -1009h698v-201h-987z" />
<glyph unicode="[" d="M438 -311v1761h584v-129h-404v-1503h404v-129h-584z" />
<glyph unicode="\" d="M76 1454h200l879 -1530h-203z" />
<glyph unicode="]" d="M209 -182h401v1503h-401v129h586v-1761h-586v129z" />
<glyph unicode="^" d="M203 571l315 801h195l315 -801h-199l-114 312l-97 274h-8l-96 -274l-115 -312h-196z" />
<glyph unicode="_" d="M123 -127h983v-184h-983v184z" />
<glyph unicode="`" d="M336 1497h246l184 -321h-174z" />
<glyph unicode="a" d="M145 279q0 119 71 197.5t223.5 124.5t402.5 67q-6 98 -64.5 155.5t-177.5 57.5q-80 0 -153.5 -32t-133.5 -81l-86 156q72 61 183.5 104t234.5 43q209 0 319.5 -116.5t110.5 -331.5v-623h-190l-19 131h-8q-201 -158 -377 -158q-147 0 -241.5 85t-94.5 221zM373 297 q0 -70 50 -103.5t130 -33.5q142 0 289 131v229q-258 -18 -363.5 -73.5t-105.5 -149.5z" />
<glyph unicode="b" d="M170 0v1485h233v-371l-6 -186q68 68 150 105.5t162 37.5q193 0 302 -143.5t109 -386.5q0 -172 -61.5 -301t-163.5 -198t-221 -69q-70 0 -147.5 38t-145.5 106h-6l-21 -117h-184zM403 268q53 -51 112.5 -75.5t111.5 -24.5q110 0 181 97t71 272q0 164 -57.5 252t-176.5 88 t-242 -132v-477z" />
<glyph unicode="c" d="M152 522q0 168 77.5 293t207.5 190.5t286 65.5q113 0 208 -41t163 -108l-111 -148q-119 104 -250 105q-152 0 -246 -98.5t-94 -258.5t92.5 -258t241.5 -98q145 0 289 117l98 -150q-88 -76 -193.5 -118t-213.5 -42q-160 0 -286 65.5t-197.5 189.5t-71.5 294z" />
<glyph unicode="d" d="M111 522q0 164 61 289t163.5 192.5t217.5 67.5q84 0 148.5 -31.5t132.5 -95.5l-9 180v361h236v-1485h-193l-18 125h-6q-66 -68 -144.5 -110t-158.5 -42q-197 0 -313.5 145.5t-116.5 403.5zM352 524q0 -172 63.5 -264t180.5 -92q125 0 229 131v479q-98 98 -215 99 q-72 0 -130 -43t-93 -123t-35 -187z" />
<glyph unicode="e" d="M127 522q0 164 72.5 289t192.5 192.5t253 67.5q145 0 250.5 -62.5t160 -175t54.5 -258.5q0 -49 -10 -116h-731q10 -141 104 -221t234 -80q143 0 282 86l80 -148q-86 -55 -187.5 -89t-205.5 -34q-154 0 -279 66.5t-197.5 190.5t-72.5 292zM367 621h528q0 127 -63.5 197.5 t-182.5 70.5q-104 0 -184 -70.5t-98 -197.5z" />
<glyph unicode="f" d="M190 858v174l277 12v41q0 195 106.5 309.5t321.5 114.5q152 0 297 -59l-49 -174q-96 47 -221 47q-221 0 -222 -233v-46h383v-186h-383v-858h-233v858h-277z" />
<glyph unicode="g" d="M111 539q0 158 61 278.5t163.5 187t221.5 66.5q164 0 291 -139h8l18 112h187v-1044q0 -219 -128 -337t-370 -118q-104 0 -207.5 37t-187.5 123l90 154q127 -129 305 -129q127 0 197.5 66.5t73.5 187.5l4 170q-57 -59 -138.5 -97.5t-160.5 -38.5q-127 0 -224.5 64.5 t-150.5 182.5t-53 274zM348 543q0 -154 67.5 -244t180.5 -90q123 0 229 133v436q-98 98 -219 99q-68 0 -127 -42t-95 -118t-36 -174z" />
<glyph unicode="h" d="M170 0v1485h233v-371l-12 -227q80 86 167 135t194 49q170 0 254 -108.5t84 -315.5v-647h-236v616q0 131 -44 192.5t-144 61.5q-72 0 -129.5 -35.5t-133.5 -119.5v-715h-233z" />
<glyph unicode="i" d="M166 0v193h366v665h-366v186h602v-851h367v-193h-969zM459 1395q0 78 50 127t124 49q76 0 125 -49t49 -127t-49.5 -125t-124.5 -47q-76 0 -125 47t-49 125z" />
<glyph unicode="j" d="M100 -375l72 170q109 -53 217 -53q121 0 170 67.5t49 188.5v860h-434v186h670v-1032q0 -213 -101.5 -334.5t-343.5 -121.5h-4q-154 0 -295 69zM537 1411q0 78 50 127t124 49q76 0 125 -49t49 -127t-49.5 -125t-124.5 -47q-76 0 -125 47t-49 125z" />
<glyph unicode="k" d="M186 0v1485h236v-934h8l455 493h260l-391 -419l434 -625h-258l-316 481l-192 -207v-274h-236z" />
<glyph unicode="l" d="M147 1298v187h551v-1123q0 -100 49.5 -148t131.5 -48q76 0 174 43l55 -174q-94 -33 -151.5 -47.5t-135.5 -14.5q-174 0 -265 104.5t-91 299.5v921h-318z" />
<glyph unicode="m" d="M98 0v1044h178l19 -135h8q35 78 87 120t132 42q147 0 185 -176q82 176 229 176q104 0 162.5 -87t58.5 -243v-741h-223v723q0 74 -19.5 110.5t-62.5 36.5q-41 0 -71.5 -32.5t-61.5 -102.5v-735h-182v723q0 147 -86 147q-39 0 -69 -32.5t-60 -102.5v-735h-224z" />
<glyph unicode="n" d="M170 0v1044h192l19 -161h8q82 88 169 138t194 50q170 0 254 -108.5t84 -315.5v-647h-236v616q0 131 -44 192.5t-144 61.5q-72 0 -129.5 -35.5t-133.5 -119.5v-715h-233z" />
<glyph unicode="o" d="M111 522q0 168 69.5 293t184 190.5t249.5 65.5t251 -65.5t185.5 -190.5t69.5 -293t-69.5 -293t-185 -190.5t-251.5 -65.5q-135 0 -249.5 65.5t-184 190.5t-69.5 293zM352 522q0 -162 70 -259t192 -97q123 0 194 96t71 260q0 162 -71 259.5t-194 97.5q-121 0 -191.5 -97.5 t-70.5 -259.5z" />
<glyph unicode="p" d="M170 -420v1464h192l19 -120h6q68 66 154 106.5t170 40.5q193 0 301 -143.5t108 -388.5q0 -172 -61.5 -300t-163.5 -197t-221 -69q-70 0 -142.5 34t-134.5 93l6 -186v-334h-233zM403 268q53 -51 112.5 -75.5t109.5 -24.5q112 0 183 97t71 272q0 164 -57.5 252t-176.5 88 t-242 -132v-477z" />
<glyph unicode="q" d="M111 522q0 164 61 289t163.5 192.5t217.5 67.5q88 0 157.5 -33.5t137.5 -105.5h8l18 112h187v-1466h-236v361l11 178q-63 -63 -140.5 -103.5t-154.5 -40.5q-197 0 -313.5 145.5t-116.5 403.5zM352 524q0 -172 63.5 -264t180.5 -92q125 0 229 131v479q-98 98 -215 99 q-72 0 -130 -43t-93 -123t-35 -187z" />
<glyph unicode="r" d="M268 0v1044h193l20 -239h6q78 129 188.5 197.5t239.5 68.5q59 0 103.5 -10t93.5 -33l-51 -199q-53 18 -90 25.5t-92 7.5q-109 0 -205 -66.5t-170 -211.5v-584h-236z" />
<glyph unicode="s" d="M129 137l109 150q90 -66 184 -99.5t205 -33.5q115 0 173 34.5t58 94.5q0 53 -70.5 94t-228.5 84q-164 43 -267.5 116.5t-103.5 182.5q0 139 119 225t326 86q115 0 223.5 -39t194.5 -98l-109 -146q-154 104 -307 105q-211 0 -211 -121q0 -53 70.5 -89t212.5 -73 q193 -51 289 -122.5t96 -190.5q0 -90 -55.5 -164t-162 -117t-253.5 -43q-134 0 -262 46.5t-230 117.5z" />
<glyph unicode="t" d="M121 858v186h278v308l226 112v-420h458v-186h-458v-440q0 -133 53 -194.5t178 -61.5q111 0 221 43l45 -170q-180 -61 -321 -62q-219 0 -315.5 117t-96.5 328v440h-268z" />
<glyph unicode="u" d="M143 397v647h236v-616q0 -131 43 -191.5t145 -60.5q70 0 128.5 37t125.5 125v706h234v-1044h-191l-18 168h-8q-78 -94 -164 -144.5t-193 -50.5q-338 0 -338 424z" />
<glyph unicode="v" d="M84 1044h238l194 -548q18 -55 82 -248l20 -66h9l37 117q29 98 61 197l195 548h225l-391 -1044h-269z" />
<glyph unicode="w" d="M12 1044h234l92 -550q16 -94 24 -181l17 -118h8q20 137 53 299l92 456h177l96 -456q16 -82 39 -207l16 -92h8q8 51 21 149q14 106 20 150l90 550h218l-187 -1044h-276l-88 451l-37 241l-11 64h-8q-8 -47 -10 -80q-6 -35 -15.5 -101.5t-19.5 -123.5l-86 -451h-270z" />
<glyph unicode="x" d="M104 0l365 543l-340 501h256l131 -202q45 -76 88 -140q6 -12 23 -36h8l98 178l121 200h246l-342 -524l366 -520h-254l-145 213l-125 184h-8l-62 -104l-47 -80l-131 -213h-248z" />
<glyph unicode="y" d="M82 1044h235l207 -522q43 -111 113 -307h8q47 150 98 307l185 522h221l-420 -1112q-70 -186 -173 -281t-275 -95q-78 0 -144 20l45 180q41 -12 84 -12q90 0 147.5 52t90.5 134l31 80z" />
<glyph unicode="z" d="M145 0v127l607 731h-537v186h866v-124l-608 -734h627v-186h-955z" />
<glyph unicode="{" d="M231 500v141q111 0 195 27.5t130 68.5t46 80q0 41 -10 73t-37 93q-27 53 -40 95t-13 91q0 141 70.5 215t211.5 74q27 0 97 -8l141 -20v-130l-94 21q-41 10 -88 10q-80 0 -112 -45t-32 -129q0 -37 10.5 -68.5t34.5 -89.5q23 -55 35 -93t12 -81q0 -100 -79.5 -165.5 t-196.5 -86.5v-8q119 -20 197.5 -84.5t78.5 -167.5q0 -45 -11 -80.5t-36 -93.5q-23 -53 -34 -86t-11 -71q0 -84 32 -129.5t112 -45.5q47 0 88 11l94 20v-129l-141 -20q-70 -8 -97 -8q-141 0 -211.5 73.5t-70.5 214.5q0 51 13 92t40 97q25 57 36 90t11 76q0 39 -46 78.5 t-130 67.5t-195 30z" />
<glyph unicode="|" d="M510 -512v2048h209v-2048h-209z" />
<glyph unicode="}" d="M209 -162l94 -20q41 -10 86 -11q80 0 113 45.5t33 129.5q0 39 -11.5 71.5t-34.5 85.5q-25 57 -36 93t-11 81q0 102 79 167t198 85v8q-117 20 -197 86t-80 166q0 43 12.5 81t34.5 93q25 57 35.5 89t10.5 69q0 84 -33 129t-113 45q-45 0 -86 -10l-94 -21v130l141 20 q70 8 96 8q141 0 212 -73.5t71 -215.5q0 -49 -13.5 -91t-39.5 -95q-25 -55 -37 -90t-12 -76q0 -39 46 -80t131 -68.5t195 -27.5v-141q-111 -2 -195.5 -30t-130.5 -68t-46 -78q0 -43 12 -78t37 -88q27 -55 40 -96.5t13 -92.5q0 -141 -70.5 -214.5t-212.5 -73.5q-27 0 -96 8 l-141 20v129z" />
<glyph unicode="~" d="M131 567q109 276 307 277q59 0 107.5 -24.5t105.5 -69.5q47 -35 79 -52.5t67 -17.5q100 0 157 172l144 -68q-55 -143 -134 -208.5t-171 -65.5q-59 0 -107.5 24.5t-105.5 69.5q-47 35 -79 52.5t-67 17.5q-100 0 -158 -172z" />
<glyph unicode="&#xa0;" />
<glyph unicode="&#xa1;" d="M438 846q0 82 50.5 133t125.5 51q76 0 127.5 -51t51.5 -133q0 -80 -51.5 -130t-127.5 -50q-75 0 -125.5 50t-50.5 130zM489 -367l35 854h183l36 -854h-254z" />
<glyph unicode="&#xa2;" d="M215 633q0 207 119 339t307 161v206h135v-200q154 -10 260 -117l-108 -145q-76 66 -152 71v-631q92 10 180 84l99 -149q-59 -53 -132 -85t-147 -40v-203h-135v205q-197 23 -311.5 156t-114.5 348zM444 633q0 -115 51.5 -194t145.5 -107v600q-94 -29 -145.5 -108 t-51.5 -191z" />
<glyph unicode="&#xa3;" d="M150 0v145q117 49 182 138.5t65 201.5q0 45 -12 84h-233v142l186 10q-27 76 -39 120t-12 89q0 182 124 290.5t324 108.5q225 0 371 -160l-131 -131q-47 49 -99.5 74t-121.5 25q-117 0 -180.5 -57.5t-63.5 -159.5q0 -45 10 -89.5t33 -109.5h367v-152h-326q8 -53 8 -86 q0 -88 -31.5 -151.5t-101.5 -122.5v-8h639v-201h-958z" />
<glyph unicode="&#xa4;" d="M96 272l170 170q-72 96 -71 234q0 137 69 231l-168 172l121 121l180 -184q98 63 217 63q117 0 220 -63l180 184l119 -121l-168 -172q72 -98 71 -231q0 -129 -73 -234l170 -170l-119 -122l-183 184q-98 -63 -217 -64q-115 0 -217 64l-180 -184zM406 676q0 -104 60 -171 t148 -67q91 0 150 65.5t59 172.5q0 104 -60.5 170.5t-148.5 66.5t-148 -66.5t-60 -170.5z" />
<glyph unicode="&#xa5;" d="M86 1305h242l157 -312q16 -33 45 -98q53 -115 84 -174h9l129 272l157 312h234l-357 -629h306v-119h-361v-123h361v-121h-361v-313h-235v313h-359v121h359v123h-359v119h305z" />
<glyph unicode="&#xa6;" d="M510 428h209v-940h-209v940zM510 618v918h209v-918h-209z" />
<glyph unicode="&#xa7;" d="M166 686q0 80 48 149.5t130 114.5q-61 68 -61 168q0 125 89 207t246 82q193 0 353 -125l-111 -147q-123 96 -229 96q-68 0 -102.5 -28.5t-34.5 -76.5q0 -51 51 -85.5t160 -82.5q115 -51 185.5 -92t121.5 -111.5t51 -172.5q0 -90 -45 -155t-133 -114q53 -70 53 -161 q0 -133 -97.5 -218.5t-262.5 -85.5q-115 0 -216.5 41t-166.5 119l137 123q111 -106 246 -106q70 0 109.5 32.5t39.5 81.5q0 55 -51 91t-160 83t-179.5 88t-120.5 111t-50 174zM367 702q0 -53 32.5 -91t80.5 -64.5t134 -65.5q111 -47 144 -67q55 26 80.5 61t25.5 88 q0 55 -33.5 95t-84 68t-138.5 65q-82 33 -135 61q-106 -59 -106 -150z" />
<glyph unicode="&#xa8;" d="M268 1325q0 57 39 96t99 39q57 0 96 -39t39 -96q0 -59 -39 -98t-96 -39q-60 0 -99 39t-39 98zM690 1325q0 57 38 96t97 39t97.5 -39t38.5 -96q0 -59 -38 -98t-98 -39q-59 0 -97 39t-38 98z" />
<glyph unicode="&#xa9;" horiz-adv-x="1337" d="M0 664q0 203 91 356.5t243.5 236t335.5 82.5q180 0 332.5 -82.5t243.5 -236.5t91 -356q0 -203 -91 -358.5t-243.5 -240.5t-332.5 -85q-183 0 -335.5 85t-243.5 240.5t-91 358.5zM119 664q0 -170 73.5 -301.5t199.5 -204t278 -72.5q151 0 277 72.5t200 204t74 301.5 q0 168 -74 299t-200 202.5t-277 71.5q-152 0 -278 -71.5t-199.5 -203t-73.5 -298.5zM305 664q0 115 53.5 203.5t142.5 137t191 48.5q84 0 146.5 -32t117.5 -87l-92 -103q-39 39 -76.5 58.5t-82.5 19.5q-102 0 -163 -69.5t-61 -175.5q0 -119 58.5 -190t156.5 -71 q53 0 96.5 20.5t90.5 59.5l80 -112q-66 -53 -129.5 -83t-143.5 -30q-110 0 -197 49t-137.5 141.5t-50.5 215.5z" />
<glyph unicode="&#xaa;" d="M330 713q0 109 99 168t316 80q-4 53 -34.5 85.5t-94.5 32.5q-82 0 -198 -63l-64 112q150 88 293 89q131 0 201 -75t70 -218v-392h-142l-12 72h-4q-111 -88 -217 -88q-92 0 -152.5 56.5t-60.5 140.5zM496 727q0 -39 27.5 -58.5t72.5 -19.5q75 0 149 68v137 q-133 -14 -191 -46t-58 -81z" />
<glyph unicode="&#xab;" d="M127 401v232l332 321l104 -92l-260 -346l260 -346l-104 -90zM635 401v232l332 321l104 -92l-260 -346l260 -346l-104 -90z" />
<glyph unicode="&#xac;" d="M160 592v170h911v-559h-178v389h-733z" />
<glyph unicode="&#xad;" d="M160 592v170h911v-170h-911z" />
<glyph unicode="&#xae;" d="M219 1055q0 117 52.5 210t143.5 145t199 52q109 0 199 -52t143.5 -145.5t53.5 -209.5q0 -119 -53.5 -212t-143.5 -145.5t-199 -52.5q-108 0 -199 52.5t-143.5 145.5t-52.5 212zM313 1055q0 -143 85 -232.5t216 -89.5t215 89t84 233q0 141 -85 231t-214 90 q-131 0 -216 -90t-85 -231zM457 854v410h168q74 0 118.5 -33t44.5 -103q0 -37 -19 -66.5t-54 -43.5l90 -164h-109l-67 133h-72v-133h-100zM557 1061h47q37 0 57.5 17.5t20.5 45.5q0 27 -18.5 43.5t-55.5 16.5h-51v-123z" />
<glyph unicode="&#xaf;" d="M348 1223v153h535v-153h-535z" />
<glyph unicode="&#xb0;" d="M340 1124q0 123 80 202t196 79q117 0 197 -79t80 -202q0 -121 -80 -198.5t-197 -77.5q-116 0 -196 78t-80 198zM471 1124q0 -70 41 -113.5t104 -43.5q64 0 105 44t41 113q0 72 -41 116t-105 44q-63 0 -104 -44t-41 -116z" />
<glyph unicode="&#xb1;" d="M160 0v170h911v-170h-911zM160 612v170h366v367h179v-367h366v-170h-366v-319h-179v319h-366z" />
<glyph unicode="&#xb4;" d="M465 1176l182 321h246l-254 -321h-174z" />
<glyph unicode="&#xb5;" d="M143 -393v1399h236v-592q0 -123 44 -180.5t138 -57.5q76 0 137.5 42t122.5 151v637h236q-14 -440 -15 -760q0 -78 64 -78q18 0 37 4l31 -176q-51 -20 -125 -21q-88 0 -136.5 51.5t-66.5 159.5h-8q-51 -100 -125 -152t-160 -52q-66 0 -113 17t-78 64q0 -127 4.5 -237.5 t14.5 -218.5h-238z" />
<glyph unicode="&#xb6;" d="M123 893q0 236 132 341t353 105h86v-905h-73q-220 0 -359 118t-139 341zM803 -164v1503h233v-1503h-233z" />
<glyph unicode="&#xb7;" d="M414 719q0 88 57 147.5t143 59.5q88 0 145.5 -59.5t57.5 -147.5q0 -90 -57.5 -148.5t-145.5 -58.5t-144 58.5t-56 148.5z" />
<glyph unicode="&#xb8;" d="M432 -342q174 20 174 94q0 33 -29.5 55.5t-95.5 36.5l82 164h144l-48 -104q121 -41 121 -148q0 -92 -93 -141t-236 -59z" />
<glyph unicode="&#xba;" d="M283 866q0 106 45 186.5t120.5 122.5t165.5 42t167 -42t122 -122t45 -187q0 -106 -45 -186t-121.5 -122t-167.5 -42q-90 0 -165.5 42t-120.5 122t-45 186zM459 866q0 -96 41 -154.5t114 -58.5q76 0 117 57.5t41 155.5q0 96 -41 153.5t-117 57.5q-74 0 -114.5 -57 t-40.5 -154z" />
<glyph unicode="&#xbb;" d="M160 170l260 346l-260 346l104 92l330 -321v-232l-330 -321zM668 170l260 346l-260 346l102 92l332 -321v-232l-332 -321z" />
<glyph unicode="&#xbc;" d="M47 182l377 371l86 -80l-336 -412zM147 1126v109q70 8 114 23.5t89 46.5h137v-631h-174v452h-166zM608 137v84l275 412h211v-383h102v-113h-102v-137h-156v137h-330zM719 866l338 412l127 -121l-379 -371zM772 250h166v80l10 184h-6l-82 -129z" />
<glyph unicode="&#xbd;" d="M47 182l377 371l86 -80l-336 -412zM147 1126v109q70 8 114 23.5t89 46.5h137v-631h-174v452h-166zM608 528q115 129 256 129q117 0 184.5 -57t67.5 -160q0 -70 -51 -135t-156 -162h236v-143h-512v94q158 113 236.5 188.5t78.5 131.5q0 47 -28.5 74.5t-79.5 27.5 q-70 0 -129 -80zM719 866l338 412l127 -121l-379 -371z" />
<glyph unicode="&#xbe;" d="M78 745l74 109q35 -33 83 -54.5t95 -21.5t76.5 20.5t29.5 57.5q0 45 -42 67.5t-130 22.5v96q143 0 144 84q0 33 -24 51.5t-71 18.5q-35 0 -72.5 -16.5t-70.5 -42.5l-76 104q47 41 113.5 64.5t142.5 23.5q98 0 164 -49t66 -127q0 -59 -26 -95t-87 -57q139 -35 139 -155 q0 -88 -73.5 -142.5t-184.5 -54.5q-157 0 -270 96zM80 182l379 371l84 -80l-336 -412zM610 137v84l275 412h209v-383h104v-113h-104v-137h-154v137h-330zM752 866l338 412l127 -121l-379 -371zM774 250h166v80l10 184h-8l-80 -129z" />
<glyph unicode="&#xbf;" d="M231 -66q0 86 42 144.5t126 136.5q78 70 117 124t39 128q0 20 -2 31h207q4 -37 4 -52q0 -90 -46 -154.5t-130 -137.5q-66 -59 -97.5 -101.5t-31.5 -89.5q0 -74 50 -118t138 -44q125 0 240 105l131 -121q-74 -82 -173.5 -129t-213.5 -47q-178 0 -289 86t-111 239zM469 848 q0 80 50 131t126 51t127 -51t51 -131q0 -82 -51 -132t-127 -50t-126 50t-50 132z" />
<glyph unicode="&#xc0;" d="M43 0l434 1352h277l434 -1352h-250l-104 369h-445l-106 -369h-240zM315 1694h256l172 -240h-190zM440 555h342l-47 166q-47 164 -121 444h-8q-51 -209 -119 -444z" />
<glyph unicode="&#xc1;" d="M43 0l434 1352h277l434 -1352h-250l-104 369h-445l-106 -369h-240zM440 555h342l-47 166q-47 164 -121 444h-8q-51 -209 -119 -444zM485 1454l174 240h256l-239 -240h-191z" />
<glyph unicode="&#xc2;" d="M43 0l434 1352h277l434 -1352h-250l-104 369h-445l-106 -369h-240zM303 1454l197 240h229l197 -240h-185l-123 133h-8l-123 -133h-184zM440 555h342l-47 166q-47 164 -121 444h-8q-51 -209 -119 -444z" />
<glyph unicode="&#xc3;" d="M43 0l434 1352h277l434 -1352h-250l-104 369h-445l-106 -369h-240zM293 1460q12 117 65.5 184.5t130.5 67.5q39 0 73 -15.5t77 -43.5q35 -23 54.5 -32t39.5 -9q29 0 50.5 25.5t29.5 74.5h125q-12 -117 -65.5 -184.5t-131.5 -67.5q-41 0 -71.5 14.5t-79.5 45.5 q-31 23 -52.5 33t-41.5 10q-29 0 -50.5 -26t-29.5 -77h-123zM440 555h342l-47 168q-57 203 -121 444h-8q-47 -193 -119 -444z" />
<glyph unicode="&#xc4;" d="M43 0l434 1352h277l434 -1352h-250l-104 369h-445l-106 -369h-240zM303 1585q0 53 35 87t88 34t87 -34t34 -87t-35 -88t-86 -35q-53 0 -88 35t-35 88zM440 555h342l-47 166q-51 182 -121 446h-8q-51 -207 -119 -446zM682 1585q0 53 35 87t88 34t87 -34t34 -87t-34 -88 t-87 -35t-88 35t-35 88z" />
<glyph unicode="&#xc5;" d="M43 0l434 1352h277l434 -1352h-250l-104 369h-445l-106 -369h-240zM403 1632q0 86 59.5 139.5t151.5 53.5t151.5 -53.5t59.5 -139.5t-58 -138t-153 -52q-94 0 -152.5 52t-58.5 138zM440 555h342l-47 166q-51 182 -121 446h-8q-51 -207 -119 -446zM524 1632 q0 -45 25.5 -71.5t64.5 -26.5t65 26.5t26 71.5q0 43 -27 71t-64 28q-39 0 -64.5 -28t-25.5 -71z" />
<glyph unicode="&#xc6;" d="M-4 0l481 1352h719v-199h-342v-348h272v-199h-272v-405h360v-201h-571v354h-283l-120 -354h-244zM422 539h221v632h-6q-29 -96 -111 -329l-28 -82z" />
<glyph unicode="&#xc7;" d="M125 672q0 217 80 375.5t220 243.5t318 85q117 0 214.5 -47t166.5 -121l-131 -147q-111 111 -250 110q-111 0 -196.5 -59t-132.5 -171t-47 -261q0 -152 48 -265.5t134 -174t201 -60.5q78 0 143 35t125 100l133 -143q-156 -182 -377 -197l-33 -71q121 -41 121 -152 q0 -90 -93 -140t-237 -61l-20 103q176 20 176 94q0 35 -29.5 57.5t-95.5 38.5l72 138q-150 25 -264.5 112.5t-180 235t-65.5 342.5z" />
<glyph unicode="&#xc8;" d="M215 0v1352h854v-199h-618v-350h524v-199h-524v-403h639v-201h-875zM369 1694h256l172 -240h-191z" />
<glyph unicode="&#xc9;" d="M215 0v1352h854v-199h-618v-350h524v-199h-524v-403h639v-201h-875zM541 1454l172 240h256l-238 -240h-190z" />
<glyph unicode="&#xca;" d="M215 0v1352h854v-199h-618v-350h524v-199h-524v-403h639v-201h-875zM358 1454l197 240h227l197 -240h-182l-123 133h-8l-125 -133h-183z" />
<glyph unicode="&#xcb;" d="M215 0v1352h854v-199h-618v-350h524v-199h-524v-403h639v-201h-875zM356 1585q0 53 35 87t86 34q55 0 89 -34t34 -87t-34 -88t-89 -35q-51 0 -86 35t-35 88zM737 1585q0 53 35 87t86 34q53 0 87 -34t34 -87t-34 -88t-87 -35q-51 0 -86 35t-35 88z" />
<glyph unicode="&#xcc;" d="M174 0v201h322v952h-322v199h883v-199h-324v-952h324v-201h-883zM315 1694h256l172 -240h-190z" />
<glyph unicode="&#xcd;" d="M174 0v201h322v952h-322v199h883v-199h-324v-952h324v-201h-883zM485 1454l174 240h256l-239 -240h-191z" />
<glyph unicode="&#xce;" d="M174 0v201h322v952h-322v199h883v-199h-324v-952h324v-201h-883zM303 1454l197 240h229l197 -240h-185l-123 133h-8l-123 -133h-184z" />
<glyph unicode="&#xcf;" d="M174 0v201h322v952h-322v199h883v-199h-324v-952h324v-201h-883zM303 1585q0 53 35 87t88 34t87 -34t34 -87t-35 -88t-86 -35q-53 0 -88 35t-35 88zM682 1585q0 53 35 87t88 34t87 -34t34 -87t-34 -88t-87 -35t-88 35t-35 88z" />
<glyph unicode="&#xd0;" d="M18 643v111l148 12v586h348q299 0 465 -170t166 -500t-165 -506t-456 -176h-358v643h-148zM403 193h95q195 0 299 121.5t104 367.5q0 479 -403 479h-95v-395h256v-123h-256v-450z" />
<glyph unicode="&#xd1;" d="M154 0v1352h239l361 -766l125 -287h6l-13 137q-20 213 -20 322v594h225v-1352h-241l-359 766l-125 285h-6l12 -148q20 -205 21 -307v-596h-225zM305 1460q12 117 65.5 184.5t131.5 67.5q39 0 72.5 -15.5t76.5 -43.5q35 -23 54.5 -32t39.5 -9q29 0 50.5 25.5t29.5 74.5 h125q-12 -117 -65.5 -184.5t-130.5 -67.5q-41 0 -72 14.5t-80 45.5q-31 23 -52.5 33t-41.5 10q-29 0 -50.5 -26t-29.5 -77h-123z" />
<glyph unicode="&#xd2;" d="M88 682q0 215 66.5 371.5t185.5 239.5t274 83q156 0 275 -84t185.5 -240.5t66.5 -369.5q0 -215 -66.5 -375t-185.5 -246t-275 -86q-153 0 -273 86t-186.5 246t-66.5 375zM315 1694h256l172 -240h-190zM332 682q0 -229 76.5 -365.5t205.5 -136.5t207 136.5t78 365.5 q0 225 -78 357t-207 132t-205.5 -131t-76.5 -358z" />
<glyph unicode="&#xd3;" d="M88 682q0 215 66.5 371.5t185.5 239.5t274 83q156 0 275 -84t185.5 -240.5t66.5 -369.5q0 -215 -66.5 -375t-185.5 -246t-275 -86q-153 0 -273 86t-186.5 246t-66.5 375zM332 682q0 -229 76.5 -365.5t205.5 -136.5t207 136.5t78 365.5q0 225 -78 357t-207 132 t-205.5 -131t-76.5 -358zM485 1454l174 240h256l-239 -240h-191z" />
<glyph unicode="&#xd4;" d="M88 682q0 215 66.5 371.5t185.5 239.5t274 83q156 0 275 -84t185.5 -240.5t66.5 -369.5q0 -215 -66.5 -375t-185.5 -246t-275 -86q-153 0 -273 86t-186.5 246t-66.5 375zM303 1454l197 240h229l197 -240h-185l-123 133h-8l-123 -133h-184zM332 682q0 -229 76.5 -365.5 t205.5 -136.5t207 136.5t78 365.5q0 225 -78 357t-207 132t-205.5 -131t-76.5 -358z" />
<glyph unicode="&#xd5;" d="M88 682q0 215 66.5 371.5t185.5 239.5t274 83q156 0 275 -84t185.5 -240.5t66.5 -369.5q0 -215 -66.5 -375t-185.5 -246t-275 -86q-153 0 -273 86t-186.5 246t-66.5 375zM293 1460q12 117 65.5 184.5t130.5 67.5q39 0 73 -15.5t77 -43.5q35 -23 54.5 -32t39.5 -9 q29 0 50.5 25.5t29.5 74.5h125q-12 -117 -65.5 -184.5t-131.5 -67.5q-41 0 -71.5 14.5t-79.5 45.5q-31 23 -52.5 33t-41.5 10q-29 0 -50.5 -26t-29.5 -77h-123zM332 682q0 -229 76.5 -365.5t205.5 -136.5t207 136.5t78 365.5q0 225 -78 357t-207 132t-205.5 -131t-76.5 -358 z" />
<glyph unicode="&#xd6;" d="M88 682q0 215 66.5 371.5t185.5 239.5t274 83q156 0 275 -84t185.5 -240.5t66.5 -369.5q0 -215 -66.5 -375t-185.5 -246t-275 -86q-153 0 -273 86t-186.5 246t-66.5 375zM303 1585q0 53 35 87t88 34t87 -34t34 -87t-35 -88t-86 -35q-53 0 -88 35t-35 88zM332 682 q0 -229 76.5 -365.5t205.5 -136.5t207 136.5t78 365.5q0 225 -78 357t-207 132t-205.5 -131t-76.5 -358zM682 1585q0 53 35 87t88 34t87 -34t34 -87t-34 -88t-87 -35t-88 35t-35 88z" />
<glyph unicode="&#xd7;" d="M190 367l304 309l-304 309l121 121l303 -309l306 309l118 -121l-303 -309l303 -309l-118 -123l-306 311l-303 -311z" />
<glyph unicode="&#xd8;" d="M78 12l129 193q-119 186 -119 477q0 215 66.5 372.5t185.5 240.5t274 83q182 0 312 -112l108 161l129 -84l-135 -198q113 -178 113 -463q0 -215 -66.5 -375t-185.5 -246t-275 -86q-178 0 -301 111l-106 -160zM332 682q0 -145 33 -250l417 655q-16 37 -64 62t-104 25 q-129 0 -205.5 -132.5t-76.5 -359.5zM440 270q72 -90 174 -90q129 0 207 136.5t78 365.5q0 135 -31 229z" />
<glyph unicode="&#xd9;" d="M147 514v838h236v-852q0 -319 235 -320q113 0 174.5 78t61.5 242v852h229v-838q0 -270 -119.5 -404.5t-345.5 -134.5q-227 0 -349 134.5t-122 404.5zM315 1694h256l172 -240h-190z" />
<glyph unicode="&#xda;" d="M147 514v838h236v-852q0 -319 235 -320q113 0 174.5 78t61.5 242v852h229v-838q0 -270 -119.5 -404.5t-345.5 -134.5q-227 0 -349 134.5t-122 404.5zM485 1454l174 240h256l-239 -240h-191z" />
<glyph unicode="&#xdb;" d="M147 514v838h236v-852q0 -319 235 -320q113 0 174.5 78t61.5 242v852h229v-838q0 -270 -119.5 -404.5t-345.5 -134.5q-227 0 -349 134.5t-122 404.5zM303 1454l197 240h229l197 -240h-185l-123 133h-8l-123 -133h-184z" />
<glyph unicode="&#xdc;" d="M147 516v836h236v-852q0 -319 235 -320q113 0 174.5 78t61.5 242v852h229v-836q0 -272 -119.5 -406.5t-345.5 -134.5q-227 0 -349 134.5t-122 406.5zM303 1585q0 53 35 87t88 34t87 -34t34 -87t-35 -88t-86 -35q-53 0 -88 35t-35 88zM682 1585q0 53 35 87t88 34t87 -34 t34 -87t-34 -88t-87 -35t-88 35t-35 88z" />
<glyph unicode="&#xdd;" d="M55 1352h252l170 -367q6 -14 33 -76l104 -233h9q47 106 141 311l164 365h246l-441 -881v-471h-237v471zM485 1454l174 240h256l-239 -240h-191z" />
<glyph unicode="&#xde;" d="M178 0v1352h238v-215h213q510 0 510 -416q0 -217 -141.5 -327.5t-368.5 -110.5h-213v-283h-238zM416 473h192q152 0 224.5 61.5t72.5 186.5q0 123 -72.5 174t-224.5 51h-192v-473z" />
<glyph unicode="&#xdf;" d="M154 0v1073q0 203 114.5 326t323.5 123q115 0 196.5 -46t122.5 -122t41 -166q0 -78 -22.5 -132.5t-67.5 -121.5q-33 -47 -48 -81t-15 -73q0 -47 33.5 -78.5t103.5 -72.5q72 -43 117 -79t77.5 -95.5t32.5 -147.5q0 -143 -93 -238.5t-253 -95.5q-80 0 -148.5 22.5 t-140.5 67.5l84 162q102 -72 199 -71q61 0 97 37.5t36 95.5q0 66 -40 105.5t-124 90.5q-66 39 -106.5 70t-68 80t-27.5 119q0 63 19 109t58 108q37 57 56.5 102t19.5 103q0 70 -38 114.5t-103 44.5q-203 0 -203 -282v-1051h-233z" />
<glyph unicode="&#xe0;" d="M145 279q0 119 71 197.5t223.5 124.5t402.5 67q-6 98 -64.5 155.5t-177.5 57.5q-80 0 -153.5 -32t-133.5 -81l-86 156q72 61 183.5 104t234.5 43q209 0 319.5 -116.5t110.5 -331.5v-623h-190l-19 131h-8q-201 -158 -377 -158q-147 0 -241.5 85t-94.5 221zM373 297 q0 -70 50 -103.5t130 -33.5q142 0 289 131v229q-258 -18 -363.5 -73.5t-105.5 -149.5zM430 1497h246l184 -321h-174z" />
<glyph unicode="&#xe1;" d="M145 279q0 119 71 197.5t223.5 124.5t402.5 67q-6 98 -64.5 155.5t-177.5 57.5q-80 0 -153.5 -32t-133.5 -81l-86 156q72 61 183.5 104t234.5 43q209 0 319.5 -116.5t110.5 -331.5v-623h-190l-19 131h-8q-201 -158 -377 -158q-147 0 -241.5 85t-94.5 221zM373 297 q0 -70 50 -103.5t130 -33.5q142 0 289 131v229q-258 -18 -363.5 -73.5t-105.5 -149.5zM430 1176l182 321h246l-254 -321h-174z" />
<glyph unicode="&#xe2;" d="M145 279q0 119 71 197.5t223.5 124.5t402.5 67q-6 98 -64.5 155.5t-177.5 57.5q-80 0 -153.5 -32t-133.5 -81l-86 156q72 61 183.5 104t234.5 43q209 0 319.5 -116.5t110.5 -331.5v-623h-190l-19 131h-8q-201 -158 -377 -158q-147 0 -241.5 85t-94.5 221zM345 1176 l202 321h199l201 -321h-174l-123 198h-8l-123 -198h-174zM373 297q0 -70 50 -103.5t130 -33.5q142 0 289 131v229q-258 -18 -363.5 -73.5t-105.5 -149.5z" />
<glyph unicode="&#xe3;" d="M145 279q0 119 71 197.5t223.5 124.5t402.5 67q-6 98 -64.5 155.5t-177.5 57.5q-80 0 -153.5 -32t-133.5 -81l-86 156q72 61 183.5 104t234.5 43q209 0 319.5 -116.5t110.5 -331.5v-623h-190l-19 131h-8q-201 -158 -377 -158q-147 0 -241.5 85t-94.5 221zM326 1182 q14 123 67.5 190.5t141.5 67.5q37 0 67.5 -16.5t69.5 -47.5q29 -23 47.5 -34t36.5 -11q33 0 53.5 25.5t32.5 83.5h125q-16 -123 -70.5 -190.5t-140.5 -67.5q-37 0 -67.5 17.5t-67.5 47.5q-6 4 -24.5 17.5t-34 20.5t-27.5 7q-33 0 -53.5 -25.5t-30.5 -84.5h-125zM373 297 q0 -70 50 -103.5t130 -33.5q142 0 289 131v229q-258 -18 -363.5 -73.5t-105.5 -149.5z" />
<glyph unicode="&#xe4;" d="M145 279q0 119 71 197.5t223.5 124.5t402.5 67q-6 98 -64.5 155.5t-177.5 57.5q-80 0 -153.5 -32t-133.5 -81l-86 156q72 61 183.5 104t234.5 43q209 0 319.5 -116.5t110.5 -331.5v-623h-190l-19 131h-8q-201 -158 -377 -158q-147 0 -241.5 85t-94.5 221zM299 1325 q0 57 39 96t99 39q57 0 96 -39t39 -96q0 -59 -39 -98t-96 -39q-60 0 -99 39t-39 98zM373 297q0 -70 50 -103.5t130 -33.5q142 0 289 131v229q-258 -18 -363.5 -73.5t-105.5 -149.5zM721 1325q0 57 38 96t98 39q59 0 97 -39t38 -96q0 -59 -38 -98t-97 -39q-60 0 -98 39 t-38 98z" />
<glyph unicode="&#xe5;" d="M145 279q0 119 71 197.5t223.5 124.5t402.5 67q-6 98 -64.5 155.5t-177.5 57.5q-80 0 -153.5 -32t-133.5 -81l-86 156q72 61 183.5 104t234.5 43q209 0 319.5 -116.5t110.5 -331.5v-623h-190l-19 131h-8q-201 -158 -377 -158q-147 0 -241.5 85t-94.5 221zM373 297 q0 -70 50 -103.5t130 -33.5q142 0 289 131v229q-258 -18 -363.5 -73.5t-105.5 -149.5zM435 1317q0 88 59 143.5t152 55.5q94 0 152.5 -55.5t58.5 -143.5q0 -90 -58.5 -145.5t-152.5 -55.5q-93 0 -152 55.5t-59 145.5zM555 1317q0 -47 26 -77t65 -30t65.5 30t26.5 77 q0 45 -26.5 74.5t-65.5 29.5t-65 -29.5t-26 -74.5z" />
<glyph unicode="&#xe6;" d="M35 285q0 154 118.5 247t364.5 136q-6 215 -147 215q-45 0 -106.5 -23.5t-114.5 -58.5l-87 155q178 115 328 115q170 0 244 -186q53 94 118.5 140t155.5 46q147 0 228.5 -139t81.5 -350q0 -41 -11 -123h-497q12 -141 68.5 -220t150.5 -79q82 0 178 61l80 -151 q-55 -43 -127 -70t-139 -27q-104 0 -179 47.5t-129 135.5q-164 -182 -305 -183q-129 0 -201.5 86t-72.5 226zM248 299q0 -68 32.5 -103.5t90.5 -35.5q41 0 90 30.5t88 85.5q-27 80 -31 195l-2 49q-139 -27 -203.5 -82t-64.5 -139zM709 608h319q0 127 -32.5 204t-106.5 77 t-123 -74t-57 -207z" />
<glyph unicode="&#xe7;" d="M152 522q0 168 77.5 293t207.5 190.5t286 65.5q113 0 208 -41t163 -108l-111 -148q-119 104 -250 105q-152 0 -246 -98.5t-94 -258.5t92.5 -258t241.5 -98q145 0 289 117l98 -150q-88 -76 -193.5 -118t-213.5 -42l-5 2l-32 -71q121 -42 121 -148q0 -92 -93.5 -141 t-236.5 -59l-19 102q174 20 174 94q0 33 -29.5 55.5t-94.5 36.5l71 146q-186 39 -298.5 178t-112.5 354z" />
<glyph unicode="&#xe8;" d="M127 522q0 164 72.5 289t192.5 192.5t253 67.5q145 0 250.5 -62.5t160 -175t54.5 -258.5q0 -49 -10 -116h-731q10 -141 104 -221t234 -80q143 0 282 86l80 -148q-86 -55 -187.5 -89t-205.5 -34q-154 0 -279 66.5t-197.5 190.5t-72.5 292zM367 621h528q0 127 -63.5 197.5 t-182.5 70.5q-104 0 -184 -70.5t-98 -197.5zM430 1497h246l184 -321h-174z" />
<glyph unicode="&#xe9;" d="M127 522q0 164 72.5 289t192.5 192.5t253 67.5q145 0 250.5 -62.5t160 -175t54.5 -258.5q0 -49 -10 -116h-731q10 -141 104 -221t234 -80q143 0 282 86l80 -148q-86 -55 -187.5 -89t-205.5 -34q-154 0 -279 66.5t-197.5 190.5t-72.5 292zM367 621h528q0 127 -63.5 197.5 t-182.5 70.5q-104 0 -184 -70.5t-98 -197.5zM430 1176l182 321h246l-254 -321h-174z" />
<glyph unicode="&#xea;" d="M127 522q0 164 72.5 289t192.5 192.5t253 67.5q145 0 250.5 -62.5t160 -175t54.5 -258.5q0 -49 -10 -116h-731q10 -141 104 -221t234 -80q143 0 282 86l80 -148q-86 -55 -187.5 -89t-205.5 -34q-154 0 -279 66.5t-197.5 190.5t-72.5 292zM345 1176l202 321h199l201 -321 h-174l-123 198h-8l-123 -198h-174zM367 621h528q0 127 -63.5 197.5t-182.5 70.5q-104 0 -184 -70.5t-98 -197.5z" />
<glyph unicode="&#xeb;" d="M127 522q0 164 72.5 289t192.5 192.5t253 67.5q145 0 250.5 -62.5t160 -175t54.5 -258.5q0 -49 -10 -116h-731q10 -141 104 -221t234 -80q143 0 282 86l80 -148q-86 -55 -187.5 -89t-205.5 -34q-154 0 -279 66.5t-197.5 190.5t-72.5 292zM299 1325q0 57 39 96t99 39 q57 0 96 -39t39 -96q0 -59 -39 -98t-96 -39q-60 0 -99 39t-39 98zM367 621h528q0 127 -63.5 197.5t-182.5 70.5q-104 0 -184 -70.5t-98 -197.5zM721 1325q0 57 38 96t98 39q59 0 97 -39t38 -96q0 -59 -38 -98t-97 -39q-60 0 -98 39t-38 98z" />
<glyph unicode="&#xec;" d="M166 0v193h366v665h-366v186h602v-851h367v-193h-969zM418 1481h246l184 -321h-174z" />
<glyph unicode="&#xed;" d="M166 0v193h366v665h-366v186h602v-851h367v-193h-969zM418 1160l182 321h246l-254 -321h-174z" />
<glyph unicode="&#xee;" d="M166 0v193h366v665h-366v186h602v-851h367v-193h-969zM332 1160l202 321h199l201 -321h-174l-123 198h-8l-123 -198h-174z" />
<glyph unicode="&#xef;" d="M166 0v193h366v665h-366v186h602v-851h367v-193h-969zM286 1309q0 57 39 96t99 39q57 0 96 -39t39 -96q0 -59 -39 -98t-96 -39q-60 0 -99 39t-39 98zM708 1309q0 57 38 96t98 39q59 0 97 -39t38 -96q0 -59 -38 -98t-97 -39q-60 0 -98 39t-38 98z" />
<glyph unicode="&#xf0;" d="M111 479q0 143 61 253t165.5 169.5t231.5 59.5q86 0 163 -38t130 -110q-29 119 -83 206t-142 169l-305 -162l-64 109l258 139q-80 59 -219 129l105 145q172 -82 301 -180l276 148l64 -111l-236 -125q143 -137 219 -311t76 -414q0 -170 -61.5 -302t-175 -206t-267.5 -74 q-135 0 -248.5 62.5t-181 177.5t-67.5 266zM326 479q0 -94 38.5 -165.5t104.5 -109.5t145 -38q134 0 205.5 101.5t71.5 277.5q0 57 -2 84q-113 154 -277 153q-135 0 -210.5 -82t-75.5 -221z" />
<glyph unicode="&#xf1;" d="M170 0v1044h192l19 -161h8q82 88 169 138t194 50q170 0 254 -108.5t84 -315.5v-647h-236v616q0 131 -44 192.5t-144 61.5q-72 0 -129.5 -35.5t-133.5 -119.5v-715h-233zM315 1182q14 123 67.5 190.5t141.5 67.5q37 0 67.5 -16.5t69.5 -47.5q29 -23 47.5 -34t36.5 -11 q33 0 53.5 25.5t32.5 83.5h125q-16 -123 -70.5 -190.5t-140.5 -67.5q-37 0 -67.5 17.5t-67.5 47.5q-6 4 -24.5 17.5t-34 20.5t-27.5 7q-33 0 -53.5 -25.5t-30.5 -84.5h-125z" />
<glyph unicode="&#xf2;" d="M111 522q0 168 69.5 293t184 190.5t249.5 65.5t251 -65.5t185.5 -190.5t69.5 -293t-69.5 -293t-185 -190.5t-251.5 -65.5q-135 0 -249.5 65.5t-184 190.5t-69.5 293zM352 522q0 -162 70 -259t192 -97q123 0 194 96t71 260q0 162 -71 259.5t-194 97.5q-121 0 -191.5 -97.5 t-70.5 -259.5zM399 1497h246l184 -321h-174z" />
<glyph unicode="&#xf3;" d="M111 522q0 168 69.5 293t184 190.5t249.5 65.5t251 -65.5t185.5 -190.5t69.5 -293t-69.5 -293t-185 -190.5t-251.5 -65.5q-135 0 -249.5 65.5t-184 190.5t-69.5 293zM352 522q0 -162 70 -259t192 -97q123 0 194 96t71 260q0 162 -71 259.5t-194 97.5q-121 0 -191.5 -97.5 t-70.5 -259.5zM399 1176l182 321h246l-254 -321h-174z" />
<glyph unicode="&#xf4;" d="M111 522q0 168 69.5 293t184 190.5t249.5 65.5t251 -65.5t185.5 -190.5t69.5 -293t-69.5 -293t-185 -190.5t-251.5 -65.5q-135 0 -249.5 65.5t-184 190.5t-69.5 293zM314 1176l202 321h199l201 -321h-174l-123 198h-8l-123 -198h-174zM352 522q0 -162 70 -259t192 -97 q123 0 194 96t71 260q0 162 -71 259.5t-194 97.5q-121 0 -191.5 -97.5t-70.5 -259.5z" />
<glyph unicode="&#xf5;" d="M111 522q0 168 69.5 293t184 190.5t249.5 65.5t251 -65.5t185.5 -190.5t69.5 -293t-69.5 -293t-185 -190.5t-251.5 -65.5q-135 0 -249.5 65.5t-184 190.5t-69.5 293zM295 1182q14 123 67.5 190.5t141.5 67.5q37 0 67.5 -16.5t69.5 -47.5q29 -23 47.5 -34t36.5 -11 q33 0 53.5 25.5t32.5 83.5h125q-16 -123 -70.5 -190.5t-140.5 -67.5q-37 0 -67.5 17.5t-67.5 47.5q-6 4 -24.5 17.5t-34 20.5t-27.5 7q-33 0 -53.5 -25.5t-30.5 -84.5h-125zM352 522q0 -162 70 -259t192 -97q123 0 194 96t71 260q0 162 -71 259.5t-194 97.5 q-121 0 -191.5 -97.5t-70.5 -259.5z" />
<glyph unicode="&#xf6;" d="M111 522q0 168 69.5 293t184 190.5t249.5 65.5t251 -65.5t185.5 -190.5t69.5 -293t-69.5 -293t-185 -190.5t-251.5 -65.5q-135 0 -249.5 65.5t-184 190.5t-69.5 293zM268 1325q0 57 39 96t99 39q57 0 96 -39t39 -96q0 -59 -39 -98t-96 -39q-60 0 -99 39t-39 98zM352 522 q0 -162 70 -259t192 -97q123 0 194 96t71 260q0 162 -71 259.5t-194 97.5q-121 0 -191.5 -97.5t-70.5 -259.5zM690 1325q0 57 38 96t98 39q59 0 97 -39t38 -96q0 -59 -38 -98t-97 -39q-60 0 -98 39t-38 98z" />
<glyph unicode="&#xf7;" d="M160 592v170h911v-170h-911zM477 303q0 61 39 100t98 39t99.5 -38.5t40.5 -100.5q0 -61 -39 -99t-101 -38q-59 0 -98 38t-39 99zM477 1049q0 59 39 99t98 40t99.5 -40t40.5 -99t-40 -98.5t-100 -39.5q-59 0 -98 39t-39 99z" />
<glyph unicode="&#xf8;" d="M111 522q0 168 69.5 293t184 190.5t249.5 65.5q162 0 291 -94l99 121l94 -76l-103 -127q59 -72 92 -166t33 -207q0 -168 -69.5 -293t-185 -190.5t-251.5 -65.5q-160 0 -290 97l-99 -121l-94 76l102 125q-123 150 -122 372zM352 522q0 -111 35 -190l389 489 q-68 63 -162 64q-121 0 -191.5 -100.5t-70.5 -262.5zM453 225q70 -66 161 -65q123 0 194 99t71 263q0 109 -35 195z" />
<glyph unicode="&#xf9;" d="M143 397v647h236v-616q0 -131 43 -191.5t145 -60.5q70 0 128.5 37t125.5 125v706h234v-1044h-191l-18 168h-8q-78 -94 -164 -144.5t-193 -50.5q-338 0 -338 424zM399 1497h246l184 -321h-174z" />
<glyph unicode="&#xfa;" d="M143 397v647h236v-616q0 -131 43 -191.5t145 -60.5q70 0 128.5 37t125.5 125v706h234v-1044h-191l-18 168h-8q-78 -94 -164 -144.5t-193 -50.5q-338 0 -338 424zM399 1176l182 321h246l-254 -321h-174z" />
<glyph unicode="&#xfb;" d="M143 397v647h236v-616q0 -131 43 -191.5t145 -60.5q70 0 128.5 37t125.5 125v706h234v-1044h-191l-18 168h-8q-78 -94 -164 -144.5t-193 -50.5q-338 0 -338 424zM314 1176l202 321h199l201 -321h-174l-123 198h-8l-123 -198h-174z" />
<glyph unicode="&#xfc;" d="M143 397v647h236v-616q0 -131 43 -191.5t145 -60.5q70 0 128.5 37t125.5 125v706h234v-1044h-191l-18 168h-8q-78 -94 -164 -144.5t-193 -50.5q-338 0 -338 424zM268 1325q0 57 39 96t99 39q57 0 96 -39t39 -96q0 -59 -39 -98t-96 -39q-60 0 -99 39t-39 98zM690 1325 q0 57 38 96t98 39q59 0 97 -39t38 -96q0 -59 -38 -98t-97 -39q-60 0 -98 39t-38 98z" />
<glyph unicode="&#xfd;" d="M82 1044h235l207 -522q43 -111 113 -307h8q47 150 98 307l185 522h221l-420 -1112q-70 -186 -173 -281t-275 -95q-78 0 -144 20l45 180q41 -12 84 -12q90 0 147.5 52t90.5 134l31 80zM420 1176l182 321h246l-254 -321h-174z" />
<glyph unicode="&#xfe;" d="M170 -399v1751h233v-248l-6 -176q70 68 150 105.5t162 37.5q193 0 302 -143.5t109 -388.5q0 -172 -62.5 -300t-164.5 -197t-219 -69q-137 0 -275 127l4 -186v-313h-233zM403 268q53 -51 112.5 -75.5t109.5 -24.5q110 0 182 97t72 272q0 164 -58.5 252t-177.5 88 q-117 0 -240 -132v-477z" />
<glyph unicode="&#xff;" d="M82 1044h235l207 -522q43 -111 113 -307h8q47 150 98 307l185 522h221l-420 -1112q-70 -186 -173 -281t-275 -95q-78 0 -144 20l45 180q41 -12 84 -12q90 0 147.5 52t90.5 134l31 80zM288 1325q0 57 39 96t99 39q57 0 96 -39t39 -96q0 -59 -39 -98t-96 -39q-60 0 -99 39 t-39 98zM710 1325q0 57 38 96t98 39q59 0 97 -39t38 -96q0 -59 -38 -98t-97 -39q-60 0 -98 39t-38 98z" />
<glyph unicode="&#x152;" d="M53 682q0 328 149.5 500t405.5 172h586v-199h-363v-352h277v-199h-277v-403h383v-201h-616q-164 0 -287 78t-190.5 231.5t-67.5 372.5zM297 682q0 -489 285 -489h36v968h-36q-141 0 -213 -115.5t-72 -363.5z" />
<glyph unicode="&#x153;" d="M25 522q0 170 49 294t133 189.5t188 65.5q88 0 155.5 -58.5t106.5 -162.5q43 106 108.5 163.5t149.5 57.5q141 0 221.5 -140t80.5 -349q0 -63 -9 -123h-475q12 -141 66.5 -220t144.5 -79q43 0 81 15t83 46l80 -151q-55 -43 -122 -70t-130 -27q-88 0 -159.5 53.5 t-117.5 153.5q-45 -102 -110.5 -154.5t-157.5 -52.5q-104 0 -187 65.5t-131 189.5t-48 294zM238 522q0 -164 44 -261t126 -97q73 0 115 98t42 260t-42 260.5t-115 98.5q-82 0 -126 -97.5t-44 -261.5zM731 608h297q0 125 -29.5 203t-99.5 78q-72 0 -115 -73t-53 -208z" />
<glyph unicode="&#x178;" d="M55 1352h252l170 -365l43 -98l94 -213h9q47 106 141 311l164 365h246l-441 -881v-471h-237v471zM303 1585q0 53 35 87t88 34t87 -34t34 -87t-35 -88t-86 -35q-53 0 -88 35t-35 88zM682 1585q0 53 35 87t88 34t87 -34t34 -87t-34 -88t-87 -35t-88 35t-35 88z" />
<glyph unicode="&#x2c6;" d="M313 1176l203 321h199l200 -321h-174l-123 198h-8l-123 -198h-174z" />
<glyph unicode="&#x2dc;" d="M295 1182q14 123 67.5 190.5t141.5 67.5q37 0 67.5 -16.5t69.5 -47.5q29 -23 47.5 -34t36.5 -11q33 0 53.5 25.5t32.5 83.5h125q-16 -123 -70.5 -190.5t-140.5 -67.5q-37 0 -67.5 17.5t-67.5 47.5q-6 4 -24.5 17.5t-34 20.5t-27.5 7q-33 0 -53.5 -25.5t-30.5 -84.5h-125z " />
<glyph unicode="&#x2000;" horiz-adv-x="912" />
<glyph unicode="&#x2001;" horiz-adv-x="1825" />
<glyph unicode="&#x2002;" horiz-adv-x="912" />
<glyph unicode="&#x2003;" horiz-adv-x="1825" />
<glyph unicode="&#x2004;" horiz-adv-x="608" />
<glyph unicode="&#x2005;" horiz-adv-x="456" />
<glyph unicode="&#x2006;" horiz-adv-x="304" />
<glyph unicode="&#x2007;" horiz-adv-x="304" />
<glyph unicode="&#x2008;" horiz-adv-x="228" />
<glyph unicode="&#x2009;" horiz-adv-x="365" />
<glyph unicode="&#x200a;" horiz-adv-x="101" />
<glyph unicode="&#x2010;" d="M160 592v170h911v-170h-911z" />
<glyph unicode="&#x2011;" d="M160 592v170h911v-170h-911z" />
<glyph unicode="&#x2012;" d="M160 592v170h911v-170h-911z" />
<glyph unicode="&#x2013;" d="M164 426v186h901v-186h-901z" />
<glyph unicode="&#x2014;" d="M41 426v186h1147v-186h-1147z" />
<glyph unicode="&#x2018;" d="M403 942q0 162 84 287t242 201l68 -130q-207 -106 -222 -305q27 10 50 11q72 0 117.5 -46.5t45.5 -121.5q0 -82 -48 -132.5t-126 -50.5q-98 0 -154.5 76t-56.5 211z" />
<glyph unicode="&#x2019;" d="M430 784q207 102 221 306q-27 -10 -47 -11q-74 0 -121 46t-47 122q0 80 49.5 131.5t124.5 51.5q98 0 155.5 -76t57.5 -211q0 -162 -84 -286t-241 -202z" />
<glyph unicode="&#x201a;" d="M430 -340q207 102 221 303q-33 -8 -47 -8q-74 0 -121 47t-47 123q0 80 49.5 131t124.5 51q98 0 155.5 -76.5t57.5 -212.5q0 -162 -84 -285.5t-241 -201.5z" />
<glyph unicode="&#x201c;" d="M150 942q0 162 83.5 287t241.5 201l68 -130q-207 -106 -221 -305q27 10 49 11q72 0 118 -46.5t46 -121.5q0 -82 -48.5 -132.5t-124.5 -50.5q-98 0 -155 76t-57 211zM657 942q0 162 84 287t242 201l68 -130q-209 -106 -224 -305q27 10 50 11q74 0 119.5 -46.5t45.5 -121.5 q0 -82 -48 -132.5t-126 -50.5q-98 0 -154.5 76t-56.5 211z" />
<glyph unicode="&#x201d;" d="M176 784q207 102 221 303q-33 -8 -47 -8q-74 0 -120 46t-46 122q0 82 48.5 132.5t123.5 50.5q98 0 155.5 -76t57.5 -211q0 -162 -84 -286t-241 -202zM684 784q207 104 219 303q-33 -8 -47 -8q-72 0 -119 47.5t-47 120.5q0 80 49 131.5t125 51.5q98 0 155.5 -76t57.5 -211 q0 -162 -84 -286t-241 -202z" />
<glyph unicode="&#x201e;" d="M176 -340q207 104 219 303q-29 -8 -45 -8q-74 0 -120 47t-46 123q0 82 48.5 132t123.5 50q98 0 155.5 -76.5t57.5 -212.5q0 -162 -84 -285.5t-241 -201.5zM684 -340q207 104 219 303q-33 -8 -47 -8q-72 0 -119 47t-47 123q0 80 49 131t125 51q98 0 155.5 -76.5 t57.5 -212.5q0 -162 -84 -285.5t-241 -201.5z" />
<glyph unicode="&#x2022;" d="M295 537q0 90 43 161.5t115.5 112.5t160.5 41t162 -41t117 -112.5t43 -161.5t-43 -162t-117 -113t-162 -41t-160.5 41t-115.5 112.5t-43 162.5z" />
<glyph unicode="&#x2026;" d="M33 152q0 76 47 125t119 49q71 0 117 -49.5t46 -124.5q0 -76 -46 -126.5t-117 -50.5q-72 0 -119 50.5t-47 126.5zM653 152q0 76 46 125t118 49h6h6q72 0 119 -49.5t47 -124.5q0 -76 -47 -126.5t-119 -50.5h-6h-6q-70 0 -117 50.5t-47 126.5z" />
<glyph unicode="&#x202f;" horiz-adv-x="365" />
<glyph unicode="&#x2039;" d="M381 401v232l332 321l104 -92l-260 -346l260 -346l-104 -90z" />
<glyph unicode="&#x203a;" d="M414 170l260 346l-260 346l102 92l332 -321v-232l-332 -321z" />
<glyph unicode="&#x205f;" horiz-adv-x="456" />
<glyph unicode="&#x20ac;" d="M106 461v114l117 9q-2 23 -2 63q0 41 2 60h-117v114l132 10q45 233 193.5 365.5t367.5 132.5q102 0 196.5 -43t163.5 -117l-133 -129q-111 104 -235 105q-125 0 -206 -82t-110 -229h559v-127h-575v-52q0 -47 2 -67h491v-127h-473q31 -145 110 -223t199 -78 q76 0 137.5 31.5t118.5 97.5l134 -123q-168 -190 -404 -191q-207 0 -350 127t-186 359h-132z" />
<glyph unicode="&#x2122;" d="M-18 1241v143h518v-143h-178v-496h-160v496h-180zM582 745v639h178l80 -213l49 -153h8l47 153l80 213h178v-639h-141v240l18 225h-8l-127 -344h-102l-129 344h-8l18 -225v-240h-141z" />
<glyph unicode="&#x25fc;" horiz-adv-x="1044" d="M0 0v1044h1044v-1044h-1044z" />
</font>
</defs>
</svg>
