<?xml version="1.0" standalone="no"?>
<!DOCTYPE svg PUBLIC "-//W3C//DTD SVG 1.1//EN" "http://www.w3.org/Graphics/SVG/1.1/DTD/svg11.dtd" >
<svg xmlns="http://www.w3.org/2000/svg" xmlns:xlink="http://www.w3.org/1999/xlink" version="1.1">
<metadata></metadata>
<defs>
<font id="office_code_probold_italic" horiz-adv-x="1228" >
<font-face units-per-em="2048" ascent="1536" descent="-512" />
<missing-glyph horiz-adv-x="500" />
<glyph horiz-adv-x="0" />
<glyph horiz-adv-x="682" />
<glyph unicode=" " />
<glyph unicode="!" d="M436 154q0 100 71 167.5t169 67.5q78 0 127 -48t49 -126q0 -102 -70.5 -171t-171.5 -69q-78 0 -126 50.5t-48 128.5zM598 522l84 850h299l-186 -850h-197z" />
<glyph unicode="&#x22;" d="M358 1133l31 270h348l-51 -270l-141 -441h-185zM903 1133l31 270h348l-51 -270l-141 -441h-185z" />
<glyph unicode="#" d="M205 383l31 192h174l63 226h-162l31 192h186l97 338h172l-95 -338h213l97 338h172l-94 -338h161l-30 -192h-187l-61 -226h172l-31 -192h-194l-109 -383h-174l106 383h-211l-108 -383h-174l106 383h-151zM586 575h211l63 226h-213z" />
<glyph unicode="$" d="M168 236l164 204q106 -68 194 -98l82 233q-137 53 -217 123t-80 187q0 184 149.5 282.5t383.5 98.5l94 270l176 -20l-96 -281q117 -41 205 -143l-176 -172q-76 53 -115 69l-74 -213q137 -51 220 -121.5t83 -187.5q0 -111 -65.5 -201t-189.5 -143t-292 -53l-104 -306 l-176 21l106 309q-80 20 -150.5 57t-121.5 85zM602 922q0 -47 96 -84l62 184q-74 0 -116 -26.5t-42 -73.5zM698 313q80 0 124 27t44 74q0 31 -25.5 53t-72.5 45z" />
<glyph unicode="%" d="M68 207l438 354l90 -96l-397 -408zM199 926q0 117 49 208t132 141t181 50q117 0 187.5 -75.5t70.5 -205.5q0 -117 -49 -210t-134 -144t-183 -51q-113 0 -183.5 79t-70.5 208zM406 926q0 -66 20 -96.5t53 -30.5q56 0 94.5 61.5t38.5 181.5q0 121 -75 121q-57 0 -94 -56 t-37 -181zM616 262q0 119 49.5 210t133.5 141.5t182 50.5q115 0 185.5 -76t70.5 -205q0 -119 -50 -212t-133 -144.5t-182 -51.5q-114 0 -185 78t-71 209zM823 266q0 -68 20.5 -98.5t55.5 -30.5q53 0 92 62.5t39 181.5q0 121 -74 121q-57 0 -95 -56.5t-38 -179.5zM848 870 l397 408l129 -150l-436 -356z" />
<glyph unicode="&#x26;" d="M98 307q0 141 75 239.5t206 184.5q-45 117 -45 240q0 106 50 199.5t139 149.5t200 56q131 0 204.5 -68.5t73.5 -187.5q0 -94 -44 -168.5t-106.5 -130t-166.5 -129.5q74 -123 201 -243q102 147 162 313h274q-109 -260 -258 -457q88 -68 172 -86l-111 -244 q-135 35 -262 131q-180 -131 -391 -131q-178 0 -275.5 94.5t-97.5 237.5zM389 352q0 -66 43 -106.5t115 -40.5q65 0 139 49q-131 135 -211 278q-86 -86 -86 -180zM584 987q0 -59 16 -119q80 54 124 107t44 123q0 80 -70 80q-47 0 -80.5 -54.5t-33.5 -136.5z" />
<glyph unicode="'" d="M631 1133l31 270h348l-52 -270l-141 -441h-184z" />
<glyph unicode="(" d="M444 406q0 330 157 604t439 495l148 -133q-268 -227 -380 -452.5t-112 -511.5q0 -367 238 -641l-189 -134q-143 148 -222 347.5t-79 425.5z" />
<glyph unicode=")" d="M221 -233q268 227 380 452t112 512q0 367 -238 641l189 133q143 -147 222 -347t79 -425q0 -330 -157 -604t-439 -496z" />
<glyph unicode="*" d="M248 737l69 146l318 -88l84 364h160l-35 -364l346 88l24 -146l-335 -139l147 -322l-145 -90l-191 291l-284 -291l-117 90l250 322z" />
<glyph unicode="+" d="M233 569l35 213h361l59 377h221l-59 -377h360l-34 -213h-361l-59 -376h-221l59 376h-361z" />
<glyph unicode="," d="M330 -268q283 92 313 291q-8 -2 -22 -3q-82 0 -137.5 48.5t-55.5 130.5q0 104 79 172.5t187 68.5q102 0 154.5 -69.5t52.5 -194.5q0 -227 -134 -387t-388 -233z" />
<glyph unicode="-" d="M233 569l35 213h942l-34 -213h-943z" />
<glyph unicode="." d="M408 180q0 74 36.5 138.5t101 101.5t140.5 37q92 0 147.5 -58.5t55.5 -148.5q0 -76 -37 -138.5t-100.5 -99.5t-141.5 -37q-92 0 -147 57.5t-55 147.5z" />
<glyph unicode="/" d="M39 -66l1118 1520h252l-1118 -1520h-252z" />
<glyph unicode="0" d="M205 512q0 266 80 461.5t222 299t324 103.5q193 0 300.5 -136t107.5 -392q0 -264 -81 -462t-224 -304.5t-324 -106.5q-190 0 -297.5 140.5t-107.5 396.5zM471 504l457 569q-43 70 -133 70q-104 0 -182 -106.5t-121 -356.5q-12 -63 -21 -176zM516 283q45 -74 131 -74 q107 0 189 110.5t118 360.5q14 100 19 174z" />
<glyph unicode="1" d="M168 0l39 244h336l127 800h-269l29 187q113 18 199 48t170 73h221l-176 -1108h295l-39 -244h-932z" />
<glyph unicode="2" d="M119 0l26 172q285 223 428.5 345t231.5 236.5t88 217.5q0 80 -48 125t-136 45q-72 0 -140.5 -38t-144.5 -104l-135 164q125 111 238.5 162t258.5 51q184 0 292 -98t108 -264q0 -125 -79 -252t-203 -247t-316 -277q152 16 239 16h310l-41 -254h-977z" />
<glyph unicode="3" d="M113 166l170 190q57 -63 133 -100t162 -37q119 0 195.5 51.5t76.5 143.5q0 84 -84 128t-281 44l35 213q381 0 381 211q0 61 -44 96t-126 35q-74 0 -143.5 -30t-151.5 -91l-123 184q231 172 469 172q197 0 311.5 -85t114.5 -234q0 -238 -299 -350l-2 -9 q109 -33 175.5 -106.5t66.5 -181.5q0 -131 -82 -230.5t-215 -152t-285 -52.5q-161 0 -276 51.5t-178 139.5z" />
<glyph unicode="4" d="M123 328l33 207l497 817h301l-503 -795h335l54 330h280l-53 -330h164l-37 -229h-164l-51 -328h-281l52 328h-627z" />
<glyph unicode="5" d="M121 164l164 190q63 -63 131.5 -99t154.5 -36q127 0 209 66.5t82 185.5q0 86 -56 134t-151 48q-63 0 -110 -14t-121 -53l-119 86l144 680h796l-41 -254h-536l-66 -267q90 35 178 35q170 0 278.5 -90t108.5 -262q0 -164 -84 -286t-220 -187.5t-288 -65.5q-298 1 -454 189z " />
<glyph unicode="6" d="M211 504q0 279 100.5 476.5t258 296.5t331.5 99q129 0 228.5 -45t160.5 -114l-186 -181q-39 41 -95.5 69t-117.5 28q-131 0 -232.5 -104.5t-146.5 -334.5q78 70 169 110t167 40q156 0 250 -87t94 -253q0 -158 -78 -278t-203 -185.5t-266 -65.5q-121 0 -219 57.5 t-156.5 176.5t-58.5 295zM487 494q-2 -154 50.5 -223.5t138.5 -69.5q96 0 166.5 69.5t70.5 196.5q0 80 -44 121t-119 41q-129 0 -263 -135z" />
<glyph unicode="7" d="M301 1098l41 254h977l-31 -185q-193 -188 -300 -352t-168.5 -345t-121.5 -470h-303q49 236 117 414t172 341t270 343h-653z" />
<glyph unicode="8" d="M174 299q0 135 82 224t223 157v8q-143 115 -143 273q0 123 65.5 217t181 146t257.5 52q174 0 273 -86t99 -229q0 -207 -237 -352l-2 -9q195 -109 194 -299q0 -121 -67.5 -218t-194.5 -152.5t-297 -55.5q-202 0 -318 88.5t-116 235.5zM442 352q0 -78 57.5 -123t149.5 -45 q105 0 170.5 52.5t65.5 144.5q0 53 -34 89t-86 61.5t-159 68.5q-164 -113 -164 -248zM602 983q0 -68 56.5 -113t168.5 -88q68 58 101 115t33 121q0 68 -42 108.5t-118 40.5q-84 0 -141.5 -49t-57.5 -135z" />
<glyph unicode="9" d="M147 135l189 180q35 -41 94 -68.5t121 -27.5q131 0 232.5 104.5t146.5 335.5q-80 -70 -172 -110.5t-166 -40.5q-156 0 -250 87t-94 253q0 158 76.5 277.5t202.5 185t266 65.5q121 0 220 -57t157.5 -175t58.5 -294q0 -281 -99.5 -478.5t-258 -297t-332.5 -99.5 q-129 0 -228.5 44t-163.5 116zM524 883q0 -80 44 -121t124 -41q129 0 262 139q0 152 -53 221.5t-137 69.5q-96 0 -168 -70.5t-72 -197.5z" />
<glyph unicode=":" d="M408 180q0 74 36.5 138.5t101 101.5t140.5 37q92 0 147.5 -58.5t55.5 -148.5q0 -76 -37 -138.5t-100.5 -99.5t-141.5 -37q-92 0 -147 57.5t-55 147.5zM512 844q0 74 37 137t101.5 100t140.5 37q92 0 148 -58.5t56 -146.5q0 -76 -36.5 -139t-101 -100t-142.5 -37 q-92 0 -147.5 58.5t-55.5 148.5z" />
<glyph unicode=";" d="M330 -268q283 92 313 291q-8 -2 -22 -3q-82 0 -137.5 48.5t-55.5 130.5q0 104 79 172.5t187 68.5q102 0 154.5 -69.5t52.5 -194.5q0 -227 -134 -387t-388 -233zM512 844q0 74 37 137t101.5 100t140.5 37q92 0 148 -58.5t56 -146.5q0 -76 -36.5 -139t-101 -100t-142.5 -37 q-92 0 -147.5 58.5t-55.5 148.5z" />
<glyph unicode="&#x3c;" d="M324 549l34 209l881 573l-47 -293l-602 -381l-2 -8l483 -381l-47 -293z" />
<glyph unicode="=" d="M197 332l32 211h942l-32 -211h-942zM272 809l33 211h942l-33 -211h-942z" />
<glyph unicode="&#x3e;" d="M197 -25l47 293l602 381l2 8l-483 381l47 293l700 -573l-35 -209z" />
<glyph unicode="?" d="M393 1212q199 184 436 185q156 0 259.5 -74t103.5 -211q0 -104 -48 -171t-138 -138q-14 -12 -79 -61.5t-98.5 -103.5t-37.5 -116h-263q0 103 51.5 172.5t143.5 143.5l43 34q70 55 98.5 89t28.5 83q0 51 -37 80t-98 29q-57 0 -110.5 -24.5t-110.5 -69.5zM408 154 q0 100 70.5 167.5t168.5 67.5q78 0 127 -48t49 -126q0 -102 -70.5 -171t-170.5 -69q-78 0 -126 50.5t-48 128.5z" />
<glyph unicode="@" d="M154 522q0 274 104 464t276.5 282t372.5 92q186 0 279.5 -96.5t93.5 -255.5q0 -51 -8 -95l-92 -577h-160l-6 102h-8q-51 -57 -119 -92t-148 -35q-98 0 -158.5 70t-60.5 174q0 178 144.5 268t427.5 127l2 15q2 10 2 30q0 80 -57.5 131.5t-168.5 51.5q-119 0 -235.5 -68 t-194.5 -210t-78 -355q0 -135 48.5 -228.5t131.5 -139.5t183 -46q86 0 149.5 18.5t135.5 59.5l63 -150q-104 -55 -194.5 -82.5t-192.5 -27.5q-149 0 -270 64.5t-191.5 193.5t-70.5 315zM743 590q0 -39 25 -61.5t70 -22.5q41 0 80.5 19.5t82.5 56.5l29 186 q-162 -25 -224.5 -63.5t-62.5 -114.5z" />
<glyph unicode="A" d="M18 0l631 1352h361l200 -1352h-319l-29 324h-403l-133 -324h-308zM557 559h281l-11 127l-30 356l-6 80h-9q-72 -186 -174 -436z" />
<glyph unicode="B" d="M172 0l215 1352h418q207 0 323.5 -64.5t116.5 -218.5q0 -117 -73.5 -214t-206.5 -132l-2 -8q245 -47 245 -262q0 -223 -162.5 -338t-416.5 -115h-457zM510 233h131q274 0 274 218q0 74 -53 107.5t-164 33.5h-131zM600 805h102q123 0 181.5 52t58.5 142q0 61 -46 90 t-142 29h-105z" />
<glyph unicode="C" d="M207 545q0 250 104.5 438t278.5 290.5t377 102.5q119 0 212 -48t156 -124l-194 -186q-45 47 -96.5 72.5t-118.5 25.5q-111 0 -203 -66.5t-147.5 -187.5t-55.5 -276q0 -164 75 -257t204 -93q131 0 258 120l135 -182q-199 -199 -453 -199q-153 0 -274 65.5t-189.5 195 t-68.5 309.5z" />
<glyph unicode="D" d="M133 0l215 1352h363q260 0 405.5 -134.5t145.5 -400.5q0 -262 -96.5 -446.5t-265.5 -277.5t-388 -93h-379zM475 244h43q201 0 315.5 133t114.5 414q0 170 -75.5 243.5t-217.5 73.5h-43z" />
<glyph unicode="E" d="M193 0l215 1352h880l-41 -254h-579l-43 -277h491l-41 -252h-491l-49 -315h600l-41 -254h-901z" />
<glyph unicode="F" d="M221 0l215 1352h881l-41 -254h-580l-51 -318h494l-39 -254h-494l-84 -526h-301z" />
<glyph unicode="G" d="M182 539q0 252 101.5 442t271.5 292.5t369 102.5q225 0 364 -172l-194 -186q-41 49 -88.5 73.5t-122.5 24.5q-102 0 -191.5 -68.5t-141.5 -193.5t-52 -289q0 -158 64.5 -243.5t193.5 -85.5q39 0 76.5 11t62.5 32l37 235h-195l39 246h465l-98 -621q-84 -70 -204 -117 t-241 -47q-151 0 -268 65.5t-182.5 192.5t-65.5 306z" />
<glyph unicode="H" d="M131 0l215 1352h301l-84 -523h365l84 523h301l-215 -1352h-301l90 565h-365l-90 -565h-301z" />
<glyph unicode="I" d="M152 0l41 254h311l133 844h-311l41 254h925l-41 -254h-311l-133 -844h311l-41 -254h-925z" />
<glyph unicode="J" d="M152 199l204 186q45 -74 104.5 -111.5t125.5 -37.5q106 0 165.5 56t79.5 191l99 617h-522l41 252h821l-142 -893q-33 -217 -173 -350.5t-400 -133.5q-123 0 -230.5 53.5t-172.5 170.5z" />
<glyph unicode="K" d="M139 0l215 1352h305l-90 -557h6l486 557h332l-486 -539l310 -813h-334l-193 573l-188 -208l-58 -365h-305z" />
<glyph unicode="L" d="M219 0l215 1352h301l-174 -1098h594l-41 -254h-895z" />
<glyph unicode="M" horiz-adv-x="1290" d="M133 0l215 1352h303l78 -482l25 -188h6l80 188l229 482h303l-215 -1352h-244l72 451q14 98 57 282.5t78 323.5h-8l-168 -369l-176 -328h-135l-76 328l-47 369h-8q-6 -123 -23.5 -313.5t-34.5 -292.5l-71 -451h-240z" />
<glyph unicode="N" d="M135 0l215 1352h307l174 -678l68 -297h8l6 117q8 240 29 372l78 486h289l-215 -1352h-308l-174 680l-69 293h-8l-7 -125q-2 -90 -8 -187.5t-18 -175.5l-78 -485h-289z" />
<glyph unicode="O" d="M170 532q0 254 87 445.5t237.5 295t336.5 103.5q205 0 324 -145.5t119 -401.5q0 -250 -87 -444.5t-238.5 -302t-338.5 -107.5q-202 0 -321 149.5t-119 407.5zM481 551q0 -145 45 -230t125 -85q88 0 159 76.5t112 208.5t41 290q0 143 -45.5 224t-126.5 81 q-88 0 -159 -73.5t-111 -202.5t-40 -289z" />
<glyph unicode="P" d="M152 0l215 1352h487q211 0 336 -84t125 -275q0 -176 -83 -295.5t-219 -178t-300 -58.5h-187l-73 -461h-301zM563 700h168q143 0 213 67t70 189q0 82 -54.5 119t-162.5 37h-168z" />
<glyph unicode="Q" d="M166 530q0 254 86 446.5t235.5 296t337.5 103.5q205 0 322 -143t117 -402q0 -205 -60.5 -375.5t-170 -286.5t-251.5 -165q23 -70 83.5 -100.5t140.5 -30.5q55 0 112 27l19 -226q-86 -43 -205 -43q-189 0 -307.5 98.5t-157.5 264.5q-143 41 -222 182t-79 354zM477 547 q0 -145 43 -228t125 -83q88 0 158.5 76.5t110.5 209.5t40 291q0 143 -44 223t-126 80q-90 0 -159.5 -74.5t-108.5 -204.5t-39 -290z" />
<glyph unicode="R" d="M143 0l215 1352h473q209 0 333 -81t124 -267q0 -170 -83 -286t-224 -175l215 -543h-338l-178 489h-158l-78 -489h-301zM559 729h148q135 0 207.5 61.5t72.5 176.5q0 78 -54 111.5t-165 33.5h-147z" />
<glyph unicode="S" d="M129 170l207 207q68 -66 151.5 -103.5t167.5 -37.5q113 0 168.5 39.5t55.5 109.5q0 51 -41 79t-142 68l-159 76q-102 41 -167 121t-65 195q0 125 74 228t202 163.5t281 60.5q123 0 232.5 -46t185.5 -132l-184 -190q-66 55 -129.5 81.5t-145.5 26.5q-94 0 -149.5 -37 t-55.5 -102q0 -49 44.5 -77t150.5 -69l152 -71q233 -92 233 -311q0 -127 -72.5 -236t-207 -173.5t-310.5 -64.5q-137 0 -262 50.5t-215 144.5z" />
<glyph unicode="T" d="M238 1098l41 254h1101l-41 -254h-399l-174 -1098h-303l174 1098h-399z" />
<glyph unicode="U" d="M201 375q0 70 12 145l131 832h303l-137 -863q-8 -61 -8 -81q0 -172 153 -172q188 0 230 253l137 863h289l-131 -832q-41 -266 -183.5 -405.5t-382.5 -139.5q-206 0 -309.5 101.5t-103.5 298.5z" />
<glyph unicode="V" d="M246 1352h317l64 -633q8 -74 12 -129t6 -90q4 -63 17 -215h8q37 84 139 340q18 39 39 94l258 633h307l-616 -1352h-363z" />
<glyph unicode="W" d="M186 0l37 1352h307l-71 -723l-47 -344h6q23 66 71 196l56 148l151 379h183l28 -379q0 -55 2 -96t4 -70q4 -59 9 -178h8q18 92 22 127q37 195 43 217l154 723h287l-381 -1352h-316l-16 430l-2 94q0 88 6 164h-6q-29 -113 -78 -258l-147 -430h-310z" />
<glyph unicode="X" d="M37 0l500 694l-263 658h338l88 -258q4 -12 29 -90q16 -61 39 -127h8q59 115 125 217l160 258h323l-473 -672l281 -680h-336l-102 279q-39 113 -70 221h-8q-80 -139 -133 -221l-185 -279h-321z" />
<glyph unicode="Y" d="M248 1352h323l82 -328q37 -143 72 -309h8l70 123q78 143 104 186l189 328h315l-573 -895l-72 -457h-303l72 457z" />
<glyph unicode="Z" d="M115 0l28 182l772 918h-567l41 252h938l-31 -183l-768 -915h633l-41 -254h-1005z" />
<glyph unicode="[" d="M362 -311l279 1761h604l-24 -160h-375l-230 -1442h375l-24 -159h-605z" />
<glyph unicode="\" d="M279 1454h251l639 -1520h-251z" />
<glyph unicode="]" d="M166 -311l24 159h373l230 1442h-373l24 160h605l-279 -1761h-604z" />
<glyph unicode="^" d="M264 561l447 811h241l189 -811h-248l-51 262l-49 277h-9l-135 -277l-137 -262h-248z" />
<glyph unicode="_" d="M70 -336l34 225h983l-34 -225h-983z" />
<glyph unicode="`" d="M532 1518h308l129 -342h-219z" />
<glyph unicode="a" d="M168 408q0 197 79 348t201.5 233t251.5 82q82 0 136.5 -28.5t105.5 -86.5l39 88h266l-166 -1044h-245l-7 109h-6q-68 -59 -148.5 -96.5t-154.5 -37.5q-166 0 -259 115t-93 318zM479 438q0 -109 41 -163t117 -54q102 1 194 101l68 430q-65 73 -156 73h-2q-68 0 -128 -44 t-97 -132t-37 -211z" />
<glyph unicode="b" d="M147 0l236 1481h301l-59 -367l-35 -166q70 57 149.5 90t153.5 33q160 0 248 -112.5t88 -305.5q0 -203 -79 -357.5t-204 -237.5t-258 -83q-72 0 -137.5 36t-116.5 104h-8l-43 -115h-236zM496 293q66 -72 163 -72q70 0 128.5 45t94.5 136.5t36 218.5q0 204 -149 204h-1 q-96 0 -205 -102z" />
<glyph unicode="c" d="M211 436q0 193 96 337.5t254 221t334 76.5q115 0 207 -39t151 -104l-170 -187q-98 86 -211 86q-98 0 -177 -45t-125 -126t-46 -185q0 -115 65.5 -183.5t176.5 -68.5q135 0 285 100l92 -190q-100 -76 -218 -115t-227 -39q-143 0 -253.5 54.5t-172 159t-61.5 247.5z" />
<glyph unicode="d" d="M168 408q0 197 79 348t201.5 233t251.5 82q82 0 136.5 -28.5t105.5 -86.5l16 164l58 361h301l-236 -1481h-245l-7 109h-6q-68 -59 -148.5 -96.5t-154.5 -37.5q-166 0 -259 115t-93 318zM479 438q0 -109 41 -163t117 -54q102 1 194 101l68 430q-65 73 -156 73h-2 q-68 0 -128 -44t-97 -132t-37 -211z" />
<glyph unicode="e" d="M186 436q0 188 91.5 332.5t235.5 223.5t298 79q197 0 301.5 -114.5t104.5 -299.5q0 -90 -19.5 -151.5t-21.5 -71.5h-684v-12q0 -106 68 -160q72 -57 190 -57q127 0 274 74l68 -183q-94 -55 -207 -88t-213 -33q-142 0 -252.5 55.5t-172 159t-61.5 246.5zM518 635h428 q4 37 4 51q0 74 -42 114t-128 40t-156.5 -52.5t-105.5 -152.5z" />
<glyph unicode="f" d="M297 809l35 223l268 12l6 33q35 193 166 310.5t356 117.5q145 0 299 -57l-92 -221q-92 41 -207 41q-96 0 -150 -46t-71 -143l-6 -35h352l-36 -235h-351l-129 -809h-301l129 809h-268z" />
<glyph unicode="g" d="M111 -315l131 204q59 -53 133 -75.5t145 -22.5q104 0 178 55.5t88 122.5l33 170q-59 -51 -138 -81.5t-153 -30.5q-164 0 -260 115.5t-96 303.5q0 180 77 322.5t200.5 222.5t257.5 80q160 0 254 -135h8l43 108h235l-166 -1044q-35 -213 -187.5 -328.5t-410.5 -115.5 q-98 0 -200.5 30.5t-171.5 98.5zM481 483q0 -102 44 -158.5t120 -56.5q103 1 195 105l59 379q-65 73 -159 73h-3q-59 0 -118.5 -42t-98.5 -119.5t-39 -180.5z" />
<glyph unicode="h" d="M147 0l236 1481h301l-59 -367l-50 -203q184 160 371 160q139 0 206 -76.5t67 -222.5q0 -51 -11 -127l-102 -645h-301l96 606q6 43 6 80q0 68 -28.5 98.5t-94.5 30.5q-57 0 -106 -27.5t-119 -89.5l-110 -698h-302z" />
<glyph unicode="i" d="M125 0l39 244h348l90 565h-348l37 235h649l-127 -800h348l-39 -244h-997zM625 1337q0 102 69.5 171t170.5 69q80 0 128 -49.5t48 -126.5q0 -104 -69 -169t-171 -65q-80 0 -128 46t-48 124z" />
<glyph unicode="j" d="M27 -373l123 215q100 -51 198 -51t153.5 69.5t69.5 155.5l125 793h-405l37 235h708l-162 -1015q-76 -473 -544 -473h-5q-163 0 -298 71zM721 1370q0 102 69.5 171t170.5 69q80 0 128 -49.5t48 -126.5q0 -104 -69 -169t-171 -65q-80 0 -128 46t-48 124z" />
<glyph unicode="k" d="M156 0l235 1481h301l-137 -867h8l441 430h329l-452 -428l317 -616h-326l-198 432l-176 -168l-41 -264h-301z" />
<glyph unicode="l" d="M324 1243l38 238h594l-172 -1090q-4 -29 -4 -41q0 -70 40 -100.5t102 -30.5q78 0 165 35l33 -221q-100 -31 -164.5 -44.5t-150.5 -13.5q-162 0 -245 85t-83 241q0 55 8 105l133 837h-294z" />
<glyph unicode="m" d="M74 0l166 1044h225l2 -131h8q92 158 242 158q68 0 106.5 -44t44.5 -128q41 78 104.5 125t145.5 47q86 0 133 -62.5t47 -174.5q0 -51 -8 -101l-116 -733h-283l113 711q4 33 4 43q0 61 -45 61q-53 0 -111 -106l-113 -709h-231l113 711q4 29 4 39q0 65 -46 65h-1 q-29 0 -53.5 -25.5t-55.5 -80.5l-113 -709h-282z" />
<glyph unicode="n" d="M147 0l166 1044h246v-141h8q88 78 180.5 123t196.5 45q274 0 275 -299q0 -51 -11 -127l-102 -645h-301l96 606q6 43 6 80q0 68 -28.5 98.5t-94.5 30.5q-57 0 -106 -27.5t-119 -89.5l-110 -698h-302z" />
<glyph unicode="o" d="M170 436q0 190 89 334.5t230.5 222.5t294.5 78q121 0 221.5 -55t160 -160.5t59.5 -247.5q0 -190 -89 -334.5t-230.5 -221.5t-295.5 -77q-121 0 -221 55.5t-159.5 160t-59.5 245.5zM481 446q0 -106 42 -166.5t126 -60.5q125 0 194.5 107.5t69.5 271.5q0 109 -42 169 t-126 60q-125 0 -194.5 -107.5t-69.5 -273.5z" />
<glyph unicode="p" d="M82 -420l231 1464h246l6 -106h6q72 59 159 96t165 37q160 0 247 -112.5t87 -305.5q0 -203 -79 -357.5t-204 -237.5t-258 -83q-68 0 -129 30t-106 85l-17 -172l-53 -338h-301zM496 293q66 -72 161 -72q72 0 131.5 45t94.5 135.5t35 219.5q0 204 -149 204h-1 q-96 0 -205 -102z" />
<glyph unicode="q" d="M168 408q0 197 79 348t201.5 233t251.5 82q86 0 147.5 -31.5t113.5 -103.5h8l43 108h235l-233 -1466h-301l57 356l39 164q-66 -55 -142.5 -89t-146.5 -34q-166 0 -259 115t-93 318zM479 438q0 -109 41 -163t117 -54q102 1 194 101l68 430q-65 73 -156 73h-2 q-68 0 -128 -44t-97 -132t-37 -211z" />
<glyph unicode="r" d="M238 0l165 1044h246l-12 -229h6q94 127 211 191.5t242 64.5q63 0 103 -10t87 -33l-102 -252q-57 16 -91 23.5t-85 7.5q-100 0 -200.5 -62.5t-182.5 -195.5l-86 -549h-301z" />
<glyph unicode="s" d="M129 135l166 189q84 -61 168 -93t180 -32q211 0 211 100q0 41 -60.5 71.5t-189.5 69.5q-139 41 -228 109.5t-89 169.5q0 100 65.5 180t184 126t274.5 46q217 0 416 -143l-164 -180q-143 98 -283 98q-190 0 -190 -92q0 -41 58.5 -69t180.5 -62q154 -45 242 -109.5 t88 -171.5q0 -102 -66.5 -185t-192.5 -132.5t-298 -49.5q-131 0 -255 45.5t-218 114.5z" />
<glyph unicode="t" d="M229 809l37 235h271l49 308l305 123l-68 -431h430l-36 -235h-431l-59 -375q-6 -37 -6 -67q0 -82 44 -119t138 -37q102 0 209 39l21 -217q-193 -57 -342 -58q-377 0 -377 336q0 49 10 121l59 377h-254z" />
<glyph unicode="u" d="M180 270q0 70 10 129l103 645h301l-96 -606q-8 -61 -9 -82q0 -66 29 -95.5t94 -29.5q57 0 106.5 28t112.5 97l109 688h301l-166 -1044h-246l2 152h-8q-88 -86 -177 -131.5t-193 -45.5q-273 0 -273 295z" />
<glyph unicode="v" d="M229 1044h303l80 -499q16 -104 41 -322h9q23 47 37 83t24 59l80 180l237 499h291l-538 -1044h-347z" />
<glyph unicode="w" d="M174 1044h293l-14 -491l-7 -121q-4 -66 -8 -188h6q33 117 97 309l121 358h210l11 -358q2 -51 2 -154q0 -102 -2 -155h8q16 57 45 172l37 137l139 491h274l-323 -1044h-348v360q0 119 10 308h-8q-47 -182 -86 -308l-113 -360h-342z" />
<glyph unicode="x" d="M76 0l438 543l-250 501h324l76 -172q18 -53 61 -137l18 -41h9l110 178l119 172h315l-417 -534l272 -510h-324l-88 178q-70 141 -88 180h-8l-123 -180l-129 -178h-315z" />
<glyph unicode="y" d="M70 -424l90 229q37 -12 78 -12q78 0 135 47t88 101l47 84l-279 1019h297l99 -456q33 -156 53 -314h8q49 117 143 314l222 456h284l-577 -1093q-109 -205 -229.5 -300t-305.5 -95q-85 0 -153 20z" />
<glyph unicode="z" d="M143 0l27 162l635 647h-467l37 235h882l-26 -159l-635 -649h549l-37 -236h-965z" />
<glyph unicode="{" d="M293 481l29 176q111 2 200.5 32t141 76t51.5 93q0 31 -7.5 57.5t-21.5 69.5q-29 82 -29 137q0 158 83 246t253 88q45 0 94 -6l156 -20l-26 -160l-80 20q-51 14 -93 15q-90 0 -116.5 -54.5t-26.5 -130.5q0 -41 25 -123q25 -86 24 -133q0 -121 -96 -194.5t-236 -96.5v-8 q106 -18 177 -76.5t71 -152.5q0 -51 -18.5 -94t-56.5 -101q-37 -57 -55.5 -98t-18.5 -92q0 -55 24.5 -85t83.5 -30q33 0 82 12l88 21l-26 -160l-160 -20q-47 -6 -86 -6q-256 0 -256 233q0 80 24.5 133t69.5 113q35 45 51.5 78.5t16.5 76.5q0 37 -41 74t-118 62.5t-177 27.5z " />
<glyph unicode="|" d="M399 -512l326 2048h266l-325 -2048h-267z" />
<glyph unicode="}" d="M168 -291l27 160l79 -21q51 -14 93 -14q90 0 115.5 53.5t25.5 130.5q0 49 -23 121q-10 33 -17 67t-7 66q0 123 96 197t236 96v8q-109 18 -178.5 77t-69.5 153q0 51 18.5 94t54.5 98q37 61 55.5 101.5t18.5 91.5q0 113 -108 112q-29 0 -80 -10l-88 -20l26 160l160 20 q47 6 86 6q256 0 256 -233q0 -80 -24.5 -133.5t-69.5 -112.5q-35 -47 -52.5 -81t-17.5 -75q0 -37 41 -73.5t119 -62.5t178 -28l-28 -176q-111 -2 -201 -31.5t-141.5 -75.5t-51.5 -93q0 -31 7.5 -57.5t21.5 -69.5q29 -82 29 -138q0 -158 -83 -245.5t-253 -87.5q-45 0 -94 6z " />
<glyph unicode="~" d="M197 563q86 154 183 225.5t198 71.5q63 0 106 -23.5t92 -66.5q37 -33 64.5 -49t62.5 -16q45 0 90 41.5t86 125.5l168 -84q-86 -154 -183 -225t-198 -71q-63 0 -106 23.5t-92 66.5q-39 33 -67 49t-62 16q-43 0 -88 -43t-89 -125z" />
<glyph unicode="&#xa0;" />
<glyph unicode="&#xa1;" d="M408 -356l186 850h197l-84 -850h-299zM539 801q0 102 70.5 170.5t168.5 68.5q78 0 127 -50t49 -128q0 -100 -70.5 -167.5t-170.5 -67.5q-78 0 -126 48t-48 126z" />
<glyph unicode="&#xa2;" d="M287 541q0 164 69.5 292t190.5 206.5t270 103.5l33 198h166l-31 -190q78 -8 138.5 -38t97.5 -77l-166 -184q-55 49 -109 55l-88 -557q76 12 160 72l90 -191q-63 -49 -139 -79.5t-148 -40.5l-30 -195h-166l30 195q-174 23 -271 135t-97 295zM584 578q0 -72 28.5 -125.5 t83.5 -79.5l80 512q-94 -39 -143 -120t-49 -187z" />
<glyph unicode="&#xa3;" d="M137 0l29 186q131 47 213 139.5t82 206.5v23h-230l29 176l172 10q-16 82 -16 129q0 129 70.5 233.5t193.5 163t272 58.5q123 0 209 -42t148 -124l-189 -164q-37 45 -78 65.5t-98 20.5q-117 0 -181.5 -59t-64.5 -178q0 -55 7 -103h346l-29 -186h-299q0 -10 -2 -27.5 t-4 -29.5q-10 -72 -44 -125.5t-104 -110.5v-8h598l-41 -254h-989z" />
<glyph unicode="&#xa4;" d="M119 281l192 168q-41 70 -41 169q0 158 111 281l-137 168l172 152l153 -185q109 51 217 51q109 0 201 -51l211 185l127 -152l-192 -168q39 -68 38 -168q0 -158 -112 -282l141 -168l-174 -152l-156 186q-100 -49 -213 -49q-111 0 -200 49l-213 -186zM543 641 q0 -76 41 -121t106 -45q86 0 148.5 65.5t62.5 168.5q0 76 -41 122t-106 46q-86 0 -148.5 -67t-62.5 -169z" />
<glyph unicode="&#xa5;" d="M164 301l22 143h346l19 113h-346l22 143h281l-238 600h310l79 -272q27 -96 35 -127l41 -141h8l160 268l168 272h301l-430 -600h281l-23 -143h-348l-18 -113h348l-23 -143h-348l-47 -301h-301l47 301h-346z" />
<glyph unicode="&#xa6;" d="M399 -512l148 930h266l-147 -930h-267zM582 639l143 897h266l-143 -897h-266z" />
<glyph unicode="&#xa7;" d="M166 0l196 154q88 -104 211 -105q66 0 102 26.5t36 69.5q0 39 -39 67t-123 67q-92 43 -153.5 81.5t-105.5 103t-44 157.5q0 94 58 173.5t157 135.5q-37 57 -37 133q0 98 52 178t146.5 126t219.5 46q109 0 197.5 -38t154.5 -95l-170 -188q-43 43 -95 70.5t-106 27.5 q-59 0 -91 -23.5t-32 -62.5q0 -35 40 -62.5t124 -68.5q98 -49 160.5 -88t109 -104.5t46.5 -155.5q0 -199 -219 -316q27 -53 26 -119q0 -100 -53 -183t-155.5 -131t-239.5 -48q-117 0 -218.5 44t-154.5 128zM508 676q0 -57 50 -96t151 -86q86 -41 116 -60q49 29 72 61.5 t23 77.5q0 59 -52.5 98.5t-158.5 88.5q-63 27 -105 49q-96 -49 -96 -133z" />
<glyph unicode="&#xa8;" d="M438 1309q0 76 55.5 129t133.5 53q61 0 99 -39t38 -98q0 -78 -54.5 -131.5t-134.5 -53.5q-61 0 -99 39t-38 101zM887 1307q0 78 54 131t132 53q63 0 101 -39t38 -98q0 -76 -56 -130.5t-134 -54.5q-61 0 -98 39t-37 99z" />
<glyph unicode="&#xa9;" horiz-adv-x="1349" d="M94 563q0 231 111.5 408.5t295 273.5t388.5 96q164 0 295 -69.5t205.5 -199.5t74.5 -304q0 -231 -111.5 -410.5t-293.5 -277.5t-385 -98q-164 0 -296 70.5t-208 202.5t-76 308zM236 580q0 -141 58 -248t161.5 -166.5t236.5 -59.5q168 0 314.5 83t233.5 230.5t87 332.5 q0 139 -58.5 244.5t-163 164t-237.5 58.5q-168 0 -313 -81t-232 -227.5t-87 -330.5zM403 598q0 135 67 239.5t174.5 162t223.5 57.5q86 0 143.5 -32t106.5 -89l-131 -125q-29 35 -59.5 52.5t-69.5 17.5q-109 0 -173 -76t-64 -187q0 -84 42 -133t115 -49q47 0 86 17.5 t88 52.5l76 -139q-150 -106 -287 -107q-153 0 -245.5 92t-92.5 246z" />
<glyph unicode="&#xaa;" d="M426 692q0 121 104.5 187.5t337.5 87.5q4 43 -21.5 65.5t-78.5 22.5q-78 0 -197 -60l-53 138q166 90 320 90q117 0 179 -57.5t62 -174.5q0 -35 -6 -78l-59 -381h-176l-4 68h-5q-113 -84 -217 -84q-86 0 -136 50t-50 126zM637 729q0 -25 18.5 -38t49.5 -13q63 0 126 53 l17 109q-115 -14 -163 -42t-48 -69z" />
<glyph unicode="&#xab;" d="M143 367l47 299l402 315l108 -113l-315 -352l205 -352l-146 -113zM688 367l47 299l402 315l108 -113l-315 -352l205 -352l-146 -113z" />
<glyph unicode="&#xac;" d="M233 569l35 213h942l-94 -589h-221l59 376h-721z" />
<glyph unicode="&#xad;" d="M233 569l35 213h942l-34 -213h-943z" />
<glyph unicode="&#xae;" d="M367 991q0 131 67.5 239.5t177 171t232.5 62.5q100 0 179 -45t123 -126t44 -183q0 -131 -66.5 -239.5t-176 -171t-234.5 -62.5q-99 0 -177.5 45t-123.5 126t-45 183zM479 999q0 -119 67.5 -190.5t182.5 -71.5q96 0 177 46t127 129t46 190q0 121 -68.5 191.5t-183.5 70.5 q-96 0 -176 -46t-126 -129t-46 -190zM582 852l63 403h182q68 0 108 -28.5t40 -85.5q0 -43 -23.5 -77t-68.5 -54l61 -158h-123l-43 123h-59l-19 -123h-118zM733 1057h41q33 0 53.5 19.5t20.5 45.5q0 20 -14.5 32.5t-40.5 12.5h-43z" />
<glyph unicode="&#xaf;" d="M524 1212l29 191h565l-28 -191h-566z" />
<glyph unicode="&#xb0;" d="M492 1069q0 94 48 171t128 121t172 44q111 0 181.5 -70.5t70.5 -181.5q0 -94 -47.5 -172t-127 -122t-172.5 -44q-112 0 -182.5 70.5t-70.5 183.5zM653 1083q0 -55 31 -90t84 -35q70 0 117 50.5t47 126.5q0 55 -31 90t-86 35q-70 0 -116 -50.5t-46 -126.5z" />
<glyph unicode="&#xb1;" d="M143 0l33 213h942l-33 -213h-942zM240 602l32 213h361l55 344h221l-55 -344h360l-32 -213h-361l-45 -278h-221l45 278h-360z" />
<glyph unicode="&#xb4;" d="M633 1176l235 342h308l-324 -342h-219z" />
<glyph unicode="&#xb5;" d="M63 -401l226 1417h299l-92 -588q-6 -39 -7 -70q0 -68 29 -97.5t88 -29.5q61 0 115.5 36t114.5 122l100 627h303q-47 -229 -92 -472t-45 -261q0 -63 61 -64q20 0 37 4l2 -223q-63 -25 -155 -25q-190 0 -213 193h-9q-55 -88 -125.5 -135t-146.5 -47q-100 0 -137 51 q-39 -281 -47 -438h-306z" />
<glyph unicode="&#xb6;" d="M229 803q0 279 159 405.5t409 126.5h86l-148 -932h-82q-186 0 -305 104.5t-119 295.5zM752 -164l237 1499h299l-237 -1499h-299z" />
<glyph unicode="&#xb7;" d="M487 690q0 74 37 137.5t101.5 100.5t142.5 37q92 0 147.5 -58.5t55.5 -146.5q0 -76 -37 -139.5t-101.5 -100.5t-142.5 -37q-92 0 -147.5 58.5t-55.5 148.5z" />
<glyph unicode="&#xb8;" d="M354 -332q184 18 185 99q0 51 -107 77l109 164h176l-58 -96q98 -35 99 -127q0 -113 -114 -171t-286 -67z" />
<glyph unicode="&#xba;" d="M403 813q0 121 58.5 215t152 144.5t195.5 50.5q125 0 208 -81t83 -218q0 -121 -57.5 -214.5t-150.5 -143.5t-196 -50q-125 0 -209 81t-84 216zM623 819q0 -63 24.5 -99t75.5 -36q82 0 121 66.5t39 169.5q0 63 -26 98t-77 35q-78 0 -117.5 -65.5t-39.5 -168.5z" />
<glyph unicode="&#xbb;" d="M147 164l316 352l-205 352l145 113l299 -315l-47 -299l-399 -316zM692 164l316 352l-205 352l145 113l299 -315l-47 -299l-399 -316z" />
<glyph unicode="&#xbc;" d="M68 207l436 354l90 -96l-397 -408zM315 1098l21 131q76 8 122 23.5t105 47.5h170l-102 -636h-219l69 434h-166zM610 125l17 104l309 410h274l-59 -379h104l-20 -135h-105l-20 -125h-192l20 125h-328zM825 260h133l9 45l41 203h-7zM846 870l397 408l129 -150l-436 -356z " />
<glyph unicode="&#xbd;" d="M68 207l436 354l90 -96l-397 -408zM315 1098l21 131q76 8 122 23.5t105 47.5h170l-102 -636h-219l69 434h-166zM612 0l19 113q162 96 255 174t93 131q0 33 -20.5 51t-57.5 18q-61 0 -127 -71l-106 114q147 133 293 134q109 0 172 -51.5t63 -139.5q0 -78 -54.5 -144.5 t-156.5 -150.5h191l-29 -178h-535zM846 870l397 408l129 -150l-436 -356z" />
<glyph unicode="&#xbe;" d="M82 207l436 354l90 -96l-397 -408zM190 723l105 135q31 -25 76 -42t86 -17t68.5 17.5t27.5 49.5q0 63 -139 64l18 114q133 0 133 72q0 23 -18.5 35t-50.5 12q-57 0 -144 -51l-67 129q55 39 128.5 61.5t155.5 22.5q94 0 155.5 -44t61.5 -116q0 -61 -25.5 -100t-111.5 -68 q115 -31 115 -131q0 -66 -43 -117t-113.5 -80.5t-150.5 -29.5q-76 0 -141.5 18.5t-125.5 65.5zM612 125l17 104l309 410h272l-59 -379h106l-20 -135h-107l-20 -125h-190l20 125h-328zM827 260h134l8 45l41 203h-6zM860 870l397 408l129 -150l-436 -356z" />
<glyph unicode="&#xbf;" d="M199 -96q0 104 47 170.5t137 138.5q16 12 79.5 62.5t98.5 103.5t37 115h262q0 -102 -51 -173t-141 -143l-39 -31q-72 -55 -102.5 -91t-30.5 -85q0 -51 36.5 -79.5t98.5 -28.5q57 0 110.5 24.5t112.5 69.5l143 -154q-96 -88 -202.5 -136t-233.5 -48q-158 0 -260 74 t-102 211zM567 801q0 102 71 170.5t169 68.5q78 0 127 -50t49 -128q0 -100 -70.5 -167.5t-171.5 -67.5q-77 0 -125.5 48t-48.5 126z" />
<glyph unicode="&#xc0;" d="M18 0l629 1350h361l202 -1350h-319l-29 324h-403l-133 -324h-308zM551 1700h319l127 -248h-239zM557 559h281l-11 125l-12 152q-18 207 -27 282h-8q-66 -172 -172 -434z" />
<glyph unicode="&#xc1;" d="M18 0l629 1350h361l202 -1350h-319l-29 324h-403l-133 -324h-308zM557 559h281l-11 125l-12 152q-18 207 -27 282h-8q-66 -172 -172 -434zM690 1452l205 248h319l-284 -248h-240z" />
<glyph unicode="&#xc2;" d="M18 0l629 1350h361l202 -1350h-319l-29 324h-403l-133 -324h-308zM500 1452l235 248h295l158 -248h-232l-88 127h-8l-129 -127h-231zM557 559h281l-11 125l-12 152q-18 207 -27 282h-8q-66 -172 -172 -434z" />
<glyph unicode="&#xc3;" d="M18 0l629 1350h361l202 -1350h-319l-29 324h-403l-133 -324h-308zM498 1456q34 135 106 208t156 73q43 0 74.5 -15.5t72.5 -42.5q6 -4 24.5 -15t33 -16.5t26.5 -5.5q59 0 92 95h154q-35 -135 -106.5 -208t-155.5 -73q-43 0 -75 15.5t-73 41.5q-6 4 -24.5 15.5t-32.5 16.5 t-27 5q-57 0 -92 -94h-153zM557 559h281l-11 127l-28 338l-8 96h-9q-59 -152 -174 -434z" />
<glyph unicode="&#xc4;" d="M18 0l629 1350h361l202 -1350h-319l-29 324h-403l-133 -324h-308zM518 1573q0 70 49 117t119 47q55 0 89 -34t34 -89q0 -70 -48 -117t-120 -47q-55 0 -89 34t-34 89zM557 559h281l-11 125l-36 436h-9q-72 -186 -174 -436zM924 1573q0 70 49 117t119 47q55 0 88.5 -34 t33.5 -89q0 -70 -48 -117t-119 -47q-56 0 -89.5 34t-33.5 89z" />
<glyph unicode="&#xc5;" d="M18 0l629 1350h361l202 -1350h-319l-29 324h-403l-133 -324h-308zM557 559h281l-11 125l-36 436h-9q-72 -186 -174 -436zM641 1616q0 100 76 165.5t190 65.5q92 0 147.5 -48t55.5 -126q0 -102 -76 -166.5t-190 -64.5q-94 0 -148.5 47t-54.5 127zM788 1630 q0 -35 20.5 -55.5t51.5 -20.5q41 0 69.5 30t28.5 75q0 33 -19 54.5t-50 21.5q-41 0 -71 -30t-30 -75z" />
<glyph unicode="&#xc6;" d="M-6 0l643 1352h778l-41 -254h-297l-43 -273h242l-41 -254h-242l-49 -317h316l-41 -254h-582l49 311h-242l-141 -311h-309zM551 545h172l92 579h-6q-23 -51 -147 -336l-23 -49z" />
<glyph unicode="&#xc7;" d="M207 545q0 250 104.5 438t278.5 290.5t377 102.5q119 0 212 -48t156 -124l-194 -186q-45 47 -96.5 72.5t-118.5 25.5q-111 0 -203 -66.5t-147.5 -187.5t-55.5 -276q0 -164 75 -257t204 -93q131 0 258 120l135 -182q-178 -178 -404 -197l-38 -67q98 -35 98 -129 q0 -113 -112.5 -171.5t-286.5 -66.5l-5 121q184 18 185 98q0 53 -105 80l94 144q-186 35 -298.5 180t-112.5 379z" />
<glyph unicode="&#xc8;" d="M193 0l213 1350h880l-39 -254h-579l-43 -275h491l-41 -252h-491l-49 -315h600l-41 -254h-901zM594 1700h321l125 -248h-239z" />
<glyph unicode="&#xc9;" d="M193 0l213 1350h880l-39 -254h-579l-43 -275h491l-41 -252h-491l-49 -315h600l-41 -254h-901zM735 1452l203 248h322l-285 -248h-240z" />
<glyph unicode="&#xca;" d="M193 0l213 1350h880l-39 -254h-579l-43 -275h491l-41 -252h-491l-49 -315h600l-41 -254h-901zM545 1452l235 248h293l158 -248h-230l-88 127h-8l-131 -127h-229z" />
<glyph unicode="&#xcb;" d="M193 0l213 1350h880l-39 -254h-579l-43 -275h491l-41 -252h-491l-49 -315h600l-41 -254h-901zM563 1573q0 68 48 116t118 48q57 0 90 -34t33 -89q0 -68 -48 -116t-120 -48q-55 0 -88 34t-33 89zM969 1573q0 70 49 117t119 47q55 0 87.5 -34t32.5 -89q0 -68 -48 -116 t-117 -48q-56 0 -89.5 34t-33.5 89z" />
<glyph unicode="&#xcc;" d="M152 0l41 254h311l133 842h-311l39 254h925l-39 -254h-311l-133 -842h311l-41 -254h-925zM551 1700h319l127 -248h-239z" />
<glyph unicode="&#xcd;" d="M152 0l41 254h311l133 842h-311l39 254h925l-39 -254h-311l-133 -842h311l-41 -254h-925zM690 1452l205 248h319l-284 -248h-240z" />
<glyph unicode="&#xce;" d="M152 0l41 254h311l133 842h-311l39 254h925l-39 -254h-311l-133 -842h311l-41 -254h-925zM500 1452l235 248h295l158 -248h-232l-88 127h-8l-129 -127h-231z" />
<glyph unicode="&#xcf;" d="M152 0l41 254h311l133 842h-311l39 254h925l-39 -254h-311l-133 -842h311l-41 -254h-925zM518 1573q0 70 49 117t119 47q55 0 89 -34t34 -89q0 -70 -48 -117t-120 -47q-55 0 -89 34t-34 89zM924 1573q0 70 49 117t119 47q55 0 88.5 -34t33.5 -89q0 -70 -48 -117t-119 -47 q-56 0 -89.5 34t-33.5 89z" />
<glyph unicode="&#xd0;" d="M102 625l23 135l143 12l92 580h365q260 0 404.5 -134.5t144.5 -400.5q0 -262 -96.5 -446.5t-265.5 -277.5t-386 -93h-381l99 625h-142zM487 244h43q199 0 315 133t116 411q0 172 -76 246t-217 74h-43l-54 -336h220l-25 -147h-219z" />
<glyph unicode="&#xd1;" d="M135 0l213 1350h307l176 -678l68 -295h8l6 117q8 240 29 372l76 484h289l-213 -1350h-308l-176 678l-67 293h-8l-7 -113q-8 -240 -28 -375l-76 -483h-289zM510 1456q35 135 106.5 208t155.5 73q43 0 75 -15.5t73 -42.5q6 -4 24.5 -15t32.5 -16.5t27 -5.5q59 0 92 95h153 q-35 -135 -106.5 -208t-155.5 -73q-43 0 -74.5 15.5t-72.5 41.5q-6 4 -24.5 15.5t-33 16.5t-26.5 5q-57 0 -92 -94h-154z" />
<glyph unicode="&#xd2;" d="M170 532q0 252 87 442.5t237.5 295t336.5 104.5q205 0 324 -146.5t119 -402.5q0 -250 -87 -443.5t-238.5 -300t-338.5 -106.5q-202 0 -321 149.5t-119 407.5zM481 549q0 -145 45 -229t125 -84q88 0 159 75.5t112 206.5t41 289q0 143 -45.5 225t-126.5 82 q-88 0 -159 -73.5t-111 -202.5t-40 -289zM551 1700h319l127 -248h-239z" />
<glyph unicode="&#xd3;" d="M170 532q0 252 87 442.5t237.5 295t336.5 104.5q205 0 324 -146.5t119 -402.5q0 -250 -87 -443.5t-238.5 -300t-338.5 -106.5q-202 0 -321 149.5t-119 407.5zM481 549q0 -145 45 -229t125 -84q88 0 159 75.5t112 206.5t41 289q0 143 -45.5 225t-126.5 82 q-88 0 -159 -73.5t-111 -202.5t-40 -289zM690 1452l205 248h319l-284 -248h-240z" />
<glyph unicode="&#xd4;" d="M170 532q0 252 87 442.5t237.5 295t336.5 104.5q205 0 324 -146.5t119 -402.5q0 -250 -87 -443.5t-238.5 -300t-338.5 -106.5q-202 0 -321 149.5t-119 407.5zM481 549q0 -145 45 -229t125 -84q88 0 159 75.5t112 206.5t41 289q0 143 -45.5 225t-126.5 82 q-88 0 -159 -73.5t-111 -202.5t-40 -289zM500 1452l235 248h295l158 -248h-232l-88 127h-8l-129 -127h-231z" />
<glyph unicode="&#xd5;" d="M170 532q0 254 87 444.5t237.5 294t336.5 103.5q205 0 324 -145.5t119 -401.5q0 -250 -87 -444.5t-238.5 -301t-338.5 -106.5q-202 0 -321 148.5t-119 408.5zM481 549q0 -145 45 -229t125 -84q88 0 159 76.5t112 207.5t41 289q0 143 -45.5 224t-126.5 81 q-88 0 -159 -73.5t-111 -202.5t-40 -289zM498 1456q34 135 106 208t156 73q43 0 74.5 -15.5t72.5 -42.5q6 -4 24.5 -15t33 -16.5t26.5 -5.5q59 0 92 95h154q-35 -135 -106.5 -208t-155.5 -73q-43 0 -75 15.5t-73 41.5q-6 4 -24.5 15.5t-32.5 16.5t-27 5q-57 0 -92 -94h-153z " />
<glyph unicode="&#xd6;" d="M170 532q0 254 87 444.5t237.5 294t336.5 103.5q205 0 324 -145.5t119 -401.5q0 -250 -87 -444.5t-238.5 -301t-338.5 -106.5q-202 0 -321 148.5t-119 408.5zM481 549q0 -145 45 -229t125 -84q88 0 159 76.5t112 207.5t41 289q0 143 -45.5 224t-126.5 81 q-88 0 -159 -73.5t-111 -202.5t-40 -289zM518 1573q0 70 49 117t119 47q55 0 89 -34t34 -89q0 -70 -48 -117t-120 -47q-55 0 -89 34t-34 89zM924 1573q0 70 49 117t119 47q55 0 88.5 -34t33.5 -89q0 -70 -48 -117t-119 -47q-56 0 -89.5 34t-33.5 89z" />
<glyph unicode="&#xd7;" d="M231 381l338 293l-243 295l174 151l245 -295l340 295l125 -151l-338 -295l244 -293l-172 -152l-246 295l-340 -295z" />
<glyph unicode="&#xd8;" d="M63 18l162 193q-27 57 -41 143t-14 176q0 254 87 446.5t238.5 297t338.5 104.5q174 0 286 -100l133 160l144 -103l-172 -205q25 -53 37 -132.5t12 -166.5q0 -252 -87 -446.5t-238.5 -302t-338.5 -107.5q-170 0 -274 93l-127 -152zM479 510l414 549q6 10 -8.5 24.5 t-41 24.5t-52.5 10q-104 0 -182.5 -115.5t-112.5 -320.5q-12 -76 -17 -172zM532 301q43 -66 119 -65q105 0 186 120.5t113 325.5q10 68 15 139z" />
<glyph unicode="&#xd9;" d="M201 373q0 70 12 145l131 832h303l-137 -861q-8 -61 -8 -83q0 -170 153 -170q188 0 230 253l137 861h289l-131 -832q-41 -266 -183.5 -404.5t-382.5 -138.5q-206 0 -309.5 101.5t-103.5 296.5zM551 1700h319l127 -248h-239z" />
<glyph unicode="&#xda;" d="M201 373q0 70 12 145l131 832h303l-137 -861q-8 -61 -8 -83q0 -170 153 -170q188 0 230 253l137 861h289l-131 -832q-41 -266 -183.5 -404.5t-382.5 -138.5q-206 0 -309.5 101.5t-103.5 296.5zM690 1452l205 248h319l-284 -248h-240z" />
<glyph unicode="&#xdb;" d="M201 373q0 70 12 145l131 832h303l-137 -861q-8 -61 -8 -83q0 -170 153 -170q188 0 230 253l137 861h289l-131 -832q-41 -266 -183.5 -404.5t-382.5 -138.5q-206 0 -309.5 101.5t-103.5 296.5zM500 1452l235 248h295l158 -248h-232l-88 127h-8l-129 -127h-231z" />
<glyph unicode="&#xdc;" d="M201 375q0 70 12 145l131 830h303l-137 -861q-8 -61 -8 -83q0 -170 153 -170q188 0 230 253l137 861h289l-131 -830q-41 -266 -183.5 -405.5t-382.5 -139.5q-206 0 -309.5 101.5t-103.5 298.5zM518 1573q0 70 49 117t119 47q55 0 89 -34t34 -89q0 -70 -48 -117t-120 -47 q-55 0 -89 34t-34 89zM924 1573q0 70 49 117t119 47q55 0 88.5 -34t33.5 -89q0 -70 -48 -117t-119 -47q-56 0 -89.5 34t-33.5 89z" />
<glyph unicode="&#xdd;" d="M246 1350h325l82 -328q37 -137 72 -307h8q31 51 84 149l90 158l189 328h313l-571 -893l-72 -457h-303l72 457zM690 1452l205 248h319l-284 -248h-240z" />
<glyph unicode="&#xde;" d="M150 0l215 1352h301l-33 -205h186q211 0 336 -85t125 -274q0 -176 -82 -295.5t-219 -178t-301 -58.5h-186l-41 -256h-301zM528 496h168q143 0 213 66.5t70 189.5q0 82 -54.5 118.5t-162.5 36.5h-168z" />
<glyph unicode="&#xdf;" d="M125 0l166 1049q33 205 171 330.5t365 125.5q166 0 252 -87t86 -216q0 -98 -31.5 -162.5t-89.5 -132.5q-37 -45 -54 -75.5t-17 -67.5q0 -35 22.5 -60.5t71.5 -62.5q76 -61 117 -117.5t41 -152.5q0 -109 -50.5 -199t-144.5 -143.5t-221 -53.5q-82 0 -144.5 18.5 t-127.5 59.5l133 205q80 -59 164 -59q45 0 74.5 31.5t29.5 78.5q0 41 -24.5 71t-79.5 75q-70 53 -109 106t-39 137q0 78 24.5 129.5t75.5 118.5q45 57 69 104.5t24 110.5q0 47 -24 77t-67 30q-82 0 -132 -63.5t-66 -176.5l-164 -1028h-301z" />
<glyph unicode="&#xe0;" d="M168 408q0 197 79 348t201.5 233t251.5 82q82 0 136.5 -28.5t105.5 -86.5l39 88h266l-166 -1044h-245l-7 109h-6q-68 -59 -148.5 -96.5t-154.5 -37.5q-166 0 -259 115t-93 318zM479 438q0 -109 41 -163t117 -54q102 1 194 101l68 430q-66 74 -158 73q-68 0 -128 -44 t-97 -132t-37 -211zM609 1518h307l129 -342h-219z" />
<glyph unicode="&#xe1;" d="M168 408q0 197 79 348t201.5 233t251.5 82q82 0 136.5 -28.5t105.5 -86.5l39 88h266l-166 -1044h-245l-7 109h-6q-68 -59 -148.5 -96.5t-154.5 -37.5q-166 0 -259 115t-93 318zM479 438q0 -109 41 -163t117 -54q102 1 194 101l68 430q-66 74 -158 73q-68 0 -128 -44 t-97 -132t-37 -211zM555 1176l236 342h307l-324 -342h-219z" />
<glyph unicode="&#xe2;" d="M168 408q0 197 79 348t201.5 233t251.5 82q82 0 136.5 -28.5t105.5 -86.5l39 88h266l-166 -1044h-245l-7 109h-6q-68 -59 -148.5 -96.5t-154.5 -37.5q-166 0 -259 115t-93 318zM469 1176l258 342h254l152 -342h-219l-78 194h-8l-140 -194h-219zM479 438q0 -109 41 -163 t117 -54q102 1 194 101l68 430q-66 74 -158 73q-68 0 -128 -44t-97 -132t-37 -211z" />
<glyph unicode="&#xe3;" d="M168 408q0 197 79 348t201.5 233t251.5 82q82 0 136.5 -28.5t105.5 -86.5l39 88h266l-166 -1044h-245l-7 109h-6q-68 -59 -148.5 -96.5t-154.5 -37.5q-166 0 -259 115t-93 318zM451 1178q41 145 115.5 218.5t170.5 73.5q37 0 66 -16t64 -47q25 -23 40 -33t31 -10 q33 0 58.5 24.5t48.5 81.5h153q-41 -143 -115.5 -217.5t-170.5 -74.5q-39 0 -69 17t-63 48q-25 23 -40 33t-31 10q-33 0 -57.5 -24.5t-47.5 -83.5h-153zM479 438q0 -109 41 -163t117 -54q102 1 194 101l68 430q-66 74 -158 73q-68 0 -128 -44t-97 -132t-37 -211z" />
<glyph unicode="&#xe4;" d="M168 408q0 197 79 348t201.5 233t251.5 82q82 0 136.5 -28.5t105.5 -86.5l39 88h266l-166 -1044h-245l-7 109h-6q-68 -59 -148.5 -96.5t-154.5 -37.5q-166 0 -259 115t-93 318zM438 1309q0 76 55.5 129t133.5 53q61 0 99 -39t38 -98q0 -78 -54 -131.5t-134 -53.5 q-62 0 -100 39t-38 101zM479 438q0 -109 41 -163t117 -54q102 1 194 101l68 430q-66 74 -158 73q-68 0 -128 -44t-97 -132t-37 -211zM887 1307q0 78 54.5 131t131.5 53q63 0 101.5 -39t38.5 -98q0 -76 -56.5 -130.5t-134.5 -54.5q-61 0 -98 39t-37 99z" />
<glyph unicode="&#xe5;" d="M168 408q0 197 79 348t201.5 233t251.5 82q82 0 136.5 -28.5t105.5 -86.5l39 88h266l-166 -1044h-245l-7 109h-6q-68 -59 -148.5 -96.5t-154.5 -37.5q-166 0 -259 115t-93 318zM479 438q0 -109 41 -163t117 -54q102 1 194 101l68 430q-66 74 -158 73q-68 0 -128 -44 t-97 -132t-37 -211zM590 1300q0 106 77 173t191 67q92 0 146.5 -48t54.5 -130q0 -106 -76 -173t-190 -67q-92 0 -147.5 48.5t-55.5 129.5zM740 1315q0 -35 19 -57.5t52 -22.5q39 0 70 32.5t31 80.5q0 35 -19.5 57t-52.5 22q-41 0 -70.5 -31.5t-29.5 -80.5z" />
<glyph unicode="&#xe6;" d="M74 236q0 182 126 283.5t400 154.5q2 12 2 37q0 59 -22.5 89.5t-71.5 30.5q-41 0 -102.5 -20t-118.5 -53l-76 196q100 57 187 87t169 30q158 0 213 -158q68 82 134.5 120t152.5 38q123 0 186.5 -107.5t63.5 -275.5q0 -80 -11.5 -133t-22.5 -83t-13 -38h-465 q-2 -109 37 -166t112 -57q82 0 170 55l72 -192q-63 -47 -142 -73t-147 -26q-104 0 -171.5 42t-110.5 122q-92 -86 -168 -125t-146 -39q-114 0 -175.5 72t-61.5 189zM350 293q0 -41 20.5 -62.5t59.5 -21.5q31 0 68 19.5t69 56.5q-8 33 -8 88q0 25 4 73l4 43 q-217 -47 -217 -196zM829 621h244q8 43 8 92q0 127 -80 127q-53 0 -98 -55.5t-74 -163.5z" />
<glyph unicode="&#xe7;" d="M211 436q0 193 96 337.5t254 221t334 76.5q115 0 207 -39t151 -104l-170 -187q-98 86 -211 86q-98 0 -177 -45t-125 -126t-46 -185q0 -115 65.5 -183.5t176.5 -68.5q135 0 285 100l92 -190q-99 -72 -211.5 -110.5t-218.5 -43.5l-39 -63q98 -35 98 -127 q0 -113 -113.5 -171t-285.5 -67l-4 121q184 18 184 99q0 51 -107 77l99 150q-154 39 -244 153.5t-90 288.5z" />
<glyph unicode="&#xe8;" d="M186 436q0 188 91.5 332.5t235.5 223.5t298 79q197 0 301.5 -114.5t104.5 -299.5q0 -90 -19.5 -151.5t-21.5 -71.5h-684q-4 -115 67.5 -172t190.5 -57q127 0 274 74l68 -183q-94 -55 -207 -88t-213 -33q-142 0 -252.5 55.5t-172 159t-61.5 246.5zM518 635h428q4 37 4 51 q0 74 -42 114t-128 40t-156.5 -52.5t-105.5 -152.5zM635 1518h307l129 -342h-219z" />
<glyph unicode="&#xe9;" d="M186 436q0 188 91.5 332.5t235.5 223.5t298 79q197 0 301.5 -114.5t104.5 -299.5q0 -90 -19.5 -151.5t-21.5 -71.5h-684q-4 -115 67.5 -172t190.5 -57q127 0 274 74l68 -183q-94 -55 -207 -88t-213 -33q-142 0 -252.5 55.5t-172 159t-61.5 246.5zM518 635h428q4 37 4 51 q0 74 -42 114t-128 40t-156.5 -52.5t-105.5 -152.5zM582 1176l236 342h307l-324 -342h-219z" />
<glyph unicode="&#xea;" d="M186 436q0 188 91.5 332.5t235.5 223.5t298 79q197 0 301.5 -114.5t104.5 -299.5q0 -90 -19.5 -151.5t-21.5 -71.5h-684q-4 -115 67.5 -172t190.5 -57q127 0 274 74l68 -183q-94 -55 -207 -88t-213 -33q-142 0 -252.5 55.5t-172 159t-61.5 246.5zM495 1176l258 342h254 l152 -342h-219l-78 194h-8l-140 -194h-219zM518 635h428q4 37 4 51q0 74 -42 114t-128 40t-156.5 -52.5t-105.5 -152.5z" />
<glyph unicode="&#xeb;" d="M186 436q0 188 91.5 332.5t235.5 223.5t298 79q197 0 301.5 -114.5t104.5 -299.5q0 -90 -19.5 -151.5t-21.5 -71.5h-684q-4 -115 67.5 -172t190.5 -57q127 0 274 74l68 -183q-94 -55 -207 -88t-213 -33q-142 0 -252.5 55.5t-172 159t-61.5 246.5zM464 1309q0 76 55.5 129 t133.5 53q61 0 99 -39t38 -98q0 -78 -54 -131.5t-134 -53.5q-62 0 -100 39t-38 101zM518 635h428q4 37 4 51q0 74 -42 114t-128 40t-156.5 -52.5t-105.5 -152.5zM913 1307q0 78 54.5 131t131.5 53q63 0 101.5 -39t38.5 -98q0 -76 -56.5 -130.5t-134.5 -54.5q-61 0 -98 39 t-37 99z" />
<glyph unicode="&#xec;" d="M125 0l39 244h348l90 565h-348l37 235h649l-127 -800h348l-39 -244h-997zM604 1485h307l129 -342h-219z" />
<glyph unicode="&#xed;" d="M125 0l39 244h348l90 565h-348l37 235h649l-127 -800h348l-39 -244h-997zM551 1143l236 342h307l-324 -342h-219z" />
<glyph unicode="&#xee;" d="M125 0l39 244h348l90 565h-348l37 235h649l-127 -800h348l-39 -244h-997zM465 1143l258 342h254l152 -342h-219l-78 194h-8l-140 -194h-219z" />
<glyph unicode="&#xef;" d="M125 0l39 244h348l90 565h-348l37 235h649l-127 -800h348l-39 -244h-997zM434 1276q0 76 55.5 129t133.5 53q61 0 99 -39t38 -98q0 -78 -54 -131.5t-134 -53.5q-62 0 -100 39t-38 101zM883 1274q0 78 54.5 131t131.5 53q63 0 101.5 -39t38.5 -98q0 -76 -56.5 -130.5 t-134.5 -54.5q-61 0 -98 39t-37 99z" />
<glyph unicode="&#xf0;" d="M164 406q0 164 76.5 289.5t200.5 194t259 68.5q164 0 240 -118q-27 188 -149 323l-330 -157l-58 133l267 129q-84 63 -176 108l161 183q147 -72 269 -173l301 146l57 -135l-246 -119q92 -102 143.5 -246.5t51.5 -318.5q0 -215 -80 -383t-223.5 -261.5t-327.5 -93.5 q-125 0 -224.5 53.5t-155.5 150.5t-56 227zM442 434q0 -100 57.5 -157.5t149.5 -57.5q109 0 183.5 83t99.5 241q8 55 10 73q-41 63 -94 91t-121 28q-131 0 -208 -78.5t-77 -222.5z" />
<glyph unicode="&#xf1;" d="M147 0l166 1044h246v-141h8q88 78 180.5 123t196.5 45q274 0 275 -299q0 -51 -11 -127l-102 -645h-301l96 606q6 43 6 80q0 68 -28.5 98.5t-94.5 30.5q-57 0 -106 -27.5t-119 -89.5l-110 -698h-302zM471 1178q41 145 115.5 218.5t170.5 73.5q37 0 66 -16t64 -47 q25 -23 40 -33t31 -10q33 0 58.5 24.5t48.5 81.5h153q-41 -143 -115.5 -217.5t-170.5 -74.5q-39 0 -69 17t-63 48q-25 23 -40 33t-31 10q-33 0 -57.5 -24.5t-47.5 -83.5h-153z" />
<glyph unicode="&#xf2;" d="M170 436q0 190 89 334.5t230.5 222.5t294.5 78q121 0 221.5 -55t160 -160.5t59.5 -247.5q0 -190 -89 -334.5t-230.5 -221.5t-295.5 -77q-121 0 -221 55.5t-159.5 160t-59.5 245.5zM481 446q0 -106 42 -166.5t126 -60.5q125 0 194.5 107.5t69.5 271.5q0 109 -42 169 t-126 60q-125 0 -194.5 -107.5t-69.5 -273.5zM609 1518h307l129 -342h-219z" />
<glyph unicode="&#xf3;" d="M170 436q0 190 89 334.5t230.5 222.5t294.5 78q121 0 221.5 -55t160 -160.5t59.5 -247.5q0 -190 -89 -334.5t-230.5 -221.5t-295.5 -77q-121 0 -221 55.5t-159.5 160t-59.5 245.5zM481 446q0 -106 42 -166.5t126 -60.5q125 0 194.5 107.5t69.5 271.5q0 109 -42 169 t-126 60q-125 0 -194.5 -107.5t-69.5 -273.5zM555 1176l236 342h307l-324 -342h-219z" />
<glyph unicode="&#xf4;" d="M170 436q0 190 89 334.5t230.5 222.5t294.5 78q121 0 221.5 -55t160 -160.5t59.5 -247.5q0 -190 -89 -334.5t-230.5 -221.5t-295.5 -77q-121 0 -221 55.5t-159.5 160t-59.5 245.5zM469 1176l258 342h254l152 -342h-219l-78 194h-8l-140 -194h-219zM481 446 q0 -106 42 -166.5t126 -60.5q125 0 194.5 107.5t69.5 271.5q0 109 -42 169t-126 60q-125 0 -194.5 -107.5t-69.5 -273.5z" />
<glyph unicode="&#xf5;" d="M170 436q0 190 89 334.5t230.5 222.5t294.5 78q121 0 221.5 -55t160 -160.5t59.5 -247.5q0 -190 -89 -334.5t-230.5 -221.5t-295.5 -77q-121 0 -221 55.5t-159.5 160t-59.5 245.5zM451 1178q41 145 115.5 218.5t170.5 73.5q37 0 66 -16t64 -47q25 -23 40 -33t31 -10 q33 0 58.5 24.5t48.5 81.5h153q-41 -143 -115.5 -217.5t-170.5 -74.5q-39 0 -69 17t-63 48q-25 23 -40 33t-31 10q-33 0 -57.5 -24.5t-47.5 -83.5h-153zM481 446q0 -106 42 -166.5t126 -60.5q125 0 194.5 107.5t69.5 271.5q0 109 -42 169t-126 60q-125 0 -194.5 -107.5 t-69.5 -273.5z" />
<glyph unicode="&#xf6;" d="M170 436q0 190 89 334.5t230.5 222.5t294.5 78q121 0 221.5 -55t160 -160.5t59.5 -247.5q0 -190 -89 -334.5t-230.5 -221.5t-295.5 -77q-121 0 -221 55.5t-159.5 160t-59.5 245.5zM438 1309q0 76 55.5 129t133.5 53q61 0 99 -39t38 -98q0 -78 -54 -131.5t-134 -53.5 q-62 0 -100 39t-38 101zM481 446q0 -106 42 -166.5t126 -60.5q125 0 194.5 107.5t69.5 271.5q0 109 -42 169t-126 60q-125 0 -194.5 -107.5t-69.5 -273.5zM887 1307q0 78 54.5 131t131.5 53q63 0 101.5 -39t38.5 -98q0 -76 -56.5 -130.5t-134.5 -54.5q-61 0 -98 39t-37 99z " />
<glyph unicode="&#xf7;" d="M233 569l35 213h942l-34 -213h-943zM494 274q0 80 57 135.5t137 55.5q63 0 102 -40t39 -101q0 -80 -57 -135.5t-137 -55.5q-64 0 -102.5 40t-38.5 101zM612 1028q0 80 57.5 135.5t137.5 55.5q63 0 103 -40t40 -102q0 -80 -57 -135t-137 -55q-64 0 -104 40t-40 101z" />
<glyph unicode="&#xf8;" d="M133 35l113 119q-35 53 -55.5 126.5t-20.5 155.5q0 190 89 334.5t230.5 222.5t294.5 78q156 0 269 -84l110 115l99 -90l-115 -119q37 -53 57.5 -128t20.5 -157q0 -190 -89 -334.5t-230.5 -221.5t-295.5 -77q-158 0 -270 84l-109 -112zM479 442q0 -41 2 -53l379 404 q-39 43 -112 43q-125 0 -197 -113t-72 -281zM532 256q41 -47 115 -47q125 0 196.5 113.5t71.5 283.5q0 41 -2 53z" />
<glyph unicode="&#xf9;" d="M180 270q0 70 10 129l103 645h301l-96 -606q-8 -61 -9 -82q0 -66 29 -95.5t94 -29.5q57 0 106.5 28t112.5 97l109 688h301l-166 -1044h-246l2 152h-8q-88 -86 -177 -131.5t-193 -45.5q-273 0 -273 295zM609 1518h307l129 -342h-219z" />
<glyph unicode="&#xfa;" d="M180 270q0 70 10 129l103 645h301l-96 -606q-8 -61 -9 -82q0 -66 29 -95.5t94 -29.5q57 0 106.5 28t112.5 97l109 688h301l-166 -1044h-246l2 152h-8q-88 -86 -177 -131.5t-193 -45.5q-273 0 -273 295zM555 1176l236 342h307l-324 -342h-219z" />
<glyph unicode="&#xfb;" d="M180 270q0 70 10 129l103 645h301l-96 -606q-8 -61 -9 -82q0 -66 29 -95.5t94 -29.5q57 0 106.5 28t112.5 97l109 688h301l-166 -1044h-246l2 152h-8q-88 -86 -177 -131.5t-193 -45.5q-273 0 -273 295zM469 1176l258 342h254l152 -342h-219l-78 194h-8l-140 -194h-219z " />
<glyph unicode="&#xfc;" d="M180 270q0 70 10 129l103 645h301l-96 -606q-8 -61 -9 -82q0 -66 29 -95.5t94 -29.5q57 0 106.5 28t112.5 97l109 688h301l-166 -1044h-246l2 152h-8q-88 -86 -177 -131.5t-193 -45.5q-273 0 -273 295zM438 1309q0 76 55.5 129t133.5 53q61 0 99 -39t38 -98 q0 -78 -54 -131.5t-134 -53.5q-62 0 -100 39t-38 101zM887 1307q0 78 54.5 131t131.5 53q63 0 101.5 -39t38.5 -98q0 -76 -56.5 -130.5t-134.5 -54.5q-61 0 -98 39t-37 99z" />
<glyph unicode="&#xfd;" d="M70 -424l90 229q37 -12 78 -12q78 0 135 47t88 101l47 84l-279 1019h297l99 -456q33 -156 53 -314h8q49 117 143 314l222 456h284l-577 -1093q-109 -205 -229.5 -300t-305.5 -95q-85 0 -153 20zM575 1176l236 342h307l-324 -342h-219z" />
<glyph unicode="&#xfe;" d="M88 -377l274 1729h302l-39 -242l-35 -162q72 57 150.5 90t154.5 33q158 0 246 -112.5t88 -307.5q0 -203 -80 -356.5t-205 -236.5t-254 -83q-133 0 -233 115l-21 -172l-47 -295h-301zM496 293q33 -37 75.5 -54.5t85.5 -17.5q68 0 127.5 45t96.5 135.5t37 219.5 q0 205 -152 204q-94 0 -203 -102z" />
<glyph unicode="&#xff;" d="M70 -424l90 229q37 -12 78 -12q78 0 135 47t88 101l47 84l-279 1019h297l99 -456q33 -156 53 -314h8q49 117 143 314l222 456h284l-577 -1093q-109 -205 -229.5 -300t-305.5 -95q-85 0 -153 20zM458 1309q0 76 55.5 129t133.5 53q61 0 99 -39t38 -98q0 -78 -54 -131.5 t-134 -53.5q-62 0 -100 39t-38 101zM907 1307q0 78 54.5 131t131.5 53q63 0 101.5 -39t38.5 -98q0 -76 -56.5 -130.5t-134.5 -54.5q-61 0 -98 39t-37 99z" />
<glyph unicode="&#x152;" d="M131 535q0 266 90 450t247 275.5t351 91.5h594l-41 -252h-328l-43 -279h248l-41 -252h-247l-50 -315h349l-41 -254h-631q-209 0 -333 136t-124 399zM438 526q0 -150 44 -216t126 -66h33l137 864h-33q-152 0 -229.5 -145.5t-77.5 -436.5z" />
<glyph unicode="&#x153;" d="M94 399q0 199 67.5 352.5t178.5 236.5t235 83q84 0 138.5 -49t79.5 -137q57 90 127.5 138t146.5 48q119 0 183.5 -108.5t64.5 -276.5q0 -92 -9.5 -138t-20.5 -72.5t-15 -41.5h-455q-2 -111 36 -167t112 -56q78 0 161 55l72 -192q-63 -47 -140 -73t-143 -26q-80 0 -141 43 t-94 123q-59 -84 -127 -125t-156 -41q-135 0 -218 113t-83 311zM365 410q0 -90 22.5 -141.5t69.5 -51.5q51 0 91 61.5t62.5 159t22.5 201.5q0 88 -20.5 139t-59.5 51q-88 0 -138 -129t-50 -290zM840 621h233q8 47 8 98q0 121 -73 121q-53 0 -97.5 -55.5t-70.5 -163.5z" />
<glyph unicode="&#x178;" d="M246 1350h325l82 -328q37 -137 72 -307h8q31 51 84 149l90 158l189 328h313l-571 -893l-72 -457h-303l72 457zM518 1573q0 70 49 117t119 47q55 0 89 -34t34 -89q0 -70 -48 -117t-120 -47q-55 0 -89 34t-34 89zM924 1573q0 70 49 117t119 47q55 0 88.5 -34t33.5 -89 q0 -70 -48 -117t-119 -47q-56 0 -89.5 34t-33.5 89z" />
<glyph unicode="&#x2c6;" d="M469 1176l258 342h254l152 -342h-220l-77 194h-9l-139 -194h-219z" />
<glyph unicode="&#x2dc;" d="M451 1178q41 145 115.5 218.5t170.5 73.5q37 0 65.5 -16t63.5 -47q25 -23 40.5 -33t31.5 -10q33 0 58.5 24.5t47.5 81.5h154q-41 -143 -115.5 -217.5t-171.5 -74.5q-39 0 -68.5 17t-62.5 48q-25 23 -40 33t-31 10q-33 0 -57.5 -24.5t-47.5 -83.5h-153z" />
<glyph unicode="&#x2000;" horiz-adv-x="923" />
<glyph unicode="&#x2001;" horiz-adv-x="1847" />
<glyph unicode="&#x2002;" horiz-adv-x="923" />
<glyph unicode="&#x2003;" horiz-adv-x="1847" />
<glyph unicode="&#x2004;" horiz-adv-x="615" />
<glyph unicode="&#x2005;" horiz-adv-x="461" />
<glyph unicode="&#x2006;" horiz-adv-x="307" />
<glyph unicode="&#x2007;" horiz-adv-x="307" />
<glyph unicode="&#x2008;" horiz-adv-x="230" />
<glyph unicode="&#x2009;" horiz-adv-x="369" />
<glyph unicode="&#x200a;" horiz-adv-x="102" />
<glyph unicode="&#x2010;" d="M233 569l35 213h942l-34 -213h-943z" />
<glyph unicode="&#x2011;" d="M233 569l35 213h942l-34 -213h-943z" />
<glyph unicode="&#x2012;" d="M233 569l35 213h942l-34 -213h-943z" />
<glyph unicode="&#x2013;" d="M229 408l35 227h901l-35 -227h-901z" />
<glyph unicode="&#x2014;" d="M106 408l35 227h1147l-35 -227h-1147z" />
<glyph unicode="&#x2018;" d="M514 844q0 195 112.5 342t334.5 241l53 -159q-117 -49 -184.5 -119t-90.5 -168q20 6 43 6q74 0 117 -43t43 -115q0 -102 -66.5 -168.5t-164.5 -66.5q-95 0 -146 65.5t-51 184.5z" />
<glyph unicode="&#x2019;" d="M532 754q229 96 275 284q-23 -6 -41 -6q-74 0 -118 44t-44 116q0 100 67.5 167.5t164.5 67.5q96 0 146 -65.5t50 -183.5q0 -195 -111.5 -342.5t-332.5 -241.5z" />
<glyph unicode="&#x201a;" d="M365 -315q229 98 274 284q-33 -4 -43 -4q-74 0 -118 44t-44 116q0 100 68.5 167.5t165.5 67.5q94 0 144 -65.5t50 -183.5q0 -195 -111.5 -343.5t-332.5 -240.5z" />
<glyph unicode="&#x201c;" d="M242 844q0 195 112.5 342t333.5 241l53 -159q-117 -49 -184.5 -119t-89.5 -168q20 6 43 6q74 0 117 -43t43 -115q0 -102 -66.5 -168.5t-165.5 -66.5q-94 0 -145 65.5t-51 184.5zM786 844q0 195 113 342t334 241l53 -159q-117 -49 -184.5 -119t-89.5 -168q20 6 43 6 q74 0 116.5 -43t42.5 -115q0 -102 -66.5 -168.5t-164.5 -66.5q-94 0 -145.5 65.5t-51.5 184.5z" />
<glyph unicode="&#x201d;" d="M260 754q229 96 275 282q-29 -4 -41 -4q-74 0 -118 44t-44 116q0 100 67.5 167.5t163.5 67.5t146.5 -65.5t50.5 -183.5q0 -195 -111.5 -342.5t-333.5 -241.5zM805 754q229 96 274 284q-25 -6 -43 -6q-72 0 -115.5 44t-43.5 116q0 100 67.5 167.5t163.5 67.5t146.5 -65.5 t50.5 -183.5q0 -195 -112 -342.5t-333 -241.5z" />
<glyph unicode="&#x201e;" d="M92 -315q231 100 273 284q-29 -4 -41 -4q-74 0 -118 44t-44 116q0 100 68.5 167.5t164.5 67.5q94 0 144.5 -65.5t50.5 -183.5q0 -195 -111.5 -343.5t-333.5 -240.5zM637 -315q229 100 274 286q-27 -6 -45 -6q-72 0 -115.5 44t-43.5 116q0 100 68.5 167.5t164.5 67.5 q94 0 144.5 -65.5t50.5 -183.5q0 -195 -112 -343.5t-333 -240.5z" />
<glyph unicode="&#x2022;" d="M358 492q0 102 54.5 188t144.5 136t195 50q129 0 208.5 -79.5t79.5 -204.5q0 -102 -54 -188.5t-144 -136.5t-195 -50q-127 0 -208 81t-81 204z" />
<glyph unicode="&#x2026;" d="M23 141q0 94 64.5 161t158.5 67q74 0 117 -47.5t43 -118.5q0 -94 -63.5 -161t-160.5 -67q-73 0 -116 47.5t-43 118.5zM451 141q0 94 64.5 161t158.5 67q72 0 116 -47.5t44 -118.5q0 -94 -64.5 -161t-159.5 -67q-73 0 -116 47.5t-43 118.5zM879 141q0 94 63.5 161 t159.5 67q72 0 116 -47.5t44 -118.5q0 -94 -64.5 -161t-159.5 -67q-73 0 -116 47.5t-43 118.5z" />
<glyph unicode="&#x202f;" horiz-adv-x="369" />
<glyph unicode="&#x2039;" d="M416 367l47 299l401 315l109 -113l-316 -352l205 -352l-145 -113z" />
<glyph unicode="&#x203a;" d="M420 164l315 352l-205 352l146 113l299 -315l-47 -299l-400 -316z" />
<glyph unicode="&#x205f;" horiz-adv-x="461" />
<glyph unicode="&#x20ac;" d="M162 440l22 142l115 8q0 18 2 30.5t4 22.5q4 35 10 53h-112l22 140l131 10q86 227 260.5 353t395.5 126q104 0 195 -42t155 -118l-191 -161q-94 88 -206 88q-102 0 -179 -62.5t-127 -181.5h519l-25 -152h-539l-6 -43q-2 -12 -5 -30.5t-3 -28.5h455l-25 -154h-430 q14 -113 72.5 -172t158.5 -59q131 0 248 110l142 -155q-205 -188 -445 -189q-211 0 -341 120t-142 345h-131z" />
<glyph unicode="&#x2122;" d="M164 1206l29 178h518l-29 -178h-160l-73 -465h-197l74 465h-162zM680 741l102 643h211l39 -192l21 -145h8l63 145l101 192h211l-103 -643h-172l33 197l59 236h-8l-158 -304h-118l-62 304h-8l-14 -236l-33 -197h-172z" />
<glyph unicode="&#x25fc;" horiz-adv-x="1044" d="M0 0v1044h1044v-1044h-1044z" />
</font>
</defs>
</svg>
